<svg width="109" height="109" viewBox="0 0 109 109" fill="none" xmlns="http://www.w3.org/2000/svg">
<path fill-rule="evenodd" clip-rule="evenodd" d="M54.1232 108.246C84.0146 108.246 108.246 84.0146 108.246 54.1232C108.246 24.2318 84.0146 0 54.1232 0C24.2318 0 0 24.2318 0 54.1232C0 84.0146 24.2318 108.246 54.1232 108.246Z" fill="white"/>
<path fill-rule="evenodd" clip-rule="evenodd" d="M54.1231 14.2968C55.8151 14.2968 57.1867 12.9252 57.1867 11.2333C57.1867 9.54129 55.8151 8.16968 54.1231 8.16968C52.4312 8.16968 51.0596 9.54129 51.0596 11.2333C51.0596 12.9252 52.4312 14.2968 54.1231 14.2968Z" fill="#EEF9F6"/>
<path fill-rule="evenodd" clip-rule="evenodd" d="M11.2335 57.187C12.9255 57.187 14.2971 55.8154 14.2971 54.1234C14.2971 52.4314 12.9255 51.0598 11.2335 51.0598C9.54153 51.0598 8.16992 52.4314 8.16992 54.1234C8.16992 55.8154 9.54153 57.187 11.2335 57.187Z" fill="#EEF9F6"/>
<path fill-rule="evenodd" clip-rule="evenodd" d="M97.0133 57.187C98.7053 57.187 100.077 55.8154 100.077 54.1234C100.077 52.4314 98.7053 51.0598 97.0133 51.0598C95.3213 51.0598 93.9497 52.4314 93.9497 54.1234C93.9497 55.8154 95.3213 57.187 97.0133 57.187Z" fill="#EEF9F6"/>
<path fill-rule="evenodd" clip-rule="evenodd" d="M54.1231 100.077C55.8151 100.077 57.1867 98.7055 57.1867 97.0135C57.1867 95.3216 55.8151 93.95 54.1231 93.95C52.4312 93.95 51.0596 95.3216 51.0596 97.0135C51.0596 98.7055 52.4312 100.077 54.1231 100.077Z" fill="#EEF9F6"/>
<path fill-rule="evenodd" clip-rule="evenodd" d="M54.123 17.3604L56.1653 53.1021H52.0806L54.123 17.3604Z" fill="#E4F5FF"/>
<path fill-rule="evenodd" clip-rule="evenodd" d="M72.1969 72.1969L53.4225 56.3108L56.3109 53.4225L72.1969 72.1969Z" fill="#E4F5FF"/>
<path fill-rule="evenodd" clip-rule="evenodd" d="M54.1233 58.2079C56.3793 58.2079 58.2081 56.3791 58.2081 54.1231C58.2081 51.8671 56.3793 50.0383 54.1233 50.0383C51.8674 50.0383 50.0386 51.8671 50.0386 54.1231C50.0386 56.3791 51.8674 58.2079 54.1233 58.2079Z" fill="#E4F5FF"/>
</svg>
