<svg width="87" height="87" viewBox="0 0 87 87" fill="none" xmlns="http://www.w3.org/2000/svg">
<circle opacity="0.6" cx="43.5" cy="43.5" r="43.5" fill="#E4F5FF"/>
<circle cx="36.1345" cy="31.2199" r="11.3514" transform="rotate(12.3847 36.1345 31.2199)" fill="#8DD3FF" stroke="#8DD3FF" stroke-width="0.908108"/>
<path d="M39.0559 17.9153L33.2129 44.5246" stroke="#8DD3FF" stroke-width="0.908108"/>
<path d="M38.1689 17.7205L39.9429 18.1101" stroke="#8DD3FF" stroke-width="0.908108" stroke-linecap="round"/>
<path d="M32.3259 44.3298L34.0999 44.7193" stroke="#8DD3FF" stroke-width="0.908108" stroke-linecap="round"/>
<path d="M32.012 18.237L40.2564 44.2028" stroke="#8DD3FF" stroke-width="0.908108"/>
<path d="M31.1465 18.5118L32.8775 17.9622" stroke="#8DD3FF" stroke-width="0.908108" stroke-linecap="round"/>
<path d="M39.3909 44.4777L41.1219 43.928" stroke="#8DD3FF" stroke-width="0.908108" stroke-linecap="round"/>
<path d="M25.5254 22.3733L45.6482 40.7381" stroke="#8DD3FF" stroke-width="0.908108"/>
<path d="M24.9133 23.044L26.1377 21.7025" stroke="#8DD3FF" stroke-width="0.908108" stroke-linecap="round"/>
<path d="M45.0361 41.4089L46.2605 40.0674" stroke="#8DD3FF" stroke-width="0.908108" stroke-linecap="round"/>
<path d="M22.8298 28.2985L49.4391 34.1415" stroke="#8DD3FF" stroke-width="0.908108"/>
<path d="M22.635 29.1854L23.0245 27.4115" stroke="#8DD3FF" stroke-width="0.908108" stroke-linecap="round"/>
<path d="M49.2444 35.0284L49.6339 33.2545" stroke="#8DD3FF" stroke-width="0.908108" stroke-linecap="round"/>
<path d="M23.1514 35.3421L49.1172 27.0976" stroke="#8DD3FF" stroke-width="0.908108"/>
<path d="M23.4263 36.2076L22.8766 34.4766" stroke="#8DD3FF" stroke-width="0.908108" stroke-linecap="round"/>
<path d="M49.3921 27.9632L48.8425 26.2321" stroke="#8DD3FF" stroke-width="0.908108" stroke-linecap="round"/>
<path d="M26.4043 41.617L44.7691 21.4942" stroke="#8DD3FF" stroke-width="0.908108"/>
<path d="M27.0752 42.2291L25.7337 41.0048" stroke="#8DD3FF" stroke-width="0.908108" stroke-linecap="round"/>
<path d="M45.4399 22.1063L44.0984 20.882" stroke="#8DD3FF" stroke-width="0.908108" stroke-linecap="round"/>
<circle cx="51.3077" cy="49.8261" r="16.8649" transform="rotate(12.3847 51.3077 49.8261)" fill="#1CABE2"/>
<path d="M55.4812 30.8195L47.1341 68.8328" stroke="#1CABE2" stroke-width="1.2973"/>
<path d="M54.2141 30.5413L56.7483 31.0977" stroke="#1CABE2" stroke-width="1.2973" stroke-linecap="round"/>
<path d="M45.8669 68.5546L48.4012 69.111" stroke="#1CABE2" stroke-width="1.2973" stroke-linecap="round"/>
<path d="M45.4189 31.2791L57.1967 68.3731" stroke="#1CABE2" stroke-width="1.2973"/>
<path d="M44.1824 31.6717L46.6553 30.8865" stroke="#1CABE2" stroke-width="1.2973" stroke-linecap="round"/>
<path d="M55.9602 68.7657L58.4331 67.9805" stroke="#1CABE2" stroke-width="1.2973" stroke-linecap="round"/>
<path d="M36.1521 37.188L64.899 63.4235" stroke="#1CABE2" stroke-width="1.2973"/>
<path d="M35.2776 38.1462L37.0266 36.2298" stroke="#1CABE2" stroke-width="1.2973" stroke-linecap="round"/>
<path d="M64.0244 64.3817L65.7734 62.4653" stroke="#1CABE2" stroke-width="1.2973" stroke-linecap="round"/>
<path d="M32.301 45.6525L70.3143 53.9997" stroke="#1CABE2" stroke-width="1.2973"/>
<path d="M32.0227 46.9196L32.5792 44.3854" stroke="#1CABE2" stroke-width="1.2973" stroke-linecap="round"/>
<path d="M70.0359 55.2668L70.5924 52.7326" stroke="#1CABE2" stroke-width="1.2973" stroke-linecap="round"/>
<path d="M32.7607 55.715L69.8548 43.9372" stroke="#1CABE2" stroke-width="1.2973"/>
<path d="M33.1533 56.9515L32.3681 54.4785" stroke="#1CABE2" stroke-width="1.2973" stroke-linecap="round"/>
<path d="M70.2473 45.1737L69.4621 42.7008" stroke="#1CABE2" stroke-width="1.2973" stroke-linecap="round"/>
<path d="M37.4077 64.679L63.6432 35.9321" stroke="#1CABE2" stroke-width="1.2973"/>
<path d="M38.366 65.5535L36.4495 63.8045" stroke="#1CABE2" stroke-width="1.2973" stroke-linecap="round"/>
<path d="M64.6013 36.8066L62.6849 35.0576" stroke="#1CABE2" stroke-width="1.2973" stroke-linecap="round"/>
<circle cx="49.6082" cy="45.4683" r="3.89189" transform="rotate(12.3847 49.6082 45.4683)" fill="white"/>
<circle cx="57.7973" cy="56.564" r="2.59459" transform="rotate(12.3847 57.7973 56.564)" fill="white"/>
<circle cx="44.0753" cy="55.5431" r="1.94595" transform="rotate(12.3847 44.0753 55.5431)" fill="white"/>
<circle cx="60.5797" cy="43.8929" r="1.2973" transform="rotate(12.3847 60.5797 43.8929)" fill="white"/>
<circle cx="59.5" cy="16.5" r="2.5" fill="#8DD3FF"/>
<circle cx="16.5" cy="57.5" r="2.5" fill="#152FBF"/>
<circle cx="63.5" cy="23.5" r="1.5" fill="#152FBF"/>
</svg>
