<svg width="216" height="416" viewBox="0 0 216 416" fill="none" xmlns="http://www.w3.org/2000/svg">
<g clip-path="url(#clip0)">
<path fill-rule="evenodd" clip-rule="evenodd" d="M95.0866 69.1977C88.8545 73.0155 82.6224 74.8537 79.648 74.0053C72.4244 72.1671 71.7162 45.5838 77.3817 35.1202C83.0473 24.6566 111.942 20.1318 113.358 40.7762C113.925 47.9876 110.809 54.3507 106.418 59.7239L114.491 97.0536H91.1207L95.0866 69.1977Z" fill="#B28B67"/>
<path fill-rule="evenodd" clip-rule="evenodd" d="M86.5883 23.6669C89.7043 22.6771 94.3784 22.3943 96.3614 22.5357C95.2283 19.8491 94.8034 16.8797 95.2283 14.0517C95.5116 11.2237 96.7863 8.81985 97.9194 6.41604C98.486 5.28484 99.0525 4.15364 99.9024 3.30523C100.752 2.45683 102.027 1.89123 103.16 1.60843C104.435 1.32563 105.71 1.32563 106.984 1.60843C107.551 1.74983 107.976 2.03263 108.542 2.17403C109.109 2.17403 109.392 1.89123 109.817 1.46703C110.809 0.618627 112.225 0.194426 113.5 0.0530252C114.916 -0.0883753 116.333 0.0530251 117.607 0.477226C118.882 0.901428 120.157 1.60843 121.007 2.73963C121.432 3.16383 121.856 3.72944 121.998 4.29504C122.14 4.57784 122.14 4.71924 122.423 4.71924C122.706 4.86064 122.848 4.86064 123.131 4.86064C125.256 5.70904 127.097 7.40585 128.23 9.66825C128.797 10.9409 129.08 13.2033 129.08 15.7485C128.938 18.2937 126.672 24.7981 124.548 27.2019C122.706 29.3229 119.874 30.7369 117.182 31.3025C119.024 33.2821 120.157 35.8273 121.007 38.5139C121.998 41.3419 122.565 44.3114 122.706 47.2808C122.848 50.1088 122.99 53.0782 122.281 55.9062C121.715 58.4514 120.298 60.5724 118.174 61.9864C117.182 62.552 116.049 63.1176 114.916 63.5418C113.783 63.966 112.792 64.3902 111.658 64.5316C109.534 64.9558 106.984 64.9558 105.426 63.259C104.86 62.6934 104.152 61.845 103.727 61.138C103.585 60.8552 103.443 60.7138 103.727 60.431C104.01 60.1482 104.293 59.8654 104.576 59.5826C106.276 58.1686 107.268 56.3304 107.551 54.068C107.834 51.8056 107.268 48.8362 105.001 47.8464C102.31 46.5738 99.1942 47.9878 96.7863 49.4018C95.7948 45.7254 93.6702 42.4732 90.2709 40.7763C86.5883 38.9381 82.3391 38.6553 78.6565 37.0999C77.665 36.6757 76.6735 36.2515 75.9653 35.4031C75.682 35.1203 75.2571 34.5547 75.2571 34.1305C75.1155 33.5649 75.5404 32.9993 75.8237 32.5751C77.2401 29.7471 83.3306 24.6567 86.5883 23.6669Z" fill="#191847"/>
<path fill-rule="evenodd" clip-rule="evenodd" d="M120.582 181.47L85.0306 303.922L68.3171 395.833H51.4621L68.1755 181.47H120.582Z" fill="#997659"/>
<path fill-rule="evenodd" clip-rule="evenodd" d="M136.587 181.47C134.038 245.1 135.029 279.743 135.596 285.54C136.162 291.338 139.278 330.082 160.808 397.812H143.386C114.916 332.768 105.002 294.166 101.744 285.54C98.4863 277.056 88.8548 242.272 74.6909 181.47H136.587Z" fill="#B28B67"/>
<path fill-rule="evenodd" clip-rule="evenodd" d="M121.29 181.47C112.083 223.607 96.0782 290.914 73.2743 383.248H48.6291C46.7878 288.368 54.5779 226.011 67.892 181.47H121.29Z" fill="#159FD3"/>
<path fill-rule="evenodd" clip-rule="evenodd" d="M136.729 181.47C134.321 245.1 140.553 307.74 160.099 384.238H133.896C105.426 320.183 84.8886 257.826 71.008 181.47H136.729Z" fill="#1CABE2"/>
<path fill-rule="evenodd" clip-rule="evenodd" d="M163.357 410.397L162.507 396.398C162.507 395.55 161.657 395.126 160.949 395.267C152.592 396.823 141.261 393.005 141.261 393.005C129.93 401.065 113.783 404.883 107.409 406.155C105.993 406.438 105.002 407.852 105.426 409.266L106.56 413.367H141.12H161.374L163.357 410.397Z" fill="#191847"/>
<path fill-rule="evenodd" clip-rule="evenodd" d="M71.9995 410.397L71.1497 396.398C71.1497 395.55 70.2998 395.126 69.5916 395.267C61.2349 396.823 49.9038 393.005 49.9038 393.005C38.5726 401.065 22.4258 404.883 16.052 406.155C14.6356 406.438 13.6441 407.852 14.069 409.266L15.2022 413.367H49.9038H70.1582L71.9995 410.397Z" fill="#191847"/>
<path fill-rule="evenodd" clip-rule="evenodd" d="M71.0081 144.988L28.9412 164.926C18.4599 165.774 9.39496 167.471 2.02971 170.158C0.1884 171.289 -2.3611 173.834 4.29595 174.541C10.953 175.248 17.8933 176.379 18.4599 178.783C18.8848 181.187 14.494 183.166 15.7688 186.419C16.6186 188.681 23.2756 184.722 36.0232 174.541L75.3989 166.34L71.0081 144.988Z" fill="#997659"/>
<path fill-rule="evenodd" clip-rule="evenodd" d="M83.6139 125.758C75.1156 137.211 56.4192 151.21 34.0402 160.118L43.8133 176.945C63.3595 173.693 84.1805 164.36 93.812 150.22C101.602 138.908 97.353 123.496 83.6139 125.758Z" fill="#464D7F"/>
<path fill-rule="evenodd" clip-rule="evenodd" d="M147.352 218.941C129.788 215.547 58.9687 218.941 58.9687 218.941C58.9687 218.941 83.7556 124.768 87.0133 82.4893H113.925C116.899 82.4893 137.012 120.95 137.012 145.978C137.012 168.744 158.4 183.308 147.352 218.941Z" fill="#5C63AB"/>
<path fill-rule="evenodd" clip-rule="evenodd" d="M114.208 247.221L102.452 273.239C97.778 277.764 94.3786 282.147 91.9707 286.389C91.5458 287.662 91.4042 289.783 94.8035 287.52C98.2029 285.258 101.885 282.995 103.16 283.985C104.293 284.975 103.019 287.662 105.002 288.652C106.276 289.359 107.834 284.834 109.676 275.077L124.831 255.705L114.208 247.221Z" fill="#D4A181"/>
<path fill-rule="evenodd" clip-rule="evenodd" d="M130.922 182.177C130.922 182.177 122.282 228.697 97.6367 265.179C115.2 273.521 133.613 277.198 133.613 277.198L137.862 185.288L130.922 182.177Z" fill="#AFB9C5"/>
<path fill-rule="evenodd" clip-rule="evenodd" d="M119.591 149.513C116.899 160.825 113.358 186.419 116.899 190.378H139.845V190.237C148.485 189.247 155.142 181.046 155.142 171.148V152.341C155.142 141.736 147.494 133.111 138.145 133.111H136.587C127.806 133.111 120.724 140.322 119.591 149.513Z" fill="#191847"/>
<path fill-rule="evenodd" clip-rule="evenodd" d="M146.077 163.654C149.76 159.412 152.168 154.18 151.743 148.241C150.61 131.273 126.956 134.949 122.282 143.575C117.75 152.2 118.174 173.834 124.123 175.39C126.531 175.955 131.489 174.541 136.729 171.431L133.471 194.196H152.451L146.077 163.654Z" fill="#D4A181"/>
<path fill-rule="evenodd" clip-rule="evenodd" d="M176.813 316.79C160.383 321.315 146.219 323.719 134.18 323.719C122.282 323.719 111.092 320.184 100.894 313.114C117.041 308.448 130.214 306.044 140.695 306.044C151.176 306.044 163.216 309.579 176.813 316.79Z" fill="#1F28CF"/>
<path fill-rule="evenodd" clip-rule="evenodd" d="M120.015 330.223C120.157 329.94 120.299 329.658 120.44 329.516C122.565 323.719 157.833 261.078 161.374 249.625H121.715C119.024 258.25 106.985 312.972 105.285 323.86C99.9026 340.97 88.9963 396.681 87.5799 400.499C86.1635 404.6 94.3786 408.842 96.6449 403.751C100.186 395.833 108.543 373.916 112.225 360.483C115.766 347.898 118.599 336.586 120.015 330.223Z" fill="#BA8B72"/>
<path fill-rule="evenodd" clip-rule="evenodd" d="M147.21 335.031C155.85 349.171 192.676 395.55 194.801 399.227C196.926 403.044 205.566 399.368 203.158 394.56C199.333 386.783 188.144 366.139 180.354 354.544C174.122 345.212 168.173 337.01 164.207 331.496C164.065 304.913 165.34 259.382 163.64 249.625H128.514C130.072 258.957 145.369 333.051 147.21 335.031Z" fill="#D4A181"/>
<path fill-rule="evenodd" clip-rule="evenodd" d="M205.442 396.427C206.706 398.229 207.485 399.516 207.731 400.564C208.092 401.777 208.355 403.547 208.519 405.874C207.165 406.21 194.63 409.606 171.217 415.971C169.429 413.071 169.47 411.211 171.504 410.276C173.514 409.481 175.22 408.776 176.484 408.136L191.759 395.743C192.087 395.513 192.505 395.587 192.735 395.915L194.622 398.258C196.853 398.65 198.437 398.642 199.651 398.281C200.701 398.035 201.849 397.231 203.375 395.92C204.122 395.764 204.983 395.772 205.442 396.427Z" fill="#E4E4E4"/>
<path fill-rule="evenodd" clip-rule="evenodd" d="M99.1945 403.186C99.9027 405.165 100.328 406.721 100.328 407.71C100.328 408.983 100.186 410.68 99.7611 413.084C98.3447 413.084 85.4555 413.084 61.0936 413.084C60.1021 409.831 60.6687 407.993 62.7932 407.71C64.9178 407.428 66.7591 407.145 68.1755 407.003L86.1637 398.944C86.447 398.802 86.8719 398.944 87.0135 399.226L88.1467 402.054C90.1296 403.044 91.8293 403.468 92.9624 403.468C93.9539 403.468 95.3703 403.044 97.2116 402.196C97.9198 402.054 98.7696 402.479 99.1945 403.186C99.0529 403.186 99.1945 403.186 99.1945 403.186Z" fill="#E4E4E4"/>
<path fill-rule="evenodd" clip-rule="evenodd" d="M163.357 249.625C147.918 245.242 133.33 245.242 119.449 249.625C114.633 271.542 103.019 280.167 100.894 313.679C124.265 325.274 153.017 305.337 177.096 316.649C183.895 300.953 174.405 262.917 163.357 249.625Z" fill="#2B44FF"/>
<path fill-rule="evenodd" clip-rule="evenodd" d="M181.912 228.697H166.898C183.328 265.744 191.968 285.116 192.677 286.813C194.235 290.772 190.835 296.711 189.419 299.963C194.093 302.084 193.526 294.307 199.475 296.994C204.857 299.539 208.965 304.064 215.197 300.246C215.905 299.822 216.755 297.983 214.772 296.569C209.673 293.176 202.45 287.096 201.458 285.116C200.183 282.429 193.668 263.623 181.912 228.697Z" fill="#D4A181"/>
<path fill-rule="evenodd" clip-rule="evenodd" d="M146.644 177.793L128.797 181.894C128.797 212.436 119.024 231.95 114.067 254.432H162.224C162.932 262.209 163.357 270.128 163.499 278.329H199.475C191.26 234.919 174.122 201.407 147.777 177.652L146.644 177.793Z" fill="#C5CFD6"/>
<path fill-rule="evenodd" clip-rule="evenodd" d="M154.576 210.74C155.85 229.829 155.142 244.393 152.451 254.432H162.224C160.808 239.02 158.4 224.456 154.576 210.74Z" fill="black" fill-opacity="0.1"/>
<path fill-rule="evenodd" clip-rule="evenodd" d="M140.978 164.501C140.128 175.248 140.411 187.408 143.103 190.378H166.048C167.323 165.067 155 174.824 155 151.068C152.309 135.232 143.811 133.959 137.579 133.959C128.372 133.959 125.539 137.777 122.99 141.877C123.981 152.058 132.055 151.21 138.428 155.593C139.137 154.886 140.128 154.462 141.12 154.462C143.527 154.462 145.51 156.724 145.51 159.411C145.51 162.098 143.527 164.36 141.12 164.36C141.12 164.501 141.12 164.501 140.978 164.501Z" fill="#191847"/>
<path fill-rule="evenodd" clip-rule="evenodd" d="M153.584 194.196L140.978 208.336C140.978 208.336 128.655 210.174 127.806 214.558C126.389 216.679 137.012 213.851 135.313 218.093C133.613 222.335 124.123 231.95 125.398 233.929C127.239 236.899 134.604 235.343 138.57 232.798C146.077 228.273 149.052 224.173 153.867 213.851C155.85 209.467 159.391 204.942 162.082 201.549C164.349 198.862 163.924 194.903 161.374 193.065C159.108 191.368 155.709 191.934 153.584 194.196Z" fill="#997659"/>
<path fill-rule="evenodd" clip-rule="evenodd" d="M106.701 106.103C106.701 106.103 158.825 130.283 161.232 157.997C163.074 179.207 143.952 204.942 143.952 204.942C143.952 204.942 152.168 220.355 165.623 220.355C222.137 158.846 180.637 99.8818 113.5 84.0449L106.701 106.103Z" fill="#5C63AB"/>
</g>
<defs>
<clipPath id="clip0">
<rect width="216" height="416" fill="white" transform="matrix(-1 0 0 1 216 0)"/>
</clipPath>
</defs>
</svg>
