<svg width="24" height="24" viewBox="0 0 24 24" fill="none" xmlns="http://www.w3.org/2000/svg">
<path d="M12.89 1.03853C6.14451 0.476399 0.476399 6.14451 1.03853 12.89C1.46012 18.2302 5.76976 22.5399 11.11 22.9615C17.9023 23.5236 23.5236 17.8555 22.9615 11.11C22.5399 5.76976 18.2302 1.46012 12.89 1.03853ZM14.1548 2.63122C14.5764 2.72491 14.998 2.86544 15.4196 3.00597C15.6538 3.1465 15.888 3.28703 16.1691 3.33388C17.3402 3.896 18.4176 4.69235 19.2608 5.67607C19.3076 5.72292 19.3545 5.8166 19.3545 5.91029C19.4013 6.09767 19.3545 6.33189 19.3076 6.51926C19.2608 6.65979 19.214 6.75348 19.214 6.89401C19.214 7.12823 19.4482 7.31561 19.6356 7.36245C19.7761 7.4093 20.0103 7.4093 20.1977 7.4093C20.3382 7.4093 20.4787 7.50298 20.5256 7.64352C20.6193 7.87774 20.7598 8.25249 20.8535 8.34618C21.2751 9.37674 21.5093 10.4542 21.5562 11.5784C21.5562 11.7189 21.5093 11.9063 21.4156 12C21.2282 12.1874 21.0409 12.4684 20.9003 12.7027C20.5724 13.3585 20.2914 14.108 19.8229 14.6701C19.5887 14.9512 19.3076 15.1854 19.214 15.5601C19.1203 15.7944 19.1671 16.0754 19.1203 16.3096C19.1203 16.4033 18.9329 16.4033 18.8392 16.3565C18.4645 15.7944 18.1834 15.1854 18.0429 14.5296C17.9492 14.0611 17.8555 13.5927 17.715 13.1243C17.5744 12.6558 17.2934 12.2342 16.8718 12C16.4033 11.7658 15.888 11.8126 15.3728 11.7658C14.8575 11.7658 14.2954 11.6721 13.9674 11.2505C13.8269 11.0631 13.7332 10.8289 13.7332 10.5947C13.499 9.37674 14.1548 8.06511 15.2322 7.50298C15.3728 7.4093 15.5133 7.36245 15.6538 7.26876C15.9349 7.03455 16.0754 6.65979 15.9817 6.28504C15.9817 6.19136 15.8412 6.14451 15.7944 6.19136C15.5133 6.28504 15.2322 6.37873 14.998 6.51926C14.8575 6.56611 14.7169 6.47242 14.7638 6.37873C14.7638 5.95714 14.8106 5.44185 14.9512 4.97341C15.0917 4.45813 15.2322 3.896 14.998 3.47441C14.9512 3.38072 14.8106 3.28703 14.7169 3.28703C14.2954 3.28703 13.8738 3.28703 13.4053 3.28703C13.3585 3.28703 13.3585 3.24019 13.3585 3.24019C13.5927 3.09966 13.7801 2.91228 13.9674 2.72491C14.0143 2.67806 14.108 2.63122 14.1548 2.63122ZM9.42358 2.77175C9.51727 2.72491 9.61096 2.77175 9.6578 2.86544C9.79834 3.09966 9.89202 3.33388 10.0326 3.61494C10.2668 4.22391 10.4073 4.87973 10.1262 5.44185C9.79834 6.09767 9.04883 6.37873 8.43986 6.70664C7.17508 7.36245 6.09767 8.34618 5.30132 9.51727C5.25448 9.56412 5.20763 9.6578 5.16079 9.6578C5.0671 9.70465 4.97341 9.6578 4.92657 9.56412C4.78604 9.47043 4.64551 9.37674 4.55182 9.23621C4.50497 9.18937 4.36444 9.28305 4.36444 9.37674C4.17707 10.0326 4.50497 10.7352 5.0671 11.0631C5.16079 11.11 5.25448 11.1568 5.34817 11.2505C5.53554 11.4847 5.34817 11.8126 5.39501 12.0937C5.44185 12.4684 5.91029 12.7027 6.33189 12.6558C6.75348 12.609 7.08139 12.4216 7.45614 12.2811C8.29933 12 9.28305 12.0937 9.98571 12.609C10.3605 12.8432 10.6884 13.2179 11.0631 13.4522C11.391 13.6864 11.8126 13.8738 12.1874 13.8269C12.2811 13.8269 12.3748 13.8738 12.4216 13.9206C12.5621 14.2954 12.4216 14.7638 12.1874 15.0917C11.9063 15.4664 11.4847 15.7475 11.1568 16.0754C10.3605 16.9655 10.1731 18.3239 9.51727 19.3076C9.37674 19.495 9.23621 19.6824 9.14252 19.9166C9.00199 20.2445 9.04883 20.5724 9.04883 20.9003C9.04883 20.9472 9.00199 21.0409 8.95515 20.994C8.81461 20.9472 8.62724 20.9003 8.48671 20.8067C8.39302 20.7598 8.29933 20.6661 8.29933 20.5724C8.06511 19.214 7.59667 17.9023 6.94086 16.6844C6.65979 16.216 6.37873 15.7007 5.91029 15.4196C5.76976 15.3259 5.62923 15.2322 5.58238 15.0917C5.53554 14.998 5.58238 14.8575 5.58238 14.7638C5.76976 13.499 5.16079 12.1874 4.13022 11.4379C3.94285 11.2973 3.75547 11.2037 3.66178 11.0163C3.5681 10.8289 3.5681 10.5478 3.47441 10.3605C3.38072 10.1731 3.00597 9.93887 2.81859 9.79834C2.72491 9.75149 2.72491 9.6578 2.72491 9.56412C3.52125 6.33189 6.14451 3.66178 9.42358 2.77175Z" fill="#152FBF"/>
</svg>
