<svg width="570" height="382" viewBox="0 0 570 382" fill="none" xmlns="http://www.w3.org/2000/svg">
    <g clip-path="url(#clip0)">
        <path fill-rule="evenodd" clip-rule="evenodd" d="M538 382H395V57.9258C395 44.7603 405.785 34 418.981 34H514.019C527.215 34 538 44.7603 538 57.9258V382Z" fill="#F8F8F8"/>
        <g opacity="0.5">
            <path opacity="0.5" fill-rule="evenodd" clip-rule="evenodd" d="M187.9 142.648C192.42 152.906 197.898 166.172 200.774 176.977C203.102 186.004 204.609 208.57 205.841 234.146C207.074 259.721 207.895 337.678 206.526 348.893C206.252 350.945 203.924 350.398 204.061 348.757C206.8 329.336 204.198 227.17 201.733 207.75C201.185 203.51 200.911 198.449 199.541 194.346C198.446 191.474 199.952 192.705 197.213 191.064C195.022 189.696 192.146 189.286 189.818 187.781C184.887 184.362 181.463 179.165 178.587 173.968C172.972 163.984 169.138 153.726 168.453 142.375C168.042 136.083 167.905 129.792 168.316 123.501C168.453 121.86 168.316 113.243 170.507 114.201C173.931 115.705 178.04 125.142 180.368 128.835C183.518 133.348 185.846 137.861 187.9 142.648Z" fill="#69A1AC"/>
            <path opacity="0.5" fill-rule="evenodd" clip-rule="evenodd" d="M233.78 233.735C238.573 227.17 248.16 233.599 243.914 240.027C241.586 243.583 238.025 243.719 235.56 242.215C234.875 243.993 234.19 245.908 233.506 247.549C231.451 252.472 229.671 257.533 228.028 262.593C224.604 273.124 222.275 283.792 219.536 294.46C216.934 304.991 214.332 315.385 212.278 325.916C210.497 334.806 207.758 345.611 209.128 354.364C205.704 336.037 208.443 316.48 213.237 297.742C218.03 279.142 223.782 258.764 234.875 241.805C232.547 239.89 231.451 236.744 233.78 233.735Z" fill="#C1DEE2"/>
            <path opacity="0.5" fill-rule="evenodd" clip-rule="evenodd" d="M281.303 224.298C280.07 230.453 278.153 236.471 275.961 242.488C272.264 253.293 265.69 262.183 257.61 270.252C253.501 274.355 248.845 278.458 243.23 280.373C240.628 281.194 237.888 280.92 235.286 281.604C232.41 282.424 234.054 281.604 232.273 284.066C229.808 287.485 228.165 292.408 226.521 296.375C218.852 314.428 212.963 333.165 210.224 352.723C209.95 354.501 210.087 367.22 207.211 366.673C204.061 365.989 207.211 349.851 207.622 347.799C209.402 336.721 212.004 325.506 215.565 314.838C221.454 297.332 228.986 281.057 238.299 265.192C243.914 255.481 250.488 246.181 257.61 237.565C260.897 233.598 264.457 229.769 268.292 226.213C271.579 223.204 278.016 215.272 281.714 214.861C284.042 214.451 281.577 222.657 281.303 224.298Z" fill="#69A1AC"/>
            <path opacity="0.5" fill-rule="evenodd" clip-rule="evenodd" d="M280.892 67.8365C281.029 67.9733 281.166 68.1101 281.166 68.3836C278.974 68.7939 282.124 104.9 281.987 108.32C281.166 125.552 276.509 143.332 266.649 157.556C262.403 163.71 257.199 169.865 251.31 174.515C248.297 176.977 244.736 179.165 241.175 180.67C239.395 181.353 233.78 181.627 232.684 182.721C231.589 183.815 231.041 188.876 230.63 190.517C229.26 196.124 227.891 201.732 226.658 207.476C224.056 219.101 221.18 230.726 219.263 242.488C217.208 254.524 215.428 266.696 214.332 278.868C212.004 304.444 206.389 331.387 208.991 357.099C202.007 331.524 206.389 301.572 209.265 275.586C212.141 249.737 218.167 224.572 224.604 199.27C228.713 182.995 232.821 166.583 238.299 150.718C247.201 124.458 260.212 98.8827 275.551 75.769C277.331 73.1705 279.111 70.5719 280.892 67.8365Z" fill="#89C5CC"/>
            <path opacity="0.5" fill-rule="evenodd" clip-rule="evenodd" d="M152.155 152.495C154.21 154.821 156.127 157.146 157.908 159.744C164.07 168.908 169.001 178.755 172.698 188.739C174.068 192.432 174.479 197.902 177.903 200.227C181.053 202.416 185.846 203.373 189.544 204.604C199.541 208.16 204.609 213.904 204.609 223.751C204.609 232.641 202.691 242.078 198.583 250.011C197.487 252.062 195.844 253.703 195.844 255.892C195.707 258.9 197.076 262.867 197.761 265.739C200.774 277.911 203.513 290.22 204.883 302.529C206.8 319.488 207.348 337.542 203.513 353.954C204.472 324.686 200.5 295.281 193.926 266.423C192.009 257.806 189.818 249.327 187.489 240.847C185.572 233.735 183.244 226.76 180.779 219.648C179.546 216.229 179.683 214.588 176.396 212.947C171.192 210.348 166.809 208.297 162.564 204.33C154.21 196.124 148.047 185.183 145.445 174.515C144.212 169.591 143.664 164.668 143.801 159.744C143.801 156.598 143.938 153.453 144.623 150.444C145.034 148.529 146.403 147.025 145.034 145.247C148.184 147.435 145.445 144.426 146.814 144.973C146.13 144.7 147.088 146.888 147.225 147.162C147.773 148.94 150.786 151.128 152.155 152.495Z" fill="#89C5CC"/>
            <path opacity="0.5" fill-rule="evenodd" clip-rule="evenodd" d="M236.245 329.199C238.71 329.609 240.49 332.071 240.079 334.67L235.697 365.716C234.327 375.153 226.521 382.265 217.345 382.265H196.802C187.626 382.265 179.82 375.289 178.45 365.716L174.068 334.67C174.068 334.396 174.068 334.259 174.068 333.986C174.068 331.25 176.122 329.199 178.724 329.199H235.56C235.834 329.199 235.971 329.199 236.245 329.199Z" fill="#C1DEE2"/>
        </g>
        <path d="M159.414 167.403H46.1533V178.345H159.414V167.403Z" fill="#DDE3E9"/>
        <path d="M174.342 178.345H83.1309V385H174.342V178.345Z" fill="#E4E8EC"/>
        <path d="M182.696 167.403H142.294V178.345H182.696V167.403Z" fill="#F4F4F4"/>
        <path d="M182.833 178.345H174.342V385H182.833V178.345Z" fill="#F4F4F4"/>
        <path fill-rule="evenodd" clip-rule="evenodd" d="M416.475 80.5559H394.973L398.671 54.7069C392.919 58.2628 387.167 59.9041 384.428 59.2202C377.717 57.4422 377.032 32.9609 382.236 23.2504C387.441 13.5399 414.147 9.30015 415.516 28.5843C415.927 35.2859 413.188 41.1669 409.079 46.0906L416.475 80.5559Z" fill="#C59C88"/>
        <path fill-rule="evenodd" clip-rule="evenodd" d="M416.475 80.5559H394.973L398.671 54.7069C392.919 58.2628 387.167 59.9041 384.428 59.2202C377.717 57.4422 377.032 32.9609 382.236 23.2504C387.441 13.5399 414.147 9.30015 415.516 28.5843C415.927 35.2859 413.188 41.1669 409.079 46.0906L416.475 80.5559Z" fill="#EDBB96"/>
        <path fill-rule="evenodd" clip-rule="evenodd" d="M380.182 27.627C380.182 27.9005 379.908 28.5844 380.456 28.5844C380.73 28.5844 381.004 27.9005 381.141 27.627C381.689 26.5329 382.373 25.9858 383.332 25.302C385.523 23.9343 388.536 22.8401 391.139 23.2504C390.591 24.071 391.686 26.1226 392.097 26.9432C392.782 28.5844 393.467 30.0888 394.288 31.73C395.11 33.6448 396.206 35.5595 397.712 37.0639C398.808 38.1581 400.451 39.2522 401.958 38.4316C404.56 37.0639 405.382 31.8668 409.079 33.0977C411.545 33.9183 413.462 38.4316 411.545 40.6199C410.997 41.167 410.449 41.5773 409.764 41.9876C409.216 42.2611 408.395 42.5346 407.984 42.9449C406.888 44.1758 408.669 44.0391 409.353 43.6288C408.805 46.7744 408.669 49.7833 411.271 51.9716C413.599 53.8863 416.886 54.5702 419.625 54.8437C422.912 55.1172 426.062 54.4334 428.938 52.5186C429.622 52.1083 430.033 51.9716 430.718 52.1083C431.54 52.2451 432.225 52.5186 432.909 52.5186C434.416 52.6554 436.059 52.5186 437.566 52.1083C439.894 51.698 442.085 50.6039 443.866 48.9627C445.646 47.1847 447.289 44.7229 447.426 42.1243C447.563 40.4831 447.152 38.9787 446.605 37.4742C446.194 36.5169 445.235 35.0124 445.646 33.9183C445.92 32.8242 447.015 32.1403 447.837 31.4565C448.659 30.7726 449.207 29.8153 449.618 28.8579C451.946 23.2504 449.344 17.0959 445.783 12.8561C442.496 8.88987 437.84 7.24866 433.046 8.06927C430.17 8.47957 427.568 9.71048 425.103 11.4885C422.912 12.9929 420.447 15.4547 417.707 15.1812C415.242 15.0444 413.325 12.8561 411.408 11.3517C409.216 9.71048 406.751 8.7531 404.149 8.3428C398.945 7.65897 393.741 9.71048 389.632 12.9929C387.441 14.7709 385.386 17.0959 383.606 19.421C382.647 20.7886 381.826 22.1563 381.278 23.6607C381.004 25.0284 380.456 26.3961 380.182 27.627Z" fill="#6B3825"/>
        <path fill-rule="evenodd" clip-rule="evenodd" d="M375.389 167.95L358.133 371.87H370.869L387.304 278.185L420.994 167.95H375.389Z" fill="#CCA183"/>
        <path fill-rule="evenodd" clip-rule="evenodd" d="M382.236 167.95C395.247 225.803 403.19 258.901 406.203 266.97C409.216 275.039 418.118 307.179 444.413 368.998L458.108 373.648C441.537 306.222 434.416 270.526 433.868 265.055C433.32 259.584 430.718 228.401 432.909 167.813H382.236V167.95Z" fill="#EDBB96"/>
        <path fill-rule="evenodd" clip-rule="evenodd" d="M458.109 368.861C457.698 367.904 456.602 367.631 455.78 368.041C453.452 369.135 451.535 369.682 450.302 369.682C448.659 369.682 446.468 369.135 443.865 367.904L442.359 364.211C442.222 363.801 441.674 363.527 441.126 363.801L417.57 374.332C415.653 374.606 413.325 374.879 410.449 375.29C407.573 375.7 406.888 378.025 408.121 382.265C440.031 382.265 456.876 382.265 458.656 382.265C459.204 379.119 459.478 376.794 459.478 375.153C459.615 373.648 459.067 371.734 458.109 368.861C458.109 368.998 458.109 368.861 458.109 368.861Z" fill="#212691"/>
        <path fill-rule="evenodd" clip-rule="evenodd" d="M373.745 368.861C373.334 367.904 372.239 367.631 371.417 368.041C369.089 369.135 367.172 369.682 365.939 369.682C364.296 369.682 362.104 369.135 359.502 367.904L357.996 364.211C357.859 363.801 357.311 363.527 356.763 363.801L333.207 374.332C331.29 374.606 328.962 374.879 326.086 375.29C323.21 375.7 322.525 378.025 323.757 382.265C355.667 382.265 372.513 382.265 374.293 382.265C374.841 379.119 375.115 376.794 375.115 375.153C375.252 373.648 374.841 371.734 373.745 368.861C373.745 368.998 373.745 368.861 373.745 368.861Z" fill="#212691"/>
        <path fill-rule="evenodd" clip-rule="evenodd" d="M373.882 167.95L367.309 224.162H411.134L425.514 167.95H373.882Z" fill="#212691"/>
        <path fill-rule="evenodd" clip-rule="evenodd" d="M379.224 167.95L391.549 224.162H436.333C439.209 200.911 438.388 182.174 433.594 167.95H379.224Z" fill="#5F62AE"/>
        <path fill-rule="evenodd" clip-rule="evenodd" d="M474.68 204.741C475.913 207.339 485.363 215.408 491.936 220.059C494.539 221.973 493.443 224.162 492.484 224.845C484.267 229.769 478.926 223.751 471.941 220.332C464.272 216.639 464.82 226.76 458.657 224.025C460.574 219.785 465.094 212.126 463.039 206.929C462.081 204.604 454.548 179.165 440.168 130.476L459.889 130.613C467.97 176.43 472.9 201.185 474.68 204.741Z" fill="#EDBB96"/>
        <path fill-rule="evenodd" clip-rule="evenodd" d="M367.857 176.567L346.081 198.176C342.246 209.938 339.644 215.272 338.138 214.178C335.946 212.536 338.001 209.391 336.631 208.16C335.262 206.792 330.468 208.98 325.812 211.305C321.292 213.631 321.703 210.895 322.525 209.391C326.086 204.467 331.153 199.68 337.59 194.757L356.079 164.394L367.857 176.567Z" fill="#EDBB96"/>
        <path fill-rule="evenodd" clip-rule="evenodd" d="M364.159 189.833C357.448 194.21 352.929 191.611 351.833 193.936L340.192 189.286C341.836 186.961 337.042 185.183 336.905 179.028C336.631 162.48 390.043 118.304 391.139 73.444L398.945 72.7602C411.682 122.27 370.87 185.456 364.159 189.833Z" fill="#169EE7"/>
        <path fill-rule="evenodd" clip-rule="evenodd" d="M387.03 70.4351C386.893 68.5204 388.4 66.7424 390.454 66.6057L414.695 65.238C416.612 65.1012 418.393 66.6057 418.529 68.6572L418.803 73.444C451.261 96.1474 470.846 132.254 477.693 181.901C479.2 192.979 472.9 195.304 473.722 200.227L460.437 203.646C460.437 199.954 450.44 198.313 447.974 188.876C446.605 183.405 444.551 176.84 442.085 169.181C441.675 179.028 439.757 188.055 435.649 195.577C425.377 214.041 367.309 192.842 361.557 173.831C354.435 150.854 387.715 136.631 387.715 79.4618L387.03 70.4351Z" fill="#24AAE5"/>
        <path fill-rule="evenodd" clip-rule="evenodd" d="M90.8 142.922C86.5544 144.016 82.3089 141.554 81.2132 137.314L69.0244 91.4973C67.9287 87.2575 70.3939 83.0177 74.6395 81.9236C78.885 80.8294 83.1306 83.2912 84.2262 87.531L96.4151 133.348C97.5107 137.451 94.9086 141.828 90.8 142.922Z" fill="#8AC4C2"/>
        <path fill-rule="evenodd" clip-rule="evenodd" d="M91.4847 160.018C114.767 144.837 125.997 128.425 125.312 127.33C122.984 123.911 119.012 113.927 119.012 113.927C109.289 121.586 97.3737 128.972 80.1176 147.435C78.0633 149.623 75.3242 170.549 91.4847 160.018Z" fill="#8AC4C2"/>
        <path fill-rule="evenodd" clip-rule="evenodd" d="M47.3857 168.087L80.6654 282.698L96.2781 368.725H112.028L96.4151 168.087H47.3857Z" fill="#997659"/>
        <path fill-rule="evenodd" clip-rule="evenodd" d="M32.4579 168.087C34.7861 227.581 33.8274 260.131 33.2796 265.465C32.7318 270.936 29.8558 307.043 9.72363 370.503H26.0211C52.727 309.641 61.9029 273.398 65.0528 265.465C68.0658 257.533 77.1047 224.982 90.2522 168.087H32.4579Z" fill="#B28B67"/>
        <path fill-rule="evenodd" clip-rule="evenodd" d="M46.7012 168.087C55.3292 207.476 70.3941 270.526 91.6219 356.963H114.63C116.273 268.201 109.152 209.801 96.5522 168.087H46.7012Z" fill="#8AC4C2"/>
        <path fill-rule="evenodd" clip-rule="evenodd" d="M32.3212 168.087C34.6494 227.581 28.7604 286.254 10.4087 357.783H34.9233C61.6293 297.879 80.8027 239.48 93.8133 168.087H32.3212Z" fill="#93D1CF"/>
        <path fill-rule="evenodd" clip-rule="evenodd" d="M7.39551 382.401L8.35418 367.904C13.6954 369.409 20.2691 368.861 28.2124 366.126C36.7035 372.144 47.5228 376.247 60.5334 378.572C61.4921 378.709 62.1769 379.666 62.0399 380.623V380.76L60.8073 385.137H28.3494H9.44981L7.39551 382.401Z" fill="#191847"/>
        <path fill-rule="evenodd" clip-rule="evenodd" d="M92.8545 382.401L93.8132 367.904C99.1543 369.409 105.728 368.861 113.671 366.126C122.163 372.007 132.845 376.11 145.855 378.435C146.814 378.572 147.499 379.529 147.362 380.487V380.623L146.129 385H113.671H94.7718L92.8545 382.401Z" fill="#191847"/>
        <path fill-rule="evenodd" clip-rule="evenodd" d="M124.901 85.7531C125.038 85.0693 125.449 84.3854 126.408 84.3854C127.093 84.3854 127.503 84.9325 127.777 85.4796C128.736 87.8046 128.325 90.4032 126.819 92.7282C125.997 93.9591 122.299 98.0622 119.56 97.3783C117.369 96.8313 120.245 94.5062 120.93 93.6856C122.984 91.087 124.353 88.4884 124.901 85.7531Z" fill="#B28B67"/>
        <path fill-rule="evenodd" clip-rule="evenodd" d="M64.0941 49.0995C59.7116 43.6288 56.9725 36.9272 57.7942 29.6785C60.1224 8.61635 89.2935 14.4973 94.6347 25.302C99.9758 36.1066 98.1954 63.1865 90.8 64.6909C87.787 65.3748 81.6241 63.1865 75.3242 59.0835L78.2003 87.5311L54.5073 86.5737L64.0941 49.0995Z" fill="#B28B67"/>
        <path fill-rule="evenodd" clip-rule="evenodd" d="M70.1201 15.1811C82.172 11.4884 97.3738 16.9591 94.9086 26.5328C93.4021 32.6874 86.0067 35.4227 78.8851 38.5684C77.9264 36.7904 76.0091 35.4227 73.6809 35.2859C70.394 35.1492 67.518 37.7478 67.381 40.8934C67.381 42.1243 67.6549 43.2184 68.2027 44.1758C65.7376 46.0906 63.9572 48.5524 63.4093 51.8348C59.5747 51.698 53.8226 40.2096 56.2878 29.6785C55.74 29.6785 55.1921 29.6785 54.6443 29.6785C46.4271 29.4049 40.1273 22.4298 40.4012 14.3605C40.6751 6.29127 47.7967 -0.27356 56.0139 -2.48607e-05C64.0941 0.27351 70.394 7.11188 70.1201 15.1811Z" fill="#191847"/>
        <path fill-rule="evenodd" clip-rule="evenodd" d="M35.334 171.369C37.5252 171.643 39.5795 171.78 41.7708 172.053C43.6881 172.19 44.7838 173.011 46.7011 173.694C49.988 175.062 53.6857 175.472 57.2465 175.883C64.3681 176.84 71.3527 178.345 78.3373 180.123C82.9938 181.353 87.7871 182.858 92.5805 182.448C97.3739 182.037 102.441 179.302 103.811 174.652C104.906 170.959 103.674 167.13 102.441 163.574C99.7021 155.641 96.8261 147.845 94.087 139.913C91.4849 132.391 89.7045 124.458 87.2393 116.799C84.9111 109.14 83.1307 101.208 81.8981 93.4121C81.4873 91.3606 78.2004 74.1279 80.1177 73.1705C77.3787 74.5382 72.7223 74.675 66.0115 73.7176C47.3859 99.4298 39.0317 128.835 35.334 171.369Z" fill="#F4F4F4"/>
        <path fill-rule="evenodd" clip-rule="evenodd" d="M57.9313 68.11C57.9313 68.11 66.4224 71.5292 68.6136 71.5292C70.394 81.7868 75.4613 221.563 92.5805 267.38L0 267.106C1.91735 228.812 13.4214 182.995 26.1581 147.162C35.197 121.586 43.6881 101.892 53.6857 76.7264C55.0553 73.444 57.9313 68.11 57.9313 68.11Z" fill="#A2EAEA"/>
        <path fill-rule="evenodd" clip-rule="evenodd" d="M128.189 90.6768C128.189 90.6768 136.954 129.519 136.132 129.245C135.31 128.972 84.2266 155.231 84.2266 155.231L80.8027 114.748L128.189 90.6768Z" fill="#323337"/>
        <path fill-rule="evenodd" clip-rule="evenodd" d="M126.819 88.762C126.819 88.762 135.584 127.604 134.762 127.33C133.941 127.057 82.8569 153.316 82.8569 153.316L79.4331 112.833L126.819 88.762Z" fill="#E1E7F4"/>
        <path fill-rule="evenodd" clip-rule="evenodd" d="M99.8389 105.311L110.384 116.252L111.48 116.389V115.432L102.167 103.533L99.8389 105.311Z" fill="#323337"/>
        <path fill-rule="evenodd" clip-rule="evenodd" d="M92.1697 106.268C92.7175 104.627 93.4023 103.123 94.9087 102.165C96.5522 101.071 98.8804 101.208 100.25 102.576C99.5652 102.439 99.2913 101.345 99.7021 100.798C100.113 100.25 100.935 99.9769 101.619 100.114C102.304 100.25 102.989 100.661 103.537 101.071C104.906 101.892 106.276 102.712 107.098 104.08C108.056 105.584 108.33 107.499 108.056 109.277C107.782 111.055 107.098 112.696 106.413 114.337C105.865 115.842 105.18 117.346 104.085 118.441C103.263 119.398 102.167 119.945 101.072 120.629C95.1827 124.048 89.2937 127.33 83.4047 130.75C77.9265 133.895 72.7223 137.588 67.2442 140.87C66.8333 141.144 66.4224 141.281 66.0116 141.417C65.1899 141.417 64.5051 140.597 64.3681 139.776C64.2312 138.956 64.5051 138.135 64.916 137.314C65.6007 135.673 66.5594 134.169 67.655 132.801C70.9419 128.425 75.5983 125.416 80.1178 122.407C82.309 120.902 84.5003 119.261 86.5546 117.483C88.8828 115.432 90.3893 112.149 91.348 109.14C91.6219 108.046 91.8958 107.226 92.1697 106.268Z" fill="#B28B67"/>
        <path fill-rule="evenodd" clip-rule="evenodd" d="M27.1168 177.25C48.2077 169.728 67.2442 156.735 81.8982 139.776C79.7069 135.81 76.694 124.595 76.694 124.595C76.694 124.595 55.4662 134.579 46.9751 140.87C55.877 124.868 63.9573 107.636 63.4095 89.309C63.1356 80.0088 60.2596 75.4955 55.1923 74.9484C36.1558 72.7601 18.2149 140.05 27.1168 177.25Z" fill="#ABF4F2"/>
        <path fill-rule="evenodd" clip-rule="evenodd" d="M92.7173 97.5151C95.0455 100.25 98.6063 104.217 99.565 105.037C101.071 106.268 102.852 104.627 102.03 103.259C101.345 102.302 97.9215 97.6518 95.8672 94.9165C95.1825 93.9591 93.8129 93.8223 92.9912 94.6429C92.0325 95.3268 91.8956 96.6945 92.7173 97.5151Z" fill="#323337"/>
        <path d="M130.106 100.934C130.106 100.934 127.504 98.3357 124.491 101.618L127.367 115.705C130.38 112.423 132.982 115.021 132.982 115.021" stroke="#323337" stroke-width="0.7082" stroke-miterlimit="10"/>
        <path fill-rule="evenodd" clip-rule="evenodd" d="M122.437 97.5151C122.437 98.3357 122.573 99.0195 122.984 99.7034C123.532 100.661 124.765 101.481 125.723 101.755C127.093 102.028 130.928 103.259 130.928 103.259L133.393 114.748C133.393 114.748 135.584 111.192 135.995 109.14C136.954 104.49 136.269 99.5666 135.31 94.9165C135.036 93.6856 134.762 92.5915 133.941 91.6341C132.982 90.6767 131.612 90.2664 130.243 90.2664C128.326 90.2664 126.408 90.9503 124.902 92.1812C123.395 93.4121 122.437 95.3268 122.437 97.2416C122.437 97.2416 122.437 97.3783 122.437 97.5151Z" fill="#B28B67"/>
        <path d="M79.022 56.2113L88.6087 64.0071C91.0739 66.0586 95.0455 65.3748 96.552 62.6394C98.4693 59.0835 99.7019 54.2966 99.7019 49.0994C99.7019 46.3641 99.428 43.7655 98.7433 41.3037L81.0763 39.936L79.022 56.2113Z" fill="#BEE2EF"/>
        <path d="M81.076 40.4831L75.187 35.4227C76.2826 35.0124 77.3783 35.1492 78.3369 35.6963L85.4585 40.2096" fill="#BEE2EF"/>
        <path d="M79.0219 56.2113L68.3395 45.6803C67.6548 44.9964 67.3809 43.9023 67.6548 42.8082V42.6714L79.5697 52.5186L79.0219 56.2113Z" fill="#BEE2EF"/>
        <path fill-rule="evenodd" clip-rule="evenodd" d="M396.206 54.0231L387.715 60.8615C385.524 62.6394 381.963 62.0924 380.73 59.6305C378.95 56.4849 377.991 52.2451 377.991 47.7318C377.991 45.27 378.265 43.0817 378.813 40.8934L394.426 39.6625L396.206 54.0231Z" fill="#DDE3E9"/>
        <path fill-rule="evenodd" clip-rule="evenodd" d="M394.562 41.0302L401.684 38.5684C402.506 38.2949 403.191 37.7478 403.601 37.2007L405.793 34.1918L390.591 40.0728" fill="#DDE3E9"/>
        <path fill-rule="evenodd" clip-rule="evenodd" d="M396.206 54.0231L408.395 44.4494C408.943 44.0391 409.217 43.492 409.354 42.8082L409.491 41.9875L404.971 44.0391L395.521 50.6039L396.206 54.0231Z" fill="#DDE3E9"/>
    </g>
    <defs>
        <clipPath id="clip0">
            <rect width="570" height="382" fill="white"/>
        </clipPath>
    </defs>
</svg>
