<svg width="602" height="340" viewBox="0 0 602 340" fill="none" xmlns="http://www.w3.org/2000/svg">
    <g clip-path="url(#clip0)">
        <path fill-rule="evenodd" clip-rule="evenodd" d="M249.536 231.82H281.09C282.054 231.82 282.881 232.648 282.881 233.615V238.309C282.881 239.276 282.054 240.104 281.09 240.104H249.536C248.571 240.104 247.745 239.276 247.745 238.309V233.615C247.745 232.648 248.571 231.82 249.536 231.82Z" fill="#DDDDDD"/>
        <path fill-rule="evenodd" clip-rule="evenodd" d="M256.977 204.896C260.973 191.917 263.177 178.248 263.728 163.889H266.346H268C268.413 178.248 270.756 191.917 274.752 204.896H280.814C288.806 204.896 295.144 211.385 295.144 219.255C295.144 227.263 288.668 233.615 280.814 233.615H250.225C242.233 233.615 235.895 227.125 235.895 219.255C235.895 211.247 242.371 204.896 250.225 204.896H256.977Z" fill="#DDDDDD"/>
        <path fill-rule="evenodd" clip-rule="evenodd" d="M232.45 99.4104C243.06 98.3058 253.67 97.8916 264.417 97.8916C275.027 97.8916 285.637 98.4439 296.384 99.4104L300.656 173.278C288.53 174.383 276.543 175.073 264.417 175.073C252.292 175.073 240.304 174.521 228.179 173.278L232.45 99.4104Z" fill="#F2F2F2"/>
        <path fill-rule="evenodd" clip-rule="evenodd" d="M220.6 240.242H297.624H317.19V337.029H297.624V260.677H220.6V337.029H201.034V240.242H220.6Z" fill="#F2F2F2"/>
        <path fill-rule="evenodd" clip-rule="evenodd" d="M131.037 216H15.9835C7.16503 216 0 223.18 0 232.016V324.247C0 333.084 7.16503 340.263 15.9835 340.263H131.037C139.856 340.263 147.021 333.084 147.021 324.247V232.016C147.021 223.18 139.856 216 131.037 216ZM115.054 244.028C117.258 244.028 119.05 245.823 119.05 248.032V308.093C119.05 310.302 117.258 312.097 115.054 312.097H31.967C29.7624 312.097 27.9712 310.302 27.9712 308.093V248.032C27.9712 245.823 29.7624 244.028 31.967 244.028H115.054Z" fill="#E4E8EC"/>
        <path fill-rule="evenodd" clip-rule="evenodd" d="M125.388 34.673C128.695 46.9612 133.104 74.7134 128.695 78.9935H100.586V78.8555C90.2519 77.7509 82.1223 68.9144 82.1223 58.1449V37.8486C82.1223 26.3888 91.492 17 102.928 17H104.858C115.192 17 123.872 24.5939 125.388 34.673Z" fill="#191847"/>
        <path fill-rule="evenodd" clip-rule="evenodd" d="M93.0076 54.2788C88.4606 49.0322 85.567 42.5429 85.9804 35.3632C87.4961 14.6527 116.294 19.209 121.806 29.7023C127.317 40.1957 126.766 66.7052 119.463 68.6381C116.57 69.3285 110.369 67.5336 104.169 63.8057L108.164 91.6959H85.0159L93.0076 54.2788Z" fill="#B28B67"/>
        <path fill-rule="evenodd" clip-rule="evenodd" d="M99.2081 50.8271C100.31 62.287 99.897 75.5417 96.7279 78.5793H68.6189C67.1033 51.3794 82.1223 61.8728 82.1223 36.3298C83.0868 35.3633 83.9135 34.5349 84.878 33.7064V33.0161C89.7006 23.075 95.9012 18.1045 103.342 18.1045C114.503 18.1045 118.085 23.3512 121.117 27.7694C118.912 35.5013 110.093 36.6059 102.377 41.4384C101.413 40.748 100.31 40.1957 99.0703 40.1957C96.1767 40.1957 93.6965 42.5429 93.6965 45.5805C93.6965 48.618 96.0389 50.9652 99.0703 50.9652C99.0703 50.8271 99.2081 50.8271 99.2081 50.8271Z" fill="#191847"/>
        <path fill-rule="evenodd" clip-rule="evenodd" d="M179.125 202.428C175.405 208.503 166.449 225.762 157.079 245.782C151.568 257.518 144.403 277.677 135.86 306.119L146.883 311.09C167.138 278.505 182.157 253.376 191.802 235.841C190.975 242.607 190.286 250.339 189.46 258.347C187.668 277.815 189.46 319.65 190.424 331.8C190.975 339.394 201.309 337.875 202.274 331.8C203.238 325.725 221.702 230.319 221.702 210.022C221.702 203.257 208.474 197.182 200.62 201.876C195.109 196.215 184.913 192.901 179.125 202.428Z" fill="#B28B67"/>
        <path fill-rule="evenodd" clip-rule="evenodd" d="M160.937 299.216C163.004 293.555 198.692 231.285 205.581 212.093C208.612 203.671 183.259 186.136 174.303 200.633L136.549 290.241L160.937 299.216Z" fill="#8AC4C2"/>
        <path fill-rule="evenodd" clip-rule="evenodd" d="M134.561 300.466C135.447 299.794 136.576 300.097 137.247 300.984C138.863 303.237 140.185 304.703 141.521 305.364C142.995 306.265 145.373 306.801 148.417 307.112L151.723 304.561C152.201 304.285 152.697 304.316 153.092 304.725L169.113 327.013C170.674 328.341 172.68 329.889 175.132 331.658C177.584 333.427 176.996 335.999 173.487 339.304C144.136 322.34 128.595 313.323 126.744 312.321C127.911 309.096 128.825 306.814 129.725 305.337C130.575 304.048 132.09 302.534 134.561 300.466C134.441 300.536 134.441 300.536 134.561 300.466Z" fill="#E4E4E4"/>
        <path fill-rule="evenodd" clip-rule="evenodd" d="M187.944 326.968C188.357 326.001 189.46 325.587 190.424 326.001C192.904 327.106 194.833 327.658 196.349 327.658C198.14 327.658 200.345 326.968 203.101 325.725L204.754 321.859C205.03 321.445 205.581 321.169 205.994 321.307L231.072 332.491C233.001 332.767 235.619 333.181 238.65 333.457C241.682 333.871 242.508 336.357 241.13 340.913C207.234 340.913 189.184 340.913 187.255 340.913C186.704 337.599 186.428 335.114 186.428 333.319C186.29 332.076 186.842 329.867 187.944 326.968Z" fill="#E4E4E4"/>
        <path fill-rule="evenodd" clip-rule="evenodd" d="M212.057 199.667C189.735 195.525 129.384 183.237 117.947 182.132H61.1781C62.1426 215.683 73.9925 233.77 102.653 233.77C122.494 233.77 188.771 226.315 190.424 227.143C191.526 227.695 190.149 254.481 186.428 307.362H212.333C212.333 301.701 224.458 242.469 224.458 217.064C224.32 210.022 221.564 201.462 212.057 199.667Z" fill="#93D1CF"/>
        <path fill-rule="evenodd" clip-rule="evenodd" d="M138.891 135.602L163.004 113.511C175.681 110.059 181.468 107.436 180.366 105.779C178.712 103.294 175.405 105.365 174.027 103.984C172.65 102.466 175.268 97.357 177.886 92.6626C180.504 87.9682 177.748 88.3824 176.094 89.0728C170.72 92.6626 165.347 97.7712 159.835 104.399L126.766 122.486L138.891 135.602ZM179.401 152.447C185.739 147.891 191.527 144.853 196.9 143.334C207.235 140.435 211.368 138.226 216.466 131.736C219.222 128.285 221.427 121.381 218.947 119.034C217.155 117.515 207.097 124.971 202.963 125.938C198.829 126.766 202.688 116.963 200.483 117.929C197.589 117.929 195.247 121.933 193.18 129.665L178.574 137.674L179.401 152.447Z" fill="#997659"/>
        <path fill-rule="evenodd" clip-rule="evenodd" d="M119.188 140.159C133.242 140.573 149.226 131.184 160.662 119.862L154.186 105.365C137.651 115.858 122.219 118.344 110.507 118.482C102.515 126.352 108.164 139.744 119.188 140.159Z" fill="#93D1CF"/>
        <path fill-rule="evenodd" clip-rule="evenodd" d="M111.333 81.6169H84.8779C81.2954 81.6169 76.0594 95.562 74.9571 97.9092C65.7252 117.929 60.9026 139.745 57.7334 161.422C54.8399 182.27 53.1864 203.119 63.1072 222.449C66.9653 230.042 72.0635 236.808 75.9216 244.264C79.9175 251.719 82.6733 260.142 81.4332 268.564C81.4332 268.84 104.444 269.116 106.649 268.978C116.707 268.702 126.766 268.012 136.687 266.631C136.135 251.996 135.584 237.36 135.171 222.725C134.895 215.545 112.849 100.394 111.333 81.6169Z" fill="#A2EAEA"/>
        <path fill-rule="evenodd" clip-rule="evenodd" d="M188.22 166.098C188.771 159.747 185.464 149.116 178.299 134.204C160.662 139.865 135.722 153.81 123.046 145.94C111.471 138.76 111.058 114.184 100.173 101.343C95.9012 94.9921 81.7089 96.9251 77.0241 110.456C72.3393 123.987 80.0555 159.747 96.039 177.558C102.653 184.876 115.329 187.223 136.687 183.909C157.493 180.734 179.815 170.378 188.22 166.098Z" fill="#ABF4F2"/>
        <path fill-rule="evenodd" clip-rule="evenodd" d="M455.943 340.029H601.449L588.772 221.289H490.942L455.943 340.029Z" fill="#C5CFD6"/>
        <path fill-rule="evenodd" clip-rule="evenodd" d="M455.943 340.029H539.03L520.98 221.289H490.942L455.943 340.029Z" fill="#E4E8EC"/>
        <path fill-rule="evenodd" clip-rule="evenodd" d="M499.623 44.1824C504.446 38.3835 507.89 31.3419 507.339 23.4719C505.686 0.690275 474.132 5.6608 467.931 17.2587C461.731 28.8566 462.558 57.8514 470.412 59.9224C473.581 60.7508 480.332 58.6798 487.222 54.5377L482.95 85.0512H508.441L499.623 44.1824Z" fill="#915B3C"/>
        <path fill-rule="evenodd" clip-rule="evenodd" d="M499.623 44.1824C504.446 38.3835 507.89 31.3419 507.339 23.4719C505.686 0.690275 474.132 5.6608 467.931 17.2587C461.731 28.8566 462.558 57.8514 470.412 59.9224C473.581 60.7508 480.332 58.6798 487.222 54.5377L482.95 85.0512H508.441L499.623 44.1824Z" fill="#EDBB96"/>
        <path fill-rule="evenodd" clip-rule="evenodd" d="M501.552 49.291C504.721 35.0697 513.815 25.2667 512.437 18.9155C511.473 14.6353 508.992 12.012 504.996 11.0455C502.93 2.62322 496.178 -0.966605 484.879 0.276027C467.931 2.20901 457.597 9.25059 462.006 24.7145C466.14 24.7145 471.1 23.1957 477.99 25.819C480.194 26.6474 481.71 29.1327 482.675 33.4129H485.844C488.875 28.4424 491.769 26.5094 494.8 27.8901C497.694 29.2708 498.383 32.4464 496.729 37.555L498.245 49.291H501.552Z" fill="#C9A147"/>
        <path d="M491.356 69.173L482.675 68.4827C453.739 98.7201 445.058 150.22 410.06 182.253C408.958 183.219 408.544 184.6 408.82 186.119V186.395L416.812 193.85L419.292 196.336C486.395 181.424 497.005 115.012 491.356 69.173Z" fill="#169EE7"/>
        <path fill-rule="evenodd" clip-rule="evenodd" d="M529.661 178.663C494.938 178.663 469.447 178.663 453.188 178.663C449.743 178.663 450.294 173.554 450.845 171.069C456.633 141.66 479.368 109.904 479.368 67.9305L501.414 64.4788C519.74 93.8877 526.078 130.062 529.661 178.663Z" fill="#DDE3E9"/>
        <path fill-rule="evenodd" clip-rule="evenodd" d="M367.483 332.611C379.057 306.654 392.699 279.178 397.108 267.442C404.824 247.56 410.611 239.69 412.265 232.786C416.26 216.77 390.494 209.176 386.636 216.77C380.711 228.23 368.999 268.546 354.531 328.883L367.483 332.611Z" fill="#CCA183"/>
        <path fill-rule="evenodd" clip-rule="evenodd" d="M400.553 321.566L417.776 229.058C422.048 212.214 388.427 203.515 384.293 211.385C374.924 229.197 358.665 299.474 355.909 304.859L400.553 321.566Z" fill="#2F3676"/>
        <path fill-rule="evenodd" clip-rule="evenodd" d="M480.622 305.38C473.482 295.008 447.496 259.779 433.251 245.224C429.181 241.066 425.198 237.015 421.475 233.285C410.305 222.097 388.05 240.866 399.235 250.976C427.057 276.187 467.478 310.184 470.874 313.29C475.613 317.617 485.115 312.038 480.622 305.38Z" fill="#915B3C"/>
        <path fill-rule="evenodd" clip-rule="evenodd" d="M480.622 305.38C473.482 295.008 447.496 259.779 433.251 245.224C429.181 241.066 425.198 237.015 421.475 233.285C410.305 222.097 388.05 240.866 399.235 250.976C427.057 276.187 467.478 310.184 470.874 313.29C475.613 317.617 485.115 312.038 480.622 305.38Z" fill="#EDBB96"/>
        <path fill-rule="evenodd" clip-rule="evenodd" d="M479.533 300.708C482.122 302.715 483.889 304.402 484.646 305.716C485.541 307.27 486.798 309.729 488.041 312.992C486.132 314.097 468.909 323.427 436.392 341.288C432.482 337.815 431.89 335.13 434.617 333.234C437.343 331.337 439.593 329.717 441.245 328.442L459.062 305.226C459.401 304.71 460.017 304.673 460.531 305.013L464.147 307.7C467.53 307.495 470.022 306.849 471.693 305.882C473.006 305.123 474.64 303.54 476.357 301.271C477.156 300.172 478.505 300.028 479.533 300.708Z" fill="#212691"/>
        <path fill-rule="evenodd" clip-rule="evenodd" d="M373.684 327.365C375.337 330.402 376.439 332.611 376.715 334.13C377.128 335.925 377.266 338.548 377.404 342C375.337 342 357.011 342 322.426 342C319.946 337.168 320.221 334.544 323.253 334.13C326.284 333.716 328.764 333.44 330.693 333.025L353.842 321.289C354.255 321.013 354.944 321.289 355.22 321.842L357.7 325.984C360.869 327.365 363.349 328.055 365.141 328.055C366.656 328.055 368.448 327.503 370.79 326.26C371.754 325.846 372.995 326.26 373.684 327.365Z" fill="#212691"/>
        <path fill-rule="evenodd" clip-rule="evenodd" d="M432.795 236.1C463.246 231.129 483.777 227.678 494.111 225.883C523.598 220.636 532.279 204.758 527.181 169.964H472.754C465.589 172.035 435.413 184.876 382.502 208.624C372.995 213.318 374.786 227.402 376.439 231.958C376.577 232.096 392.561 259.71 424.666 314.662L469.171 286.22L432.657 239.414C431.693 237.481 431.831 236.376 432.795 236.1Z" fill="#5C63AB"/>
        <path fill-rule="evenodd" clip-rule="evenodd" d="M551.431 141.384L530.487 141.522C543.44 183.219 566.726 205.448 567.828 207.934C570.171 213.733 565.21 222.431 563.143 227.125C569.895 230.163 569.206 218.841 577.887 222.845C585.741 226.573 591.666 233.201 600.76 227.54C601.862 226.849 603.102 224.226 600.209 222.293C592.906 217.184 582.296 208.348 580.781 205.448C578.714 201.444 558.045 180.043 551.431 141.384Z" fill="#EDBB96"/>
        <path fill-rule="evenodd" clip-rule="evenodd" d="M529.11 93.3352C532.279 92.3688 534.897 90.2977 536.688 86.8459C544.818 72.2105 541.786 64.2024 533.243 61.5791C524.7 58.9558 516.984 64.3405 503.205 64.3405C502.516 64.3405 501.827 64.3405 501.138 64.4786L494.249 64.8928C474.407 132.271 468.896 177.144 477.852 199.649H531.728L528.145 163.061C531.728 171.345 552.396 210.281 555.703 215.942L581.194 208.21C570.171 159.885 554.325 128.267 529.11 93.3352Z" fill="#24AAE5"/>
        <path fill-rule="evenodd" clip-rule="evenodd" d="M528.145 163.199C526.216 179.077 520.015 192.608 515.744 199.788H531.728C530.487 188.19 529.523 176.73 528.145 163.199Z" fill="black" fill-opacity="0.1"/>
        <path d="M408.82 187.223C401.242 191.918 395.041 196.75 390.494 201.721C389.53 203.377 388.703 206.277 393.939 204.206C399.313 202.135 404.962 200.202 406.202 201.859C407.442 203.515 404.824 206.691 407.167 208.762C408.682 210.143 412.265 204.482 417.776 191.918C417.914 189.57 416.674 187.499 414.607 186.533L412.402 185.566C411.3 185.152 410.06 185.428 409.371 186.395L408.82 187.223Z" fill="#EDBB96"/>
        <path d="M106.235 57.4372L115.881 65.3072C118.361 67.3782 122.357 66.6879 123.872 63.9265C125.801 60.3367 127.041 55.5042 127.041 50.2575C127.041 47.4961 126.766 44.8728 126.077 42.3875L108.302 41.0068L106.235 57.4372Z" fill="white"/>
        <path d="M108.302 42.2495L102.377 37.279L104.031 36.3125L112.849 41.4211" fill="white"/>
        <path d="M106.235 57.4373L95.0745 45.011L99.2081 46.8059L106.787 53.7094L106.235 57.4373Z" fill="white"/>
        <path fill-rule="evenodd" clip-rule="evenodd" d="M483.639 52.3286L473.994 60.1985C471.514 62.2696 467.518 61.5792 466.002 58.8178C464.073 55.228 462.833 50.3956 462.833 45.1489C462.833 42.3875 463.109 39.7642 463.798 37.2789L481.572 35.8982L483.639 52.3286Z" fill="#DDE3E9"/>
        <path fill-rule="evenodd" clip-rule="evenodd" d="M481.71 37.1407L485.844 33.4129L489.289 29.2708L477.025 36.3123" fill="#DDE3E9"/>
        <path fill-rule="evenodd" clip-rule="evenodd" d="M483.639 52.3285L494.8 40.0403L490.666 41.6971L483.226 48.6006L483.639 52.3285Z" fill="#DDE3E9"/>
    </g>
    <defs>
        <clipPath id="clip0">
            <rect width="602" height="342" fill="white"/>
        </clipPath>
    </defs>
</svg>
