<svg width="211" height="407" viewBox="0 0 211 407" fill="none" xmlns="http://www.w3.org/2000/svg">
<g clip-path="url(#clip0)">
<path fill-rule="evenodd" clip-rule="evenodd" d="M118.114 67.7008C124.202 71.436 130.29 73.2345 133.195 72.4044C140.252 70.606 140.944 44.5978 135.409 34.3606C129.875 24.1233 101.649 19.6964 100.266 39.8942C99.7121 46.9496 102.756 53.175 107.045 58.4319L99.1587 94.954H121.988L118.114 67.7008Z" fill="#B28B67"/>
<path fill-rule="evenodd" clip-rule="evenodd" d="M126.416 23.1549C123.372 22.1865 118.806 21.9098 116.869 22.0481C117.976 19.4197 118.391 16.5145 117.976 13.7477C117.699 10.9808 116.454 8.62904 115.347 6.27724C114.793 5.17051 114.24 4.06377 113.41 3.23373C112.58 2.40368 111.334 1.85031 110.227 1.57363C108.982 1.29695 107.737 1.29695 106.492 1.57363C105.938 1.71197 105.523 1.98866 104.97 2.127C104.416 2.127 104.14 1.85031 103.725 1.43529C102.756 0.605243 101.372 0.190219 100.127 0.051878C98.7435 -0.0864633 97.3599 0.051878 96.1147 0.466902C94.8694 0.881926 93.6242 1.57363 92.794 2.68036C92.3789 3.09539 91.9639 3.64875 91.8255 4.20212C91.6871 4.4788 91.6871 4.61714 91.4104 4.61714C91.1337 4.75548 90.9953 4.75548 90.7186 4.75548C88.6432 5.58553 86.8445 7.24562 85.7376 9.45908C85.1842 10.7042 84.9075 12.9176 84.9075 15.4078C85.0458 17.8979 87.2596 24.2616 89.335 26.6134C91.1337 28.6885 93.9009 30.0719 96.5298 30.6253C94.7311 32.5621 93.6242 35.0522 92.794 37.6807C91.8255 40.4475 91.2721 43.3527 91.1337 46.2579C90.9953 49.0247 90.857 51.9299 91.5488 54.6967C92.1022 57.1868 93.4858 59.2619 95.5612 60.6454C96.5298 61.1987 97.6367 61.7521 98.7435 62.1671C99.8504 62.5821 100.819 62.9972 101.926 63.1355C104.001 63.5505 106.492 63.5505 108.014 61.8904C108.567 61.3371 109.259 60.507 109.674 59.8153C109.812 59.5386 109.951 59.4003 109.674 59.1236C109.397 58.8469 109.121 58.5702 108.844 58.2935C107.184 56.9101 106.215 55.1117 105.938 52.8982C105.662 50.6848 106.215 47.7796 108.429 46.8112C111.058 45.5662 114.102 46.9496 116.454 48.333C117.422 44.7361 119.498 41.5543 122.818 39.8942C126.416 38.0957 130.566 37.819 134.164 36.2973C135.132 35.8823 136.101 35.4672 136.793 34.6372C137.069 34.3605 137.485 33.8071 137.485 33.3921C137.623 32.8388 137.208 32.2854 136.931 31.8704C135.547 29.1035 129.598 24.1233 126.416 23.1549Z" fill="#191847"/>
<path fill-rule="evenodd" clip-rule="evenodd" d="M93.2091 177.544L127.938 297.347L144.264 387.269H160.729L144.403 177.544H93.2091Z" fill="#997659"/>
<path fill-rule="evenodd" clip-rule="evenodd" d="M77.5743 177.544C80.0648 239.797 79.0963 273.691 78.5429 279.363C77.9894 285.035 74.9455 322.94 53.9147 389.206H70.933C98.7435 325.569 108.429 287.802 111.611 279.363C114.793 271.062 124.202 237.03 138.038 177.544H77.5743Z" fill="#B28B67"/>
<path fill-rule="evenodd" clip-rule="evenodd" d="M92.5173 177.544C101.511 218.769 117.146 284.62 139.422 374.957H163.496C165.295 282.13 157.685 221.121 144.679 177.544H92.5173Z" fill="#159FD3"/>
<path fill-rule="evenodd" clip-rule="evenodd" d="M77.436 177.544C79.7881 239.797 73.7002 301.082 54.6064 375.925H80.2032C108.014 313.256 128.076 252.248 141.635 177.544H77.436Z" fill="#1CABE2"/>
<path fill-rule="evenodd" clip-rule="evenodd" d="M51.4242 401.518L52.2544 387.822C52.2544 386.992 53.0845 386.577 53.7763 386.716C61.9396 388.237 73.0085 384.502 73.0085 384.502C84.0773 392.388 99.8504 396.123 106.077 397.368C107.46 397.645 108.429 399.028 108.014 400.411L106.907 404.423H73.1468H53.3612L51.4242 401.518Z" fill="#191847"/>
<path fill-rule="evenodd" clip-rule="evenodd" d="M140.667 401.518L141.497 387.822C141.497 386.992 142.327 386.577 143.019 386.716C151.182 388.237 162.251 384.502 162.251 384.502C173.32 392.388 189.093 396.123 195.319 397.368C196.703 397.645 197.671 399.028 197.256 400.411L196.149 404.423H162.251H142.466L140.667 401.518Z" fill="#191847"/>
<path fill-rule="evenodd" clip-rule="evenodd" d="M141.635 141.852L182.729 161.358C192.967 162.188 201.822 163.848 209.017 166.476C210.816 167.583 213.306 170.073 206.803 170.765C200.3 171.457 193.521 172.563 192.967 174.915C192.552 177.267 196.841 179.204 195.596 182.386C194.766 184.599 188.263 180.726 175.81 170.765L137.346 162.741L141.635 141.852Z" fill="#997659"/>
<path fill-rule="evenodd" clip-rule="evenodd" d="M129.321 123.037C137.623 134.243 155.886 147.939 177.747 156.654L168.201 173.117C149.107 169.935 128.768 160.804 119.359 146.97C111.749 135.903 115.9 120.824 129.321 123.037Z" fill="#464D7F"/>
<path fill-rule="evenodd" clip-rule="evenodd" d="M67.059 214.204C84.2157 210.884 153.396 214.204 153.396 214.204C153.396 214.204 129.183 122.069 126.001 80.7048H99.7121C96.8065 80.7048 77.1593 118.334 77.1593 142.82C77.1593 165.093 56.2669 179.342 67.059 214.204Z" fill="#5C63AB"/>
<path fill-rule="evenodd" clip-rule="evenodd" d="M99.4354 241.872L110.919 267.327C115.485 271.754 118.806 276.043 121.158 280.193C121.573 281.438 121.711 283.513 118.391 281.3C115.07 279.086 111.473 276.873 110.228 277.841C109.121 278.81 110.366 281.438 108.429 282.406C107.184 283.098 105.662 278.671 103.863 269.126L89.0583 250.173L99.4354 241.872Z" fill="#D4A181"/>
<path fill-rule="evenodd" clip-rule="evenodd" d="M83.1089 178.235C83.1089 178.235 91.5489 223.75 115.624 259.442C98.4669 267.604 80.48 271.201 80.48 271.201L76.3292 181.279L83.1089 178.235Z" fill="#AFB9C5"/>
<path fill-rule="evenodd" clip-rule="evenodd" d="M94.1777 146.279C96.8066 157.346 100.266 182.386 96.8066 186.259H74.3922V186.121C65.9522 185.152 59.4492 177.129 59.4492 167.445V149.045C59.4492 138.67 66.9207 130.231 76.0525 130.231H77.5745C86.1528 130.231 93.0709 137.286 94.1777 146.279Z" fill="#191847"/>
<path fill-rule="evenodd" clip-rule="evenodd" d="M68.3044 160.113C64.707 155.962 62.3548 150.844 62.7699 145.033C63.8768 128.433 86.983 132.029 91.549 140.468C95.9765 148.907 95.5614 170.073 89.7503 171.595C87.3981 172.148 82.5555 170.765 77.4362 167.721L80.6185 189.994H62.0781L68.3044 160.113Z" fill="#D4A181"/>
<path fill-rule="evenodd" clip-rule="evenodd" d="M38.28 309.936C54.3299 314.363 68.1659 316.715 79.9266 316.715C91.5489 316.715 102.479 313.256 112.441 306.339C96.6682 301.774 83.8007 299.422 73.562 299.422C63.3233 299.422 51.5627 302.881 38.28 309.936Z" fill="#1F28CF"/>
<path fill-rule="evenodd" clip-rule="evenodd" d="M93.7626 323.079C93.6243 322.802 93.4859 322.525 93.3476 322.387C91.2721 316.715 56.8203 255.43 53.3613 244.224H92.1023C94.7312 252.663 106.492 306.201 108.152 316.853C113.41 333.593 124.064 388.099 125.447 391.834C126.831 395.846 118.806 399.996 116.592 395.016C113.133 387.269 104.97 365.826 101.372 352.684C97.9135 340.371 95.1462 329.304 93.7626 323.079Z" fill="#BA8B72"/>
<path fill-rule="evenodd" clip-rule="evenodd" d="M67.1974 327.782C58.7574 341.616 22.7837 386.992 20.7082 390.589C18.6328 394.324 10.1928 390.727 12.545 386.024C16.2807 378.415 27.2112 358.217 34.821 346.873C40.9089 337.743 46.72 329.719 50.5941 324.324C50.7325 298.316 49.4873 253.77 51.1476 244.224H85.461C83.9391 253.355 68.9961 325.845 67.1974 327.782Z" fill="#D4A181"/>
<path fill-rule="evenodd" clip-rule="evenodd" d="M10.3133 387.854C9.07871 389.617 8.3171 390.875 8.07649 391.901C7.72365 393.087 7.4669 394.818 7.30624 397.094C8.62863 397.423 20.8747 400.742 43.748 406.964C45.4957 404.127 45.4559 402.308 43.4684 401.394C41.5049 400.617 39.8379 399.927 38.6037 399.302L23.6821 387.183C23.3615 386.958 22.9528 387.03 22.7283 387.351L20.8845 389.643C18.7044 390.027 17.1576 390.019 15.9714 389.666C14.9456 389.426 13.8236 388.64 12.3331 387.358C11.6038 387.205 10.7622 387.213 10.3133 387.854Z" fill="#E4E4E4"/>
<path fill-rule="evenodd" clip-rule="evenodd" d="M114.102 394.463C113.41 396.4 112.995 397.921 112.995 398.89C112.995 400.135 113.133 401.795 113.548 404.147C114.932 404.147 127.523 404.147 151.321 404.147C152.289 400.965 151.736 399.166 149.66 398.89C147.585 398.613 145.786 398.336 144.403 398.198L126.831 390.313C126.554 390.174 126.139 390.313 126.001 390.589L124.894 393.356C122.957 394.324 121.296 394.739 120.189 394.739C119.221 394.739 117.837 394.324 116.039 393.494C115.347 393.356 114.517 393.771 114.102 394.463C114.24 394.463 114.102 394.463 114.102 394.463Z" fill="#E4E4E4"/>
<path fill-rule="evenodd" clip-rule="evenodd" d="M51.4242 244.224C66.5055 239.936 80.7567 239.936 94.316 244.224C99.0203 265.667 110.366 274.106 112.441 306.893C89.6117 318.237 61.5245 298.731 38.0032 309.798C31.3619 294.442 40.6321 257.228 51.4242 244.224Z" fill="#2B44FF"/>
<path fill-rule="evenodd" clip-rule="evenodd" d="M33.299 223.75H47.9652C31.9154 259.995 23.4754 278.948 22.7836 280.608C21.2616 284.482 24.5823 290.292 25.9659 293.474C21.4 295.549 21.9534 287.94 16.1423 290.569C10.8846 293.059 6.87212 297.486 0.784253 293.75C0.0924494 293.335 -0.73771 291.537 1.19934 290.154C6.18032 286.833 13.2367 280.885 14.2052 278.948C15.4505 276.319 21.8151 257.92 33.299 223.75Z" fill="#D4A181"/>
<path fill-rule="evenodd" clip-rule="evenodd" d="M67.7509 173.947L85.1843 177.959C85.1843 207.84 94.7312 226.932 99.5738 248.928H52.5312C51.8394 256.537 51.4243 264.284 51.2859 272.307H16.1423C24.1673 229.837 40.9089 197.05 66.644 173.808L67.7509 173.947Z" fill="#C5CFD6"/>
<path fill-rule="evenodd" clip-rule="evenodd" d="M60.0026 206.18C58.7574 224.856 59.4492 239.106 62.078 248.928H52.5311C53.9147 233.849 56.2669 219.599 60.0026 206.18Z" fill="black" fill-opacity="0.1"/>
<path fill-rule="evenodd" clip-rule="evenodd" d="M73.2853 160.943C74.1154 171.457 73.8387 183.354 71.2099 186.259H48.7954C47.5502 161.496 59.5876 171.042 59.5876 147.8C62.2164 132.306 70.5181 131.061 76.6059 131.061C85.5994 131.061 88.3666 134.796 90.8571 138.808C89.8885 148.769 82.002 147.939 75.7758 152.227C75.084 151.536 74.1154 151.121 73.1469 151.121C70.7948 151.121 68.8577 153.334 68.8577 155.962C68.8577 158.591 70.7948 160.804 73.1469 160.804C73.1469 160.943 73.1469 160.943 73.2853 160.943Z" fill="#191847"/>
<path fill-rule="evenodd" clip-rule="evenodd" d="M60.9712 189.994L73.2853 203.828C73.2853 203.828 85.3227 205.627 86.1528 209.915C87.5364 211.991 77.1594 209.224 78.8197 213.374C80.4801 217.524 89.7502 226.931 88.505 228.868C86.7063 231.773 79.5115 230.252 75.6374 227.762C68.3043 223.335 65.3987 219.323 60.6945 209.224C58.7574 204.935 55.2984 200.508 52.6696 197.188C50.4558 194.56 50.8709 190.686 53.3614 188.888C55.5751 187.228 58.8958 187.781 60.9712 189.994Z" fill="#997659"/>
<path fill-rule="evenodd" clip-rule="evenodd" d="M106.769 103.808C106.769 103.808 55.8518 127.464 53.4997 154.579C51.701 175.33 70.3797 200.508 70.3797 200.508C70.3797 200.508 62.3548 215.588 49.2105 215.588C-5.99542 155.409 34.5443 97.7208 100.127 82.2266L106.769 103.808Z" fill="#5C63AB"/>
</g>
<defs>
<clipPath id="clip0">
<rect width="211" height="407" fill="white"/>
</clipPath>
</defs>
</svg>
