<svg width="247" height="290" viewBox="0 0 247 290" fill="none" xmlns="http://www.w3.org/2000/svg">
<path fill-rule="evenodd" clip-rule="evenodd" d="M120.692 60.9627C115.447 64.1251 110.293 65.653 107.874 65.0293C101.808 63.4652 101.25 41.2674 105.944 32.5164C110.638 23.7653 134.768 19.9511 135.984 37.2897C136.406 43.3074 133.88 48.6778 130.148 53.0599L136.84 84.2606H117.4L120.692 60.9627Z" fill="#D4A181"/>
<path fill-rule="evenodd" clip-rule="evenodd" d="M144.46 31.5181C145.087 30.8957 145.43 30.0073 145.726 29.1638C146.034 28.2876 146.333 27.4023 146.537 26.4902C146.945 24.6679 146.949 22.5722 145.649 21.1572C144.607 20.0225 143.043 19.5135 141.6 19.4029C140.638 19.3292 139.65 19.4639 138.728 19.767C137.814 20.0677 137.025 20.667 136.139 21.039C136.105 19.0752 135.769 17.0204 134.773 15.3436C133.814 13.7302 132.286 12.8249 130.546 12.5853C128.759 12.3395 126.996 12.7576 125.396 13.6226C124.996 13.8392 124.599 14.0662 124.22 14.323C123.902 14.5381 123.572 14.7971 123.199 14.8846C122.783 14.9822 122.577 14.7421 122.307 14.4387C121.99 14.083 121.633 13.7697 121.255 13.492C119.585 12.2642 117.394 11.7593 115.459 12.4953C114.568 12.8344 113.701 13.4102 113.096 14.2038C112.557 14.9111 112.173 16.0332 111.429 16.526C111.113 16.7352 110.89 16.4581 110.603 16.2532C110.171 15.9454 109.759 15.6058 109.322 15.3063C108.708 14.8857 108.043 14.571 107.332 14.4063C106.29 14.1652 104.85 14.2217 104.552 15.5867C104.44 16.0995 104.526 16.6478 104.562 17.1644C104.611 17.8738 104.663 18.5829 104.725 19.2913C104.771 19.8291 104.831 20.3485 104.932 20.8766C104.986 21.1582 105.156 21.683 105.035 21.9649C104.884 22.3173 104.188 22.117 103.89 22.1292C103.303 22.1535 102.713 22.2565 102.17 22.5076C101.749 22.7022 101.307 22.9884 101.129 23.471C101.02 23.7674 101.048 24.0719 101.1 24.3769C101.162 24.7429 101.091 24.937 101.045 25.3064C100.256 24.9178 97.5222 24.0544 97.1782 25.4686C97.0636 25.9395 97.3244 26.4716 97.5234 26.8688C97.8724 27.5653 98.3299 28.202 98.7977 28.8091C99.7734 30.0757 100.938 31.1682 102.191 32.1025C100.723 32.7554 100.34 34.6813 101.611 35.8288C102.172 36.3354 102.927 36.4482 103.635 36.4158C103.894 36.4039 104.268 36.3043 104.472 36.3494C104.582 36.3737 104.699 36.4667 104.851 36.4771C105.85 36.5456 106.978 36.3048 107.955 36.083C109.696 35.6878 111.344 34.863 112.689 33.6068C113.034 33.2845 113.319 33.099 113.784 33.1038C114.191 33.1079 114.591 33.2195 114.997 33.2299C116.074 33.2574 117.044 32.7311 118.044 32.3808C118.105 33.7312 118.489 35.2186 119.042 36.4335C119.492 37.4242 120.432 37.5682 121.357 37.6551C124.312 37.9333 127.278 37.6229 130.237 37.627C127.372 38.2746 124.412 38.5415 121.573 39.3036C120.29 39.648 121.27 40.5132 121.819 41.1129C122.722 42.1005 123.394 43.3241 123.86 44.6132C125.261 42.7862 127.738 41.5824 129.932 42.1437C132.357 42.7637 134.064 46.0433 132.514 48.401C131.613 49.7696 129.988 50.298 128.636 50.8861C129.691 51.9833 129.946 53.6038 130.581 54.9689C130.894 55.642 131.334 56.4032 132.034 56.6378C132.293 56.7246 132.597 56.732 132.802 56.9433C133.055 57.2049 133.115 57.4974 133.439 57.7223C134.729 58.6197 136.745 58.5505 137.889 57.3794C138.923 56.3202 138.654 54.6441 137.79 53.5703C139.166 52.9969 141.671 52.2595 141.124 50.1165C144.104 49.9185 151.34 45.0844 147.34 41.552C149.535 40.3112 151.551 37.2788 150.142 34.6057C149.056 32.5473 146.531 31.6272 144.46 31.5181Z" fill="#191847"/>
<path fill-rule="evenodd" clip-rule="evenodd" d="M47.572 212.006C49.0792 228.486 47.5728 263.911 46.762 274.129C46.2524 280.551 37.5019 278.87 36.685 273.73C36.5467 272.86 35.9828 269.8 35.1415 265.236C31.0161 242.854 20.2192 184.276 20.2001 170.033C20.1913 163.501 34.7285 158.279 40.5442 166.168C45.3258 162.809 52.1126 161.908 56.2969 168.693C59.4646 173.829 66.9912 188.411 75.0181 205.439C82.0501 220.356 93.0381 256.567 93.0381 256.567L83.7097 260.83C83.7097 260.83 60.6668 223.773 46.1582 197.791C46.6399 202.262 47.1186 207.049 47.572 212.006Z" fill="#B28B67"/>
<path fill-rule="evenodd" clip-rule="evenodd" d="M92.3711 243.161L60.3539 167.296C52.6837 154.954 31.1787 169.807 33.7943 176.965C39.7328 193.216 69.9343 245.826 71.7035 250.667L92.3711 243.161Z" fill="#1F28CF"/>
<path fill-rule="evenodd" clip-rule="evenodd" d="M19.39 175.956C19.39 197.46 28.8134 248.007 28.8198 252.742L51.6473 251.972C51.6473 251.972 45.6619 186.051 46.5991 185.604C48.0049 184.934 104.228 193.387 121.09 194.025C145.405 194.946 155.464 180.025 156.28 151.71L109.18 151.71C109.18 151.71 48.7689 158.923 29.7706 161.744C21.637 162.951 19.39 170.032 19.39 175.956Z" fill="#2B44FF"/>
<path fill-rule="evenodd" clip-rule="evenodd" d="M91.5741 254.105C92.5085 253.399 93.8605 253.551 94.506 254.528C95.4454 255.95 96.6262 257.898 96.9331 259.13C97.4632 261.256 97.7718 265.512 97.7718 265.512C95.3056 266.127 53.4433 276.567 53.4433 276.567C53.4433 276.567 50.2912 271.284 53.9004 269.9C57.5097 268.516 59.8805 267.535 59.8805 267.535L78.0398 253.33C78.4836 252.983 79.1264 253.071 79.4608 253.524L81.4701 256.25C81.4701 256.25 85.3174 256.999 87.4721 256.462C88.6735 256.162 90.3372 255.039 91.5741 254.105Z" fill="#E4E4E4"/>
<path fill-rule="evenodd" clip-rule="evenodd" d="M45.3753 261.279C46.4527 260.82 47.7277 261.295 48.1178 262.399C48.6854 264.006 49.3599 266.182 49.3599 267.451C49.3599 269.643 48.6299 273.847 48.6299 273.847C46.0882 273.847 2.94439 273.847 2.94439 273.847C2.94439 273.847 1.16358 267.958 5.00035 267.489C8.83713 267.019 11.3749 266.641 11.3749 266.641L32.4304 257.252C32.945 257.022 33.5475 257.263 33.7622 257.784L35.0527 260.915C35.0527 260.915 38.6045 262.573 40.8252 262.573C42.0634 262.573 43.9491 261.886 45.3753 261.279Z" fill="#E4E4E4"/>
<rect width="42.93" height="5.67139" rx="2.8357" transform="matrix(-1 0 0 1 48.55 273.847)" fill="#2F3676"/>
<path d="M166.81 166.368C166.81 160.845 162.333 156.368 156.81 156.368H73.94C68.4172 156.368 63.9401 160.845 63.9401 166.368V204.17H162.81C165.019 204.17 166.81 202.379 166.81 200.17V166.368Z" fill="#2F3676"/>
<path fill-rule="evenodd" clip-rule="evenodd" d="M72.04 156.368H71.877C66.9793 156.368 62.8023 159.916 62.009 164.749L44.5 271.416H53.1555" fill="#2F3676"/>
<path fill-rule="evenodd" clip-rule="evenodd" d="M48.5499 287.62C40.4976 287.62 33.9699 281.091 33.9699 273.037C33.9699 264.983 40.4976 258.453 48.5499 258.453C56.6022 258.453 63.1299 264.983 63.1299 273.037C63.1299 281.091 56.6022 287.62 48.5499 287.62Z" fill="#191847"/>
<path fill-rule="evenodd" clip-rule="evenodd" d="M94.7201 224.425C94.7201 258.432 122.281 286 156.28 286C190.279 286 217.84 258.432 217.84 224.425C217.84 190.418 190.279 162.85 156.28 162.85C122.281 162.85 94.7201 190.418 94.7201 224.425ZM106.06 224.425C106.06 252.167 128.544 274.657 156.28 274.657C184.016 274.657 206.5 252.167 206.5 224.425C206.5 196.682 184.016 174.193 156.28 174.193C128.544 174.193 106.06 196.682 106.06 224.425Z" fill="#191847"/>
<rect width="6.48" height="106.946" transform="matrix(-1 0 0 1 159.52 170.952)" fill="#191847"/>
<rect width="6.48079" height="106.933" rx="2" transform="matrix(-0.70702 0.707193 0.70702 0.707193 120.769 184.322)" fill="#191847"/>
<rect width="6.48159" height="106.92" rx="2" transform="matrix(0 1 1 0 102.82 221.184)" fill="#191847"/>
<rect width="6.48079" height="106.933" rx="2" transform="matrix(0.70702 0.707193 0.70702 -0.707193 116.187 259.944)" fill="#191847"/>
<path fill-rule="evenodd" clip-rule="evenodd" d="M43.3982 59.114L74.1002 68.3328L66.2616 81.3946L42.3901 67.3424C31.2468 66.6787 25.9818 65.5794 26.5949 64.0446C27.1119 62.7504 28.3424 62.5299 29.4759 62.3268C30.3588 62.1686 31.1829 62.0209 31.5648 61.3845C32.437 59.9311 29.3796 56.1478 26.3248 52.6815C23.2699 49.2153 25.7145 49.0539 27.1911 49.3319C32.2683 51.3936 37.6707 54.6543 43.3982 59.114ZM50.9756 141.454L76.8132 122.476L82.5249 136.599L56.9389 147.211C49.7027 155.713 45.6564 159.258 44.7999 157.844C44.0778 156.652 44.6423 155.537 45.1622 154.509C45.5673 153.708 45.9453 152.961 45.667 152.273C45.0315 150.702 40.1707 150.867 35.5647 151.222C30.9586 151.576 32.3009 149.526 33.4115 148.514C38.1133 145.699 43.9679 143.345 50.9756 141.454Z" fill="#D4A181"/>
<path fill-rule="evenodd" clip-rule="evenodd" d="M116.946 71.3678C102.876 97.6097 82.5294 117.726 53.0328 138.638L64.2014 151.234C97.1355 138.992 114.517 131.606 123.053 106.812C125.195 100.59 126.693 80.7532 127.977 70.3162L116.946 71.3678Z" fill="#122AB0"/>
<path fill-rule="evenodd" clip-rule="evenodd" d="M156.28 158.799H93.91C93.91 158.799 115.102 94.1516 115.561 70.0591C115.577 69.2403 117.089 67.7974 117.758 67.9863C125.095 70.0591 133.461 66.4363 133.461 66.4363C148.247 90.2224 153.36 119.508 156.28 158.799Z" fill="#F2F2F2"/>
<path fill-rule="evenodd" clip-rule="evenodd" d="M117.816 102.726C108.075 144.521 108.524 178.735 130.03 178.735H163.286C168.567 143.23 154.686 94.0022 141.817 69.172C141.325 68.2238 140.279 66.4363 137.814 66.4363H128.151C128.147 66.4491 128.143 66.4619 128.139 66.4747C125.231 66.4985 122.028 66.6049 118.561 66.72C100.707 67.3128 75.8136 68.1395 47.8027 59.1445L44.5 75.6511C69.7827 91.9156 95.3835 104.515 117.816 102.726Z" fill="#152FBF"/>
</svg>
