<svg width="311" height="48" viewBox="0 0 311 48" fill="none" xmlns="http://www.w3.org/2000/svg">
    <path d="M59.4111 38.6905V10.6826H65.3462V22.0962H75.3107V10.6826H81.3252V38.6905H75.3107V27.4358H65.3462V38.6905H59.4111Z" fill="#152FBF"/>
    <path d="M88.6017 36.3086C86.6961 34.4559 85.7433 32.0674 85.7433 29.1428C85.7433 26.2183 86.6961 23.8496 88.6017 22.0366C90.5073 20.2105 92.8561 19.2974 95.6483 19.2974C98.414 19.2974 100.723 20.2303 102.576 22.0962C104.442 23.9488 105.375 26.3506 105.375 29.3016C105.375 29.8177 105.348 30.4 105.295 31.0484H91.3806C91.513 32.0806 92.0489 32.868 92.9885 33.4105C93.928 33.9531 94.9536 34.2243 96.0652 34.2243C97.9046 34.2243 99.2874 33.6289 100.214 32.4379L104.323 35.2367C102.602 37.8039 99.7307 39.0875 95.7079 39.0875C95.6814 39.0875 95.6616 39.0875 95.6483 39.0875C92.8561 39.0875 90.5073 38.1612 88.6017 36.3086ZM91.46 27.5152H99.6778C99.5455 26.4565 99.0757 25.6493 98.2685 25.0935C97.4745 24.5377 96.6143 24.2598 95.688 24.2598C94.7749 24.2598 93.8949 24.5311 93.048 25.0736C92.2011 25.6162 91.6718 26.43 91.46 27.5152Z" fill="#152FBF"/>
    <path d="M111.143 36.3086C109.197 34.4824 108.225 32.107 108.225 29.1825C108.225 26.258 109.197 23.8827 111.143 22.0565C113.101 20.2171 115.351 19.2974 117.891 19.2974C118.791 19.2974 119.777 19.4893 120.849 19.873C121.921 20.2436 122.781 20.892 123.43 21.8183V19.7142H129.027V38.6905H123.43V36.5269C122.887 37.3341 122.053 37.9561 120.928 38.3928C119.804 38.8295 118.791 39.0478 117.891 39.0478C115.337 39.0478 113.088 38.1347 111.143 36.3086ZM115.51 25.947C114.557 26.794 114.08 27.8725 114.08 29.1825C114.08 30.4794 114.557 31.5579 115.51 32.418C116.476 33.2649 117.581 33.6884 118.824 33.6884C120.042 33.6884 121.114 33.2782 122.04 32.4577C122.966 31.624 123.43 30.5323 123.43 29.1825C123.43 27.8195 122.966 26.7278 122.04 25.9073C121.114 25.0736 120.042 24.6568 118.824 24.6568C117.581 24.6568 116.476 25.0869 115.51 25.947Z" fill="#152FBF"/>
    <path d="M134.378 38.6905V9.37256H140.035V38.6905H134.378Z" fill="#152FBF"/>
    <path d="M143.679 24.1804V19.7142H147.133V12.4294H152.751V19.7142H156.741V24.1804H152.751V38.6905H147.133V24.1804H143.679Z" fill="#152FBF"/>
    <path d="M160.325 38.6905V9.37256H165.982V22.6718C166.339 21.5867 167.054 20.753 168.126 20.1708C169.211 19.5885 170.27 19.2974 171.302 19.2974C173.763 19.2974 175.642 20.0848 176.939 21.6595C178.249 23.2342 178.904 25.4706 178.904 28.3687V38.6905H173.247V28.5672C173.247 27.4027 172.896 26.483 172.195 25.8081C171.494 25.1332 170.68 24.7958 169.754 24.7958C168.721 24.7958 167.835 25.1067 167.094 25.7287C166.353 26.3506 165.982 27.3233 165.982 28.6466V38.6905H160.325Z" fill="#152FBF"/>
    <path d="M185.894 38.6905V10.6826H197.109C199.623 10.6826 201.635 11.3906 203.143 12.8066C204.652 14.2093 205.406 16.1016 205.406 18.4836C205.406 19.5422 205.102 20.5545 204.493 21.5206C203.885 22.4733 202.912 23.2078 201.575 23.7239C203.282 24.1606 204.593 25.0141 205.506 26.2845C206.419 27.5416 206.875 28.8186 206.875 30.1155C206.875 32.5239 206.061 34.5552 204.434 36.2093C202.806 37.8635 200.636 38.6905 197.923 38.6905H185.894ZM191.869 33.4502H197.605C198.558 33.4502 199.293 33.1061 199.809 32.418C200.338 31.7167 200.603 30.9095 200.603 29.9964C200.603 29.123 200.325 28.3488 199.769 27.674C199.226 26.9991 198.466 26.6616 197.486 26.6616H191.869V33.4502ZM191.869 21.7389H196.534C197.288 21.7389 197.91 21.4676 198.399 20.9251C198.902 20.3825 199.154 19.6944 199.154 18.8607C199.154 17.9608 198.929 17.2463 198.479 16.7169C198.029 16.1876 197.367 15.9229 196.494 15.9229H191.869V21.7389Z" fill="#152FBF"/>
    <path d="M211.016 31.0484V19.7142H216.673V29.8376C216.673 31.1873 217.023 32.1534 217.725 32.7356C218.426 33.3179 219.194 33.609 220.027 33.609C221.006 33.609 221.82 33.298 222.469 32.6761C223.13 32.0409 223.461 31.0616 223.461 29.7383V19.7142H229.099V38.6905H223.461V36.0902C222.972 37.0165 222.264 37.751 221.337 38.2935C220.411 38.8229 219.478 39.0875 218.539 39.0875C216.315 39.0875 214.502 38.3994 213.1 37.0231C211.71 35.6469 211.016 33.6553 211.016 31.0484Z" fill="#152FBF"/>
    <path d="M233.358 29.2619C233.358 26.3109 234.258 23.9158 236.057 22.0763C237.857 20.2237 240.021 19.2974 242.548 19.2974C243.766 19.2974 244.877 19.5422 245.883 20.0318C246.902 20.5215 247.643 21.1831 248.106 22.0168V9.37256H253.724V38.6905H248.106V36.3284C247.643 37.2018 246.902 37.8833 245.883 38.3729C244.877 38.8493 243.766 39.0875 242.548 39.0875C240.034 39.0875 237.87 38.1744 236.057 36.3483C234.258 34.5221 233.358 32.16 233.358 29.2619ZM239.214 29.1428C239.214 30.5191 239.637 31.6307 240.484 32.4776C241.344 33.3113 242.383 33.7281 243.6 33.7281C244.818 33.7281 245.85 33.298 246.697 32.4379C247.557 31.5645 247.987 30.4661 247.987 29.1428C247.987 27.7666 247.557 26.6682 246.697 25.8478C245.85 25.0273 244.818 24.6171 243.6 24.6171C242.383 24.6171 241.344 25.0406 240.484 25.8875C239.637 26.7212 239.214 27.8063 239.214 29.1428Z" fill="#152FBF"/>
    <path d="M257.943 29.2619C257.943 26.3109 258.843 23.9158 260.643 22.0763C262.443 20.2237 264.606 19.2974 267.134 19.2974C268.351 19.2974 269.463 19.5422 270.468 20.0318C271.487 20.5215 272.228 21.1831 272.692 22.0168V9.37256H278.309V38.6905H272.692V36.3284C272.228 37.2018 271.487 37.8833 270.468 38.3729C269.463 38.8493 268.351 39.0875 267.134 39.0875C264.619 39.0875 262.456 38.1744 260.643 36.3483C258.843 34.5221 257.943 32.16 257.943 29.2619ZM263.799 29.1428C263.799 30.5191 264.222 31.6307 265.069 32.4776C265.93 33.3113 266.968 33.7281 268.186 33.7281C269.403 33.7281 270.435 33.298 271.282 32.4379C272.142 31.5645 272.573 30.4661 272.573 29.1428C272.573 27.7666 272.142 26.6682 271.282 25.8478C270.435 25.0273 269.403 24.6171 268.186 24.6171C266.968 24.6171 265.93 25.0406 265.069 25.8875C264.222 26.7212 263.799 27.8063 263.799 29.1428Z" fill="#152FBF"/>
    <path d="M281.139 19.7142H287.154L291.342 30.4728L295.57 19.7142H301.584L289.873 48H283.898L288.464 36.7453L281.139 19.7142Z" fill="#152FBF"/>
    <path d="M21.09 1.10666C17.0039 1.10666 13.6724 4.40653 13.6724 8.47713C13.6724 12.5477 17.0039 15.8476 21.09 15.8476C25.1761 15.8476 28.5076 12.5477 28.5076 8.47713C28.5076 4.40653 25.1761 1.10666 21.09 1.10666Z" fill="#152FBF"/>
    <path d="M41.84 25.4929C41.84 21.4218 38.5272 18.1216 34.4407 18.1216L13.6719 18.1216L13.6719 32.8642L34.4407 32.8642C38.5272 32.8642 41.84 29.5639 41.84 25.4929Z" fill="#1CABE2"/>
    <path d="M21.1212 45.9272C25.2178 45.9272 28.5388 42.6188 28.5388 38.5377L28.5388 18.1216L13.7035 18.1216L13.7035 38.5377C13.7035 42.6188 17.0245 45.9272 21.1212 45.9272Z" fill="#4FD183"/>
    <path d="M0.339844 25.4929C0.339844 29.5639 3.65264 32.8642 7.73919 32.8642L28.508 32.8642L28.508 18.1216L7.73919 18.1216C3.65265 18.1216 0.339843 21.4218 0.339844 25.4929Z" fill="#4FD183"/>
    <path d="M13.708 18.0995C13.708 26.2409 20.3696 32.8408 28.542 32.8408L28.542 18.0995L13.708 18.0995Z" fill="#8DD3FF"/>
</svg>
