<svg width="263" height="388" viewBox="0 0 263 388" fill="none" xmlns="http://www.w3.org/2000/svg">
<path fill-rule="evenodd" clip-rule="evenodd" d="M117.813 77.4889C111.465 79.3455 105.663 79.5212 103.308 78.2037C97.4042 74.9001 102.934 51.5729 110.245 43.73C117.556 35.887 143.803 38.5511 140.299 56.9869C139.083 63.3854 134.966 68.2961 129.862 71.8429L128.259 106.258L107.96 100.904L117.813 77.4889Z" fill="#D4A181"/>
<path fill-rule="evenodd" clip-rule="evenodd" d="M122.789 54.5067C121.723 51.4291 120.563 48.9903 118.676 47.2538C109.714 45.0409 109.091 43.1655 110.514 37.7732C112.227 37.122 117.771 36.7267 123.596 37.7405C126.72 37.6754 130.121 38.7396 133.071 41.0011C136.858 43.2421 139.664 46.6573 139.96 51.7435C142.977 62.7627 136.149 71.6038 129.587 73.5084C128.55 71.324 127.691 69.2455 126.954 67.2783C128.14 66.6056 129.065 65.474 129.44 64.0511C130.18 61.2484 128.507 58.377 125.704 57.6377C125.498 57.5834 125.292 57.542 125.086 57.5133C124.035 60.9842 120.389 72.703 117.94 76.4615C115.052 80.8926 105.358 79.6108 102.087 78.748C99.2616 78.0028 100.064 75.3527 100.638 73.4535C100.721 73.1799 100.799 72.922 100.861 72.6875C100.99 72.1977 101.627 72.367 102.347 72.5583C103.281 72.8067 104.354 73.0922 104.637 72.0197C104.946 70.8507 103.567 69.5279 102.333 68.3442C101.563 67.6057 100.849 66.9213 100.637 66.3622C99.9685 64.5983 100.139 62.5024 101.739 62.9243C102.613 63.1549 103.68 63.9754 104.963 64.9625C106.901 66.4528 109.332 68.3227 112.34 69.1162C117.31 70.4271 122.721 54.7039 122.789 54.5067Z" fill="#191847"/>
<path fill-rule="evenodd" clip-rule="evenodd" d="M150.232 178.506L118.237 288.973L103.189 371.914H88.0841L103.162 178.506H150.232Z" fill="#D4A181"/>
<path fill-rule="evenodd" clip-rule="evenodd" d="M164.611 178.506C162.379 235.893 163.259 267.194 163.759 272.408C164.259 277.621 167.095 312.54 186.425 373.664H170.715C145.116 315.026 136.18 280.107 133.244 272.408C130.308 264.708 121.636 233.407 108.977 178.506H164.611Z" fill="#D4A181"/>
<path fill-rule="evenodd" clip-rule="evenodd" d="M150.919 178.506C142.597 216.518 128.202 277.195 107.736 360.537H85.6443C84.0126 274.994 90.954 218.693 102.975 178.506H150.919Z" fill="#69A1AC"/>
<path fill-rule="evenodd" clip-rule="evenodd" d="M164.723 178.506C162.536 235.893 168.203 292.43 185.755 361.43H162.184C136.538 303.668 118.157 247.41 105.594 178.506H164.723Z" fill="#89C5CC"/>
<path fill-rule="evenodd" clip-rule="evenodd" d="M188.664 385.041L187.857 372.01C187.827 371.512 187.342 371.172 186.855 371.279C179.276 372.953 168.727 369.288 168.727 369.288C158.068 376.853 142.633 380.266 137.511 381.236C136.592 381.41 136.012 382.334 136.267 383.234L137.521 387.666H168.727H186.93L188.664 385.041Z" fill="#191847"/>
<path fill-rule="evenodd" clip-rule="evenodd" d="M106.56 385.041L105.753 372.01C105.723 371.512 105.238 371.172 104.751 371.279C97.1718 372.953 86.6231 369.288 86.6231 369.288C75.9636 376.853 60.529 380.266 55.4072 381.236C54.4885 381.41 53.9085 382.334 54.1631 383.234L55.4173 387.666H86.6231H104.826L106.56 385.041Z" fill="#191847"/>
<path fill-rule="evenodd" clip-rule="evenodd" d="M181.499 159.938C181.499 159.938 197.185 208.826 200.446 213.61C202.04 215.949 212.297 222.293 219.284 225.76C222.088 227.151 221.344 229.541 220.462 230.271C213.283 236.217 207.304 231.22 200.058 229.017C192.119 226.603 194.122 236.287 187.844 234.479C189.087 230.166 192.267 222.018 189.566 217.341C187.765 214.223 163.407 162.553 163.407 162.553L181.499 159.938Z" fill="#D4A181"/>
<path fill-rule="evenodd" clip-rule="evenodd" d="M67.949 174.702L45.1355 200.699C38.1882 204.324 32.5643 208.166 28.2639 212.225C27.3291 213.549 26.3923 216.02 31.1661 214.572C35.9399 213.125 41.0264 211.816 42.0633 213.322C43.1001 214.827 40.5998 217.454 42.4492 219.386C43.6822 220.673 47.1213 216 52.7667 205.365L77.2673 188.229L67.949 174.702Z" fill="#B28B67"/>
<path fill-rule="evenodd" clip-rule="evenodd" d="M117.908 94.0577L110.324 92.8827C97.8178 125.559 75.5519 155.422 43.5266 182.472L68.5155 211.817C100.359 173.519 119.738 134.22 117.908 94.0577Z" fill="#191847"/>
<path fill-rule="evenodd" clip-rule="evenodd" d="M165.258 180.72L98.5585 190.094C98.5585 190.094 113.831 130.578 108.304 91.2551L128.004 85.435C147.384 108.598 156.242 139.226 165.258 180.72Z" fill="#DDE3E9"/>
<path fill-rule="evenodd" clip-rule="evenodd" d="M128.432 85.3894L128.446 85.373C128.446 85.373 180.746 123.871 199.586 204.994L167.076 209.563C166.832 205.907 166.494 202.31 166.073 198.775L122.414 204.911C122.414 204.911 119.849 126.887 117.056 101.414L119.969 86.8621C119.969 86.8621 124.763 85.9733 127.109 85.5609L128.422 85.3764C128.425 85.3807 128.428 85.3851 128.432 85.3894Z" fill="#2F3676"/>
<path fill-rule="evenodd" clip-rule="evenodd" d="M166.113 199.117C164.305 183.72 160.916 169.501 156.807 156.779C157.792 172.421 157.922 191.392 153.95 200.826L166.113 199.117Z" fill="black" fill-opacity="0.1"/>
<path fill-rule="evenodd" clip-rule="evenodd" d="M152.686 173.67L129.72 166.695L131.126 176.7L152.686 173.67Z" fill="white" fill-opacity="0.2"/>
</svg>
