<svg width="48" height="48" viewBox="0 0 48 48" fill="none" xmlns="http://www.w3.org/2000/svg">
<path d="M2.86276 40.1312C0.398234 40.1312 8.52535 38.5932 3.06889 30.6885L19.2787 40.1312H2.86276Z" fill="#1CABE2"/>
<path d="M40.1311 20.0656C40.1311 8.98366 31.1474 0 20.0655 0C8.98362 0 -4.19617e-05 8.98366 -4.19617e-05 20.0656C-4.19617e-05 31.1475 8.98362 40.1311 20.0655 40.1311C31.1474 40.1311 40.1311 31.1475 40.1311 20.0656Z" fill="#1CABE2"/>
<path d="M45.8669 48C47.7032 48 41.6478 46.8541 45.7133 40.9644L33.6354 48H45.8669Z" fill="#152FBF"/>
<path d="M18.0984 33.0491C18.0984 24.792 24.7921 18.0983 33.0492 18.0983C41.3063 18.0983 48 24.792 48 33.0491C48 41.3063 41.3063 48 33.0492 48C24.7921 48 18.0984 41.3063 18.0984 33.0491Z" fill="#152FBF"/>
<line x1="29.8869" y1="30.7925" x2="38.0378" y2="30.7925" stroke="white" stroke-width="1.81132" stroke-linecap="round"/>
<line x1="13.5849" y1="13.5849" x2="25.3584" y2="13.5849" stroke="white" stroke-width="1.81132" stroke-linecap="round"/>
<line x1="13.5849" y1="22.6415" x2="18.1132" y2="22.6415" stroke="white" stroke-width="1.81132" stroke-linecap="round"/>
<line x1="29.8869" y1="35.3208" x2="38.0378" y2="35.3208" stroke="white" stroke-width="1.81132" stroke-linecap="round"/>
<line x1="13.5849" y1="18.1132" x2="21.7358" y2="18.1132" stroke="white" stroke-width="1.81132" stroke-linecap="round"/>
<line x1="13.5849" y1="27.1698" x2="15.3962" y2="27.1698" stroke="white" stroke-width="1.81132" stroke-linecap="round"/>
</svg>
