<svg width="221" height="416" viewBox="0 0 221 416" fill="none" xmlns="http://www.w3.org/2000/svg">
<path fill-rule="evenodd" clip-rule="evenodd" d="M105.802 31.833C99.4424 31.833 100.454 20.1127 100.454 20.1127L112.162 20.8361C112.162 20.8361 112.451 31.833 105.802 31.833Z" stroke="#3F3F3F" stroke-width="1.8175" stroke-miterlimit="10"/>
<path fill-rule="evenodd" clip-rule="evenodd" d="M128.061 60.4828C125.17 58.1677 121.268 57.0101 117.654 55.7078C114.041 54.4056 109.849 52.5245 108.115 48.9071C107.247 47.3155 107.247 45.1451 106.958 43.4087C106.669 41.2383 106.38 39.2125 106.091 37.0421C105.368 29.3732 105.368 20.5468 108.404 13.312C114.041 -0.144679 148.875 -9.26051 153.211 16.0612C154.656 24.8877 151.765 33.1353 146.851 40.0807L161.16 84.9364L132.686 87.6856C133.12 87.6856 133.12 71.4797 132.975 70.3221C132.686 67.2835 131.819 64.2449 129.795 62.0744C129.217 61.4957 128.639 60.9169 128.061 60.4828Z" fill="#D4A181"/>
<path fill-rule="evenodd" clip-rule="evenodd" d="M126.412 46.296L115.285 55.2759C112.414 57.6107 107.748 56.8923 106.133 53.6595C103.8 49.5288 102.544 43.9613 102.544 38.0345C102.544 34.8018 102.903 31.9282 103.62 29.0546L124.079 27.4382L126.412 46.296Z" fill="#DDE3E9"/>
<path fill-rule="evenodd" clip-rule="evenodd" d="M123.768 29.2085C128.18 25.6681 129.064 24.783 133.926 20.8C133.926 20.8 132.158 19.9149 130.39 20.8C128.622 21.6851 118.456 27.9694 118.456 27.9694" fill="#DDE3E9"/>
<path fill-rule="evenodd" clip-rule="evenodd" d="M124.644 47.7957L141.993 37.0738C142.721 36.5005 143.085 35.7361 143.267 34.7806L143.267 33.1914L137.443 36.5005L125.97 43.3701L124.644 47.7957Z" fill="#DDE3E9"/>
<path fill-rule="evenodd" clip-rule="evenodd" d="M140.491 19.2446C140.347 19.2446 140.058 19.2446 139.913 19.2446C138.179 19.0999 136.444 19.534 134.854 20.2575C133.554 20.8363 132.686 21.9938 131.385 22.5726C132.831 17.3636 135.433 12.1545 137.456 7.09018C137.601 6.80079 137.745 6.3667 138.034 6.22201C138.468 5.78792 139.191 5.93262 139.769 6.07731C144.394 7.23488 149.597 7.95836 152.344 12.0098C153.789 14.1803 154.656 17.3636 154.945 19.8234C155.379 22.7173 155.09 25.7559 154.223 28.6498C152.922 33.5695 150.176 38.055 147.14 42.1065C146.996 42.2512 145.261 38.4891 145.261 38.3444C144.683 36.7528 143.816 35.1611 143.093 33.5695C144.249 32.1225 145.406 30.6756 145.984 28.9392C146.707 27.2029 146.851 25.3218 146.273 23.5855C145.406 21.2704 143.093 19.6787 140.491 19.2446Z" fill="#D8D1BC"/>
<path fill-rule="evenodd" clip-rule="evenodd" d="M115.92 34.4375C108.548 34.4375 109.705 20.9808 109.705 20.9808L123.291 21.7043C123.147 21.849 123.58 34.4375 115.92 34.4375Z" stroke="#3F3F3F" stroke-width="2.0982" stroke-miterlimit="10"/>
<path fill-rule="evenodd" clip-rule="evenodd" d="M107.826 169.873L78.918 397.479H98.8643L126.038 300.967L163.329 169.873H107.826Z" fill="#3D4666"/>
<path fill-rule="evenodd" clip-rule="evenodd" d="M107.826 169.873C126.038 234.552 138.179 271.304 142.081 280.42C145.984 289.391 164.774 328.459 198.596 397.479H219.121C192.67 325.565 178.939 286.497 178.072 280.42C177.204 274.343 174.169 237.446 173.302 169.873H107.826V169.873Z" fill="#4E5375"/>
<path fill-rule="evenodd" clip-rule="evenodd" d="M210.738 416V413.974L197.295 416H158.27V411.949C174.747 407.463 188.19 401.675 198.452 394.44H219.988L221 416H210.738Z" fill="#191847"/>
<path fill-rule="evenodd" clip-rule="evenodd" d="M91.3485 416V413.974L77.9063 416H38.7363V411.949C55.2138 407.463 68.6559 401.675 78.9181 394.44H100.454L101.466 416H91.3485Z" fill="#191847"/>
<path fill-rule="evenodd" clip-rule="evenodd" d="M65.765 157.718L31.5093 165.676C20.6688 174.792 14.8873 178.41 14.0201 176.529C12.8637 173.635 16.7663 171.898 16.3327 169.728C15.8991 167.558 9.68388 166.834 3.90233 166.255C-1.87923 165.676 0.144314 163.506 1.73424 162.348C8.23849 159.744 16.0436 158.152 25.1495 157.139L61.4288 138.763L65.765 157.718Z" fill="#D4A181"/>
<path fill-rule="evenodd" clip-rule="evenodd" d="M131.53 123.425C112.162 149.181 77.6172 156.705 40.4707 168.136L35.1228 150.049C79.4963 128.634 110.283 97.8141 134.132 64.2448L144.25 70.4667C141.793 82.187 138.035 114.744 131.53 123.425Z" fill="#191847"/>
<path fill-rule="evenodd" clip-rule="evenodd" d="M145.406 61.2061C140.203 62.219 134.999 62.5084 129.796 62.0743C129.651 65.547 129.507 69.0197 129.218 72.4924C129.073 75.6757 129.362 79.2931 128.64 82.4764C127.483 88.4089 126.182 94.6308 124.737 100.563C119.245 123.715 110.861 146.142 101.755 168.136C100.744 170.741 101.177 174.503 103.49 174.937C122.135 178.41 147.574 178.41 179.806 174.937C178.216 155.548 174.892 136.448 171.423 117.348C169.544 107.075 166.653 97.0907 162.895 87.396C161.161 83.0552 159.86 78.4249 158.126 74.084C157.547 72.7818 152.199 59.6145 151.188 59.9039C149.309 60.338 147.43 60.9167 145.406 61.2061Z" fill="#DDE3E9"/>
<path fill-rule="evenodd" clip-rule="evenodd" d="M154.945 61.3509C155.668 63.666 156.825 66.4152 157.114 66.994C158.125 70.1773 159.282 73.5053 160.293 76.6886C161.883 81.4636 163.473 86.2385 165.352 90.7241C167.231 95.2097 169.544 99.2611 171.134 103.747C174.603 113.731 178.072 123.715 181.541 133.699C190.068 158.586 199.753 182.606 206.546 208.217C213.05 232.815 218.254 257.992 219.554 283.459H114.764C115.631 280.999 116.498 278.539 117.221 275.935C127.628 241.208 130.663 203.731 134.132 167.702C136.011 149.181 137.456 130.226 138.757 111.271C139.335 104.036 138.757 96.8013 138.902 89.5665C139.046 82.9105 139.913 76.1098 143.093 70.1773C145.695 65.2577 149.887 61.3509 154.223 57.8782C154.078 58.1676 154.367 59.7592 154.945 61.3509Z" fill="#2F3676"/>
<path fill-rule="evenodd" clip-rule="evenodd" d="M135.433 416H134.999C134.132 415.855 133.409 415.132 133.554 414.264L136.156 386.916L139.914 387.206L137.312 414.553C137.167 415.566 136.445 416.145 135.433 416Z" fill="#999999"/>
<path fill-rule="evenodd" clip-rule="evenodd" d="M138.612 292.141C137.023 298.362 136.589 297.494 135.433 309.649C132.542 339.167 131.964 379.247 135.144 391.257C135.288 391.691 135.577 391.981 136.011 391.981L139.191 392.27C139.624 392.27 140.058 392.125 140.202 391.691C145.695 380.55 152.777 341.048 155.668 311.53C156.824 299.375 156.246 300.099 155.813 293.732L138.612 292.141Z" fill="#191847"/>
<path fill-rule="evenodd" clip-rule="evenodd" d="M141.359 257.414C140.347 261.899 139.624 266.385 139.191 270.436C138.612 275.79 137.89 289.247 138.612 292.14L155.813 293.877C156.969 291.128 158.848 277.816 159.426 272.462C159.86 268.41 160.004 263.78 159.86 259.295L141.359 257.414Z" fill="#191847"/>
<path d="M147.14 293.009L152.922 232.96C153.789 224.134 161.594 217.622 170.411 218.491C179.228 219.359 185.732 227.172 184.865 235.999C184.431 240.484 182.263 244.246 179.083 246.851" stroke="#191847" stroke-width="4.441" stroke-miterlimit="10" stroke-linecap="round"/>
<path fill-rule="evenodd" clip-rule="evenodd" d="M178.216 208.796C178.072 209.085 178.072 209.23 177.927 209.519C176.916 213.281 177.494 218.201 178.072 222.108C178.361 223.41 178.505 224.712 178.072 226.015C177.349 227.896 175.181 228.909 173.158 229.487C169.255 230.5 165.063 231.079 161.016 231.079C160.004 231.079 158.993 230.934 158.27 230.211C157.258 229.198 157.836 227.462 158.848 226.449C159.86 225.436 161.161 224.857 162.173 223.844C163.184 222.831 163.618 221.384 163.473 219.937C163.184 217.478 161.883 215.307 159.426 216.899C157.836 217.912 156.246 218.925 154.512 219.359C152.633 219.793 150.609 219.359 149.309 218.056C153.211 215.741 156.536 212.558 159.137 208.796C160.294 207.204 161.305 206.047 162.606 204.744C164.052 203.442 166.22 202.574 167.231 200.982C168.099 199.68 168.677 197.944 169.544 196.497C170.556 194.76 171.712 192.879 172.724 191.143C174.314 188.394 176.193 185.789 177.638 183.04C179.084 180.291 181.252 178.12 184.142 176.963C186.021 176.239 188.19 175.95 190.069 176.963C192.381 178.265 193.248 181.159 192.815 183.764C192.237 186.802 190.213 189.407 188.623 192.011C186.889 194.616 185.154 197.22 183.42 199.825C181.685 202.863 179.373 205.757 178.216 208.796Z" fill="#D4A181"/>
<path fill-rule="evenodd" clip-rule="evenodd" d="M206.98 141.512C206.98 126.319 201.487 110.982 188.045 93.1841C170.7 70.1775 160.149 66.5601 154.078 70.4668C148.008 74.3736 142.082 84.2129 159.426 107.22C164.341 113.731 188.334 136.448 170.411 195.05C175.47 197.944 180.818 200.693 185.732 203.732C190.502 197.365 195.561 187.815 199.464 176.529C204.233 163.651 207.413 150.049 206.98 141.512Z" fill="#333E7F"/>
</svg>
