<svg width="210" height="393" viewBox="0 0 210 393" fill="none" xmlns="http://www.w3.org/2000/svg">
<g clip-path="url(#clip0)">
<path fill-rule="evenodd" clip-rule="evenodd" d="M109.464 30.0728C115.507 30.0728 114.546 19.0005 114.546 19.0005L103.421 19.684C103.421 19.684 103.146 30.0728 109.464 30.0728Z" stroke="#3F3F3F" stroke-width="1.8175" stroke-miterlimit="10"/>
<path fill-rule="evenodd" clip-rule="evenodd" d="M88.313 57.1387C91.0599 54.9516 94.7682 53.858 98.2018 52.6277C101.635 51.3975 105.618 49.6204 107.267 46.203C108.091 44.6994 108.091 42.6489 108.365 41.0086C108.64 38.9582 108.915 37.0444 109.189 34.994C109.876 27.7491 109.876 19.4107 106.992 12.5759C101.635 -0.136795 68.5354 -8.74862 64.415 15.1731C63.0416 23.5116 65.7885 31.3032 70.4582 37.8646L56.8611 80.2403L83.918 82.8375C83.5059 82.8375 83.5059 67.5276 83.6433 66.434C83.918 63.5634 84.742 60.6928 86.6649 58.6423C87.2142 58.0956 87.7636 57.5488 88.313 57.1387Z" fill="#D4A181"/>
<path fill-rule="evenodd" clip-rule="evenodd" d="M76.5011 18.1805C76.6384 18.1805 76.9131 18.1805 77.0505 18.1805C78.6986 18.0438 80.3467 18.4539 81.8575 19.1374C83.0936 19.6841 83.9177 20.7777 85.1538 21.3245C83.7804 16.4034 81.3082 11.4824 79.3853 6.69806C79.248 6.42467 79.1106 6.01458 78.836 5.87788C78.4239 5.4678 77.7372 5.60449 77.1878 5.74119C72.7928 6.83475 67.8484 7.51823 65.2388 11.3457C63.8654 13.3961 63.0413 16.4034 62.7666 18.7273C62.3546 21.4612 62.6293 24.3318 63.4534 27.0657C64.6895 31.7134 67.299 35.9509 70.1832 39.7784C70.3206 39.9151 71.9687 36.361 71.9687 36.2243C72.5181 34.7207 73.3422 33.217 74.0289 31.7134C72.9301 30.3464 71.8314 28.9795 71.282 27.3391C70.5953 25.6988 70.4579 23.9217 71.0073 22.2814C71.8314 20.0942 74.0289 18.5906 76.5011 18.1805Z" fill="#D8D1BC"/>
<path fill-rule="evenodd" clip-rule="evenodd" d="M94.2186 41.0086C93.8066 42.2389 93.1198 44.9728 93.5319 44.9728C96.6908 44.6994 99.9871 44.426 103.009 43.4691C103.695 43.1957 104.519 42.9224 105.206 42.649C105.618 42.3756 106.717 41.4187 107.129 41.5554C107.541 41.5554 108.228 42.649 108.777 42.7857C109.327 43.0591 110.013 43.1957 110.7 43.1957C112.073 43.1957 113.447 42.7857 114.82 42.3756C114.546 40.0517 114.134 37.5912 112.348 35.9509C110.837 34.5839 108.64 34.1738 106.58 34.3105C103.421 34.3105 100.124 35.1307 97.5149 36.9077C96.2788 37.7279 95.18 39.0949 94.3559 40.4618C94.3559 40.5985 94.3559 40.7352 94.2186 41.0086Z" fill="#D8D1BC"/>
<path fill-rule="evenodd" clip-rule="evenodd" d="M99.8499 32.5335C106.854 32.5335 105.756 19.8208 105.756 19.8208L92.8453 20.5043C92.8453 21.1117 92.5706 32.5335 99.8499 32.5335Z" stroke="#3F3F3F" stroke-width="2.0982" stroke-miterlimit="10"/>
<path fill-rule="evenodd" clip-rule="evenodd" d="M107.541 160.48L135.01 375.503H116.056L90.2354 284.327L54.8005 160.48H107.541Z" fill="#3D4666"/>
<path fill-rule="evenodd" clip-rule="evenodd" d="M107.541 160.48C90.2351 221.583 78.6981 256.304 74.9898 264.916C71.2815 273.391 53.4267 310.299 21.2881 375.503H1.78513C26.9192 307.565 39.9669 270.657 40.791 264.916C41.6151 259.175 44.4993 224.317 45.3234 160.48H107.541Z" fill="#4E5375"/>
<path fill-rule="evenodd" clip-rule="evenodd" d="M9.75134 393V391.086L22.5244 393H59.6074V389.172C43.9501 384.935 31.1771 379.467 21.4256 372.632H0.961277L-0.000137329 393H9.75134Z" fill="#191847"/>
<path fill-rule="evenodd" clip-rule="evenodd" d="M123.198 393V391.086L135.971 393H173.191V389.172C157.534 384.935 144.761 379.467 135.01 372.632H114.545L113.584 393H123.198Z" fill="#191847"/>
<path fill-rule="evenodd" clip-rule="evenodd" d="M147.508 148.998L180.059 156.516C190.36 165.128 195.853 168.545 196.678 166.768C197.776 164.034 194.068 162.394 194.48 160.344C194.892 158.293 200.798 157.61 206.292 157.063C211.785 156.516 209.863 154.466 208.352 153.372C202.171 150.912 194.755 149.408 186.102 148.451L151.628 131.091L147.508 148.998Z" fill="#D4A181"/>
<path fill-rule="evenodd" clip-rule="evenodd" d="M85.0161 116.601C103.42 140.933 136.246 148.041 171.543 158.84L176.625 141.753C134.46 121.522 105.206 92.4063 82.5439 60.6929L72.9298 66.5708C75.2646 77.6431 78.8356 108.4 85.0161 116.601Z" fill="#191847"/>
<path fill-rule="evenodd" clip-rule="evenodd" d="M71.8309 57.8221C76.7753 58.779 81.7198 59.0524 86.6642 58.6423C86.8015 61.923 86.9388 65.2037 87.2135 68.4844C87.3509 71.4917 87.0762 74.9091 87.7629 77.9164C88.8617 83.5209 90.0978 89.3988 91.4712 95.0033C96.6903 116.875 104.656 138.062 113.309 158.84C114.27 161.301 113.858 164.855 111.661 165.265C93.9434 168.546 69.7708 168.546 39.1429 165.265C40.6537 146.948 43.8126 128.904 47.1089 110.86C48.8944 101.155 51.6413 91.7226 55.2122 82.564C56.8604 78.4631 58.0965 74.0889 59.7446 69.988C60.294 68.7578 65.3757 56.3185 66.3371 56.5918C68.1226 57.0019 69.9081 57.5487 71.8309 57.8221Z" fill="#DDE3E9"/>
<path fill-rule="evenodd" clip-rule="evenodd" d="M62.7664 57.9589C62.0797 60.1461 60.9809 62.7433 60.7062 63.29C59.7448 66.2974 58.6461 69.4414 57.6847 72.4487C56.1739 76.9596 54.6631 81.4706 52.8776 85.7081C51.0921 89.9457 48.8946 93.7732 47.3838 98.0107C44.0875 107.443 40.7913 116.875 37.495 126.307C29.3917 149.818 20.1896 172.51 13.7344 196.705C7.55386 219.943 2.60945 243.728 1.37334 267.787H100.948C100.124 265.463 99.3001 263.139 98.6134 260.679C88.7246 227.872 85.8403 192.467 82.5441 158.43C80.7586 140.933 79.3851 123.026 78.149 105.119C77.5996 98.2841 78.149 91.4494 78.0117 84.6146C77.8743 78.3266 77.0503 71.9019 74.0287 66.2974C71.5565 61.6497 67.5735 57.9589 63.4531 54.6782C63.5905 54.9516 63.3158 56.4553 62.7664 57.9589Z" fill="#2F3676"/>
<path fill-rule="evenodd" clip-rule="evenodd" d="M81.3078 393H81.7198C82.5439 392.863 83.2306 392.18 83.0933 391.359L80.6211 365.524L77.0501 365.797L79.5223 391.633C79.6596 392.59 80.3464 393.136 81.3078 393Z" fill="#999999"/>
<path fill-rule="evenodd" clip-rule="evenodd" d="M78.2865 275.988C79.7973 281.866 80.2094 281.046 81.3081 292.528C84.055 320.414 84.6044 358.279 81.5828 369.625C81.4455 370.035 81.1708 370.308 80.7588 370.308L77.7372 370.582C77.3251 370.582 76.9131 370.445 76.7758 370.035C71.5567 359.509 64.8268 322.191 62.0799 294.306C60.9811 282.823 61.5305 283.507 61.9425 277.492L78.2865 275.988Z" fill="#191847"/>
<path fill-rule="evenodd" clip-rule="evenodd" d="M75.6771 243.182C76.6386 247.419 77.3253 251.657 77.7373 255.484C78.2867 260.542 78.9734 273.255 78.2867 275.989L61.9427 277.629C60.8439 275.032 59.0585 262.456 58.5091 257.398C58.097 253.571 57.9597 249.196 58.0971 244.959L75.6771 243.182Z" fill="#191847"/>
<path d="M70.1831 276.809L64.6893 220.08C63.8653 211.741 56.4486 205.59 48.0706 206.41C39.6926 207.23 33.5121 214.612 34.3362 222.95C34.7482 227.188 36.8084 230.742 39.83 233.203" stroke="#191847" stroke-width="4.441" stroke-miterlimit="10" stroke-linecap="round"/>
<path fill-rule="evenodd" clip-rule="evenodd" d="M40.6541 197.252C40.7915 197.525 40.7915 197.662 40.9288 197.935C41.8902 201.49 41.3409 206.137 40.7915 209.828C40.5168 211.058 40.3794 212.288 40.7915 213.519C41.4782 215.296 43.5384 216.253 45.4612 216.799C49.1695 217.756 53.1525 218.303 56.9981 218.303C57.9595 218.303 58.921 218.166 59.6077 217.483C60.5691 216.526 60.0197 214.886 59.0583 213.929C58.0969 212.972 56.8608 212.425 55.8994 211.468C54.938 210.511 54.5259 209.144 54.6633 207.778C54.938 205.454 56.1741 203.403 58.5089 204.907C60.0197 205.864 61.5305 206.821 63.1786 207.231C64.9641 207.641 66.8869 207.231 68.123 206C64.4147 203.813 61.2558 200.806 58.7836 197.252C57.6849 195.748 56.7234 194.655 55.4873 193.424C54.1139 192.194 52.0537 191.374 51.0923 189.87C50.2683 188.64 49.7189 187 48.8948 185.633C47.9334 183.992 46.8346 182.215 45.8732 180.575C44.3624 177.978 42.577 175.517 41.2035 172.92C39.8301 170.323 37.7699 168.272 35.023 167.179C33.2375 166.495 31.1773 166.222 29.3919 167.179C27.1944 168.409 26.3703 171.143 26.7823 173.604C27.3317 176.474 29.2545 178.935 30.7653 181.395C32.4134 183.856 34.0616 186.316 35.7097 188.777C37.3579 191.647 39.5554 194.381 40.6541 197.252Z" fill="#D4A181"/>
<path fill-rule="evenodd" clip-rule="evenodd" d="M13.3223 133.688C13.3223 119.335 18.5414 104.845 31.3144 88.0318C47.7958 66.2972 57.822 62.8798 63.5905 66.5706C69.3589 70.2614 74.9901 79.5567 58.5087 101.291C53.839 107.443 31.0398 128.904 48.0705 184.266C43.2634 187 38.1817 189.597 33.512 192.467C28.9796 186.453 24.1725 177.431 20.4642 166.769C15.9318 154.603 12.9103 141.753 13.3223 133.688Z" fill="#333E7F"/>
</g>
<defs>
<clipPath id="clip0">
<rect width="210" height="393" fill="white" transform="matrix(-1 0 0 1 210 0)"/>
</clipPath>
</defs>
</svg>
