<svg width="246" height="468" viewBox="0 0 246 468" fill="none" xmlns="http://www.w3.org/2000/svg">
<g opacity="0.5">
<path fill-rule="evenodd" clip-rule="evenodd" d="M88.8205 98.2223C85.1168 92.9412 78.2437 79.529 73.0307 77.6419C69.6731 76.4264 70.6521 88.9994 70.6106 91.3968C70.4491 100.672 71.3521 109.888 72.4672 119.086C74.4761 135.673 81.0452 150.445 90.0553 164.563C94.6916 171.827 100.13 179.179 107.662 183.712C111.129 185.799 115.3 186.149 118.724 187.947C122.712 190.041 120.54 188.348 122.337 192.504C124.833 198.273 125.631 205.715 126.786 211.871C132.088 240.129 144.923 389.51 142.698 418.255C142.5 420.802 146.053 421.412 146.23 418.301C147.173 401.81 139.016 287.606 134.901 250.258C130.786 212.91 126.621 179.915 122.446 166.994C117.38 151.318 108.231 132.466 100.616 117.847C97.0781 111.056 93.2222 104.498 88.8205 98.2223Z" fill="#69A1AC"/>
<path fill-rule="evenodd" clip-rule="evenodd" d="M61.33 281.397C51.6923 274.322 41.2603 287.675 49.9814 294.752C54.8026 298.664 59.8429 297.272 62.6805 294.012C64.5225 296.258 66.2466 298.605 67.9032 300.588C72.9504 306.631 77.7209 312.818 82.28 319.149C91.751 332.302 99.8674 346.197 108.354 359.838C116.729 373.302 125.036 386.834 132.627 400.638C139.058 412.334 147.629 426.093 149.831 438.915C146.49 411.722 133.815 385.585 118.72 361.612C103.749 337.836 86.5676 311.87 63.3863 293.107C65.7456 289.637 65.8111 284.685 61.33 281.397Z" fill="#C1DEE2"/>
<path fill-rule="evenodd" clip-rule="evenodd" d="M244.212 215.078C238.819 216.133 230.007 228.333 225.561 232.981C220.278 238.505 215.484 244.393 210.966 250.562C201.239 263.841 192.54 277.958 185.143 292.68C173.084 316.681 163.423 341.318 156.412 367.453C152.12 383.451 149.341 400.032 147.694 416.498C147.383 419.603 144.127 443.545 148.819 444.19C153.038 444.771 151.735 426.011 151.938 423.459C154.239 394.669 161.132 366.657 170.72 339.521C172.808 333.61 174.749 326.37 178.089 321.05C180.494 317.219 178.106 318.555 182.333 317.105C185.962 315.859 190.097 316.163 193.814 314.638C201.887 311.327 208.352 304.9 214.019 298.434C225.032 285.869 233.759 272.275 238.308 256.175C240.831 247.248 243.15 238.269 244.437 229.066C244.77 226.687 247.686 214.399 244.212 215.078Z" fill="#69A1AC"/>
<path fill-rule="evenodd" clip-rule="evenodd" d="M222.929 12.0887C202.614 47.3204 185.92 86.0214 175.14 125.22C168.609 148.97 164.042 173.34 159.504 197.535C152.477 234.998 145.831 272.457 143.941 310.585C142.039 348.934 138.277 393.166 150.835 430.102C144.562 392.601 150.534 352.685 151.591 314.952C152.097 296.939 153.561 279.102 155.482 261.194C157.346 243.823 160.391 226.534 163.227 209.299C164.608 200.905 166.059 192.524 167.536 184.147C167.977 181.648 168.163 174.232 169.748 172.525C171.344 170.807 179.485 170.106 182.04 168.845C187.187 166.305 192.028 162.698 196.313 158.886C204.526 151.579 211.671 142.032 217.311 132.62C230.36 110.843 235.576 84.2665 235.313 59.0457C235.262 54.149 227.387 1.41894 230.55 0.692804C230.359 0.469789 230.179 0.239518 230.009 0C227.615 4.0091 225.265 8.04537 222.929 12.0887Z" fill="#89C5CC"/>
<path fill-rule="evenodd" clip-rule="evenodd" d="M3.66108 139.155C3.34762 138.703 1.30751 135.558 2.33485 135.759C0.24316 135.35 5.21183 139.227 6.4671e-05 136.848C2.47465 139.185 1.04649 142.221 1.01346 145.367C0.959571 150.474 1.81402 155.538 2.77585 160.536C4.29568 168.435 6.55983 176.115 9.84619 183.462C17.0089 199.473 29.1716 214.887 43.611 224.897C50.7394 229.839 57.7254 231.522 65.8553 233.797C70.9905 235.235 71.3977 237.891 74.1234 242.874C79.7983 253.253 85.372 263.594 90.3767 274.323C96.3526 287.135 102.154 299.96 107.626 312.997C126.061 356.912 141.065 402.408 148.945 449.491C149.138 421.745 142.719 393.169 134.623 366.722C128.725 347.453 121.047 328.879 112.858 310.492C110.873 306.038 107.866 300.308 107.023 295.391C106.433 291.945 108.237 288.631 109.063 285.002C112.283 270.867 112.053 255.031 109.225 240.821C106.107 225.152 97.0909 217.879 81.8383 215.659C76.2601 214.848 69.17 215.145 64.0551 212.767C58.4824 210.177 56.1836 201.663 53.0148 196.198C44.5035 181.518 34.3908 167.439 22.7787 155.07C19.5634 151.645 16.1056 148.485 12.4373 145.556C10.1241 143.708 5.23752 141.431 3.66108 139.155Z" fill="#89C5CC"/>
<path fill-rule="evenodd" clip-rule="evenodd" d="M178.952 425.255C179.397 422.236 177.057 419.525 174.005 419.525H121.249C118.197 419.525 115.857 422.236 116.303 425.255L120.087 450.918C121.534 460.73 129.955 468 139.873 468H155.381C165.3 468 173.72 460.73 175.167 450.918L178.952 425.255Z" fill="#C1DEE2"/>
</g>
</svg>
