<svg width="115" height="234" viewBox="0 0 115 234" fill="none" xmlns="http://www.w3.org/2000/svg">
<path fill-rule="evenodd" clip-rule="evenodd" d="M8.35029 30.4379C24.0348 56.7507 42.3023 82.2288 53.2726 110.998C52.8305 107.607 52.3618 104.22 51.8371 100.837C49.0535 82.9053 45.594 65.1045 41.9587 47.3256C40.1073 38.2734 38.1493 29.2541 36.1411 20.2355C35.061 15.3916 33.9942 10.5448 32.8918 5.7055C32.6248 4.53259 32.3954 2.48534 32.0611 0.4104C42.7225 35.3956 53.0036 70.4073 60.5239 106.234C61.5105 110.935 62.3506 115.629 63.0388 120.314C63.2742 119.245 63.5058 118.176 63.7592 117.11C66.8021 104.332 71.3664 91.6562 76.8011 79.7086C79.3992 73.9949 82.3835 68.4064 85.8972 63.1991C88.0883 59.9531 93.2556 56.0945 95.2544 52.7702C84.323 72.8198 80.3758 97.906 74.064 119.704C72.5234 125.023 70.9732 130.333 69.4543 135.653C78.9728 116.564 93.741 100.88 114.274 94.0837C89.4196 110.506 74.5117 139.265 64.4658 168.679C64.4327 169.028 64.3933 169.376 64.3593 169.726C67.3155 164.115 71.0391 159.041 76.0859 155.487C86.8874 147.878 98.8698 150.095 109.348 156.621C101.124 151.394 86.2623 156.154 79.3432 161.467C74.3898 165.27 70.1566 170.372 66.4805 175.35C65.5996 176.543 64.3979 177.936 63.1284 179.421C61.3484 190.975 58.4477 202.45 54.3411 213.834C55.0188 210.566 54.5288 205.341 54.7167 202.905C54.7372 202.641 54.7538 202.378 54.774 202.115C54.1498 204.607 53.5467 207.071 52.966 209.496C54.1203 204.869 54.7477 200.04 55.2374 195.16C55.3636 193.063 55.4866 190.967 55.6166 188.87C55.5754 184.89 55.4115 180.895 55.1342 176.893C54.1512 173.004 53.0507 169.336 52.143 166.285C48.8677 155.277 44.0662 144.731 38.1565 134.893C32.7645 125.915 26.3102 117.783 18.8592 110.428C14.8425 106.465 10.6387 102.69 6.4942 98.8621C4.99551 97.4785 2.31675 94.0764 0 92.3029C16.8726 101.605 34.2392 111.668 46.5479 126.656C45.1048 121.115 43.5375 115.652 41.8795 110.298C33.4681 83.1368 22.8475 54.9868 8.35029 30.4379Z" fill="#D7EBEC"/>
<path fill-rule="evenodd" clip-rule="evenodd" d="M25.2068 179.384C25.2068 209.547 27.5955 234 59.6571 234C91.7187 234 94.1073 209.547 94.1073 179.384" fill="#D7EBEC"/>
</svg>
