<svg width="93" height="108" viewBox="0 0 93 108" fill="none" xmlns="http://www.w3.org/2000/svg">
<path fill-rule="evenodd" clip-rule="evenodd" d="M19.1311 60.172C19.1311 86.5867 21.2156 108 49.1944 108C77.1732 108 79.2577 86.5867 79.2577 60.172" fill="white"/>
<path fill-rule="evenodd" clip-rule="evenodd" d="M57.518 43.6915C56.4924 45.4648 55.578 47.2735 54.7702 49.1093C54.7417 45.3285 54.9508 41.5199 55.5217 37.6592C56.4975 31.0462 57.988 24.4675 59.3886 17.8993C60.3951 13.1792 60.3315 4.70091 64.1516 0.939442C65.1991 0.126526 65.4513 1.72133 65.4513 2.41344C65.4645 2.55973 65.4484 -0.41154 64.4316 0.106023C58.3879 3.22747 56.4296 13.0423 54.4946 17.9564C51.6716 25.1291 49.2696 32.4614 48.2806 39.924C48.0306 41.8091 47.8946 43.6938 47.8632 45.575C47.6578 45.0719 47.4648 44.5649 47.2514 44.0634C43.7631 35.8821 39.0556 27.8992 33.1844 20.537C31.7392 18.7255 13.5677 0.851335 12.1453 3.5871C12.2856 3.98442 12.5795 4.31413 13.0275 4.57623C13.0539 4.60616 13.0546 4.58953 13.0392 4.5452C14.1065 6.26912 17.1408 8.93174 18.0859 10.4423C20.4646 14.2437 22.3132 18.2778 24.1918 22.2349C28.161 30.5973 31.843 39.044 35.4124 47.5084C36.2435 49.48 37.1097 51.4406 37.9935 53.395C28.8833 40.2548 16.73 28.3254 0 21.4962C5.71408 24.4032 9.46036 29.8725 13.3192 34.0601C17.9734 39.1111 22.8753 44.0262 27.5383 49.0716C33.0382 55.0236 39.5095 61.2914 44.7996 67.8779C49.9238 78.6359 54.9033 89.4055 57.977 100.714C56.7176 96.8071 57.8784 91.4076 57.6627 87.307C57.4917 84.0431 57.1101 80.8059 56.5874 77.5747C57.2336 79.0321 57.7906 80.4906 58.0428 81.8471C57.8126 79.5718 57.5472 77.3109 57.2621 75.0617C57.9939 72.956 58.7124 70.991 59.1978 69.3724C61.6853 61.0692 64.6472 52.909 68.6808 44.9555C72.4132 37.5983 76.6945 30.3347 81.3597 23.2927C83.5358 20.0095 85.7419 16.7384 87.9341 13.4618C89.369 11.3167 90.7352 7.8822 92.733 5.82692C79.8195 17.6333 65.7108 29.5251 57.518 43.6915Z" fill="white"/>
</svg>
