<svg width="149" height="240" viewBox="0 0 149 240" fill="none" xmlns="http://www.w3.org/2000/svg">
<path fill-rule="evenodd" clip-rule="evenodd" d="M128.932 182.517C128.932 209.516 126.802 231.403 98.204 231.403C69.6065 231.403 67.4759 209.516 67.4759 182.517" fill="white"/>
<path fill-rule="evenodd" clip-rule="evenodd" d="M89.6964 165.672C90.7447 167.485 91.6794 169.333 92.505 171.21C92.5341 167.345 92.3204 163.453 91.7369 159.507C90.7395 152.747 89.216 146.023 87.7845 139.31C86.7557 134.485 86.8207 125.819 82.9161 121.975C81.8454 121.144 81.5877 122.774 81.5877 123.481C81.5742 123.631 81.5907 120.594 82.6299 121.123C88.8073 124.313 90.8089 134.345 92.7866 139.368C95.6721 146.699 98.1272 154.194 99.1381 161.821C99.3936 163.748 99.5326 165.675 99.5647 167.597C99.7747 167.083 99.9719 166.565 100.19 166.052C103.755 157.69 108.567 149.531 114.568 142.006C116.045 140.154 134.619 121.885 136.073 124.681C135.929 125.087 135.629 125.424 135.171 125.692C135.144 125.723 135.143 125.706 135.159 125.66C134.068 127.422 130.967 130.144 130 131.688C127.569 135.573 125.68 139.697 123.76 143.741C119.703 152.289 115.939 160.922 112.291 169.574C111.441 171.589 110.556 173.593 109.653 175.59C118.964 162.16 131.386 149.966 148.486 142.986C142.646 145.957 138.817 151.548 134.873 155.828C130.116 160.991 125.105 166.014 120.339 171.171C114.718 177.255 108.103 183.661 102.696 190.393C97.4585 201.389 92.369 212.397 89.2272 223.956C90.5146 219.962 89.3281 214.443 89.5485 210.252C89.7233 206.916 90.1134 203.607 90.6476 200.305C89.9871 201.794 89.4178 203.285 89.16 204.672C89.3953 202.346 89.6666 200.035 89.9579 197.736C89.2101 195.584 88.4756 193.575 87.9795 191.921C85.437 183.434 82.4095 175.094 78.2868 166.964C74.4719 159.444 70.0958 152.02 65.3276 144.822C63.1033 141.467 60.8484 138.123 58.6077 134.774C57.1411 132.582 55.7447 129.071 53.7027 126.97C66.9018 139.038 81.3224 151.193 89.6964 165.672Z" fill="white"/>
<path fill-rule="evenodd" clip-rule="evenodd" d="M108.266 31.6046C92.2345 58.4993 73.563 84.5407 62.3502 113.946C62.802 110.48 63.2811 107.018 63.8174 103.56C66.6625 85.2322 70.1985 67.0378 73.9143 48.8657C75.8066 39.6134 77.8079 30.3946 79.8605 21.1766C80.9645 16.2256 82.0549 11.2716 83.1816 6.32528C83.4545 5.12643 83.689 3.03391 84.0307 0.913086C73.1336 36.672 62.6251 72.4578 54.9385 109.076C53.9301 113.882 53.0714 118.679 52.368 123.468C52.1274 122.376 51.8907 121.283 51.6317 120.194C48.5215 107.133 43.8562 94.1766 38.3013 81.9648C35.6458 76.1248 32.5955 70.4127 29.0041 65.0902C26.7645 61.7724 21.483 57.8286 19.44 54.4307C30.6132 74.9237 34.6476 100.565 41.099 122.844C42.6737 128.281 44.2581 133.709 45.8106 139.147C36.0816 119.636 20.9868 103.605 -0.000228882 96.6578C25.4038 113.443 40.6414 142.838 50.9094 172.902C50.9433 173.259 50.9835 173.615 51.0183 173.973C47.9968 168.238 44.1907 163.051 39.0324 159.419C27.992 151.642 15.7446 153.907 5.0351 160.578C13.4403 155.235 28.6309 160.101 35.7031 165.531C40.766 169.418 45.0928 174.633 48.8502 179.721C49.7505 180.941 50.9788 182.364 52.2765 183.882C54.0958 195.692 57.0606 207.421 61.2581 219.056C60.5654 215.716 61.0662 210.375 60.8741 207.886C60.8532 207.616 60.8362 207.346 60.8155 207.078C61.4536 209.625 62.07 212.144 62.6635 214.622C61.4837 209.893 60.8425 204.957 60.3419 199.97C60.213 197.826 60.0872 195.683 59.9544 193.54C59.9965 189.472 60.164 185.389 60.4474 181.299C61.4521 177.324 62.577 173.574 63.5047 170.456C66.8525 159.205 71.7601 148.426 77.8005 138.37C83.3118 129.193 89.9087 120.881 97.5245 113.364C101.63 109.312 105.927 105.454 110.163 101.542C111.695 100.128 114.433 96.6503 116.801 94.8376C99.555 104.345 81.8044 114.631 69.2236 129.95C70.6986 124.286 72.3006 118.703 73.9952 113.231C82.5926 85.4688 93.448 56.6963 108.266 31.6046Z" fill="#D7EBEC"/>
<path fill-rule="evenodd" clip-rule="evenodd" d="M91.0366 183.844C91.0366 214.675 88.5951 239.668 55.8246 239.668C23.054 239.668 20.6125 214.675 20.6125 183.844" fill="#D7EBEC"/>
</svg>
