<svg width="145" height="242" viewBox="0 0 145 242" fill="none" xmlns="http://www.w3.org/2000/svg">
<path fill-rule="evenodd" clip-rule="evenodd" d="M19.1313 181.762C19.1313 208.176 21.2158 229.59 49.1947 229.59C77.1735 229.59 79.258 208.176 79.258 181.762" fill="white"/>
<path fill-rule="evenodd" clip-rule="evenodd" d="M57.518 165.281C56.4924 167.054 55.578 168.863 54.7702 170.699C54.7417 166.918 54.9508 163.109 55.5217 159.249C56.4975 152.636 57.988 146.057 59.3886 139.489C60.3951 134.769 60.3315 126.291 64.1516 122.529C65.1991 121.716 65.4513 123.311 65.4513 124.003C65.4645 124.149 65.4484 121.178 64.4316 121.696C58.3879 124.817 56.4296 134.632 54.4946 139.546C51.6716 146.719 49.2696 154.051 48.2806 161.514C48.0306 163.399 47.8946 165.283 47.8632 167.165C47.6578 166.661 47.4648 166.154 47.2514 165.653C43.7631 157.472 39.0556 149.489 33.1844 142.127C31.7392 140.315 13.5677 122.441 12.1453 125.177C12.2856 125.574 12.5795 125.904 13.0275 126.166C13.0539 126.196 13.0546 126.179 13.0392 126.135C14.1065 127.859 17.1408 130.521 18.0859 132.032C20.4646 135.833 22.3132 139.867 24.1918 143.824C28.161 152.187 31.843 160.634 35.4124 169.098C36.2435 171.07 37.1097 173.03 37.9935 174.985C28.8833 161.844 16.73 149.915 0 143.086C5.71408 145.993 9.46036 151.462 13.3192 155.65C17.9734 160.701 22.8753 165.616 27.5383 170.661C33.0382 176.613 39.5095 182.881 44.7996 189.467C49.9238 200.225 54.9033 210.995 57.977 222.304C56.7176 218.397 57.8784 212.997 57.6627 208.897C57.4917 205.633 57.1101 202.395 56.5874 199.164C57.2336 200.622 57.7906 202.08 58.0428 203.437C57.8126 201.161 57.5472 198.901 57.2621 196.651C57.9939 194.546 58.7124 192.581 59.1978 190.962C61.6853 182.659 64.6472 174.499 68.6808 166.545C72.4132 159.188 76.6945 151.924 81.3597 144.882C83.5358 141.599 85.7419 138.328 87.9341 135.051C89.369 132.906 90.7352 129.472 92.733 127.417C79.8195 139.223 65.7108 151.115 57.518 165.281Z" fill="white"/>
<path fill-rule="evenodd" clip-rule="evenodd" d="M33.9272 33.1562C50.283 59.0571 69.1995 84.0571 80.9058 112.535C80.3767 109.156 79.821 105.782 79.2095 102.414C75.9659 84.5597 72.0499 66.8538 67.9586 49.1742C65.8752 40.1726 63.6859 31.2066 61.4465 22.2426C60.2422 17.4281 59.0511 12.6103 57.8247 7.80097C57.5276 6.63531 57.2456 4.59464 56.8581 2.52898C68.4154 37.2286 79.5933 71.9643 88.0322 107.585C89.1394 112.26 90.0999 116.931 90.9083 121.597C91.1162 120.522 91.3201 119.448 91.5461 118.375C94.2594 105.523 98.4964 92.7341 103.622 80.6507C106.072 74.8721 108.912 69.2087 112.291 63.9128C114.398 60.6115 119.464 56.6214 121.377 53.2468C110.964 73.5708 107.663 98.7502 101.914 120.703C100.511 126.06 99.0977 131.409 97.7161 136.766C106.741 117.438 121.101 101.38 141.452 94.0576C117.028 111.113 102.865 140.246 93.5783 169.909C93.5542 170.258 93.5238 170.608 93.4988 170.958C96.3097 165.273 99.9017 160.105 104.855 156.422C115.458 148.538 127.493 150.446 138.135 156.701C129.78 151.687 115.046 156.827 108.265 162.317C103.411 166.246 99.3107 171.455 95.7638 176.526C94.9139 177.742 93.7484 179.164 92.5175 180.682C91.0352 192.278 88.4305 203.824 84.6178 215.309C85.2113 212.025 84.5871 206.814 84.7124 204.374C84.7261 204.11 84.7359 203.846 84.7494 203.583C84.1894 206.09 83.6499 208.569 83.1317 211.008C84.1667 206.353 84.6697 201.509 85.0338 196.619C85.106 194.519 85.175 192.42 85.2511 190.32C85.1076 186.343 84.841 182.354 84.461 178.36C83.3784 174.498 82.1838 170.859 81.198 167.833C77.6408 156.913 72.5698 146.494 66.409 136.811C60.788 127.974 54.1268 120.011 46.4892 112.85C42.3718 108.991 38.0724 105.325 33.8309 101.606C32.2971 100.261 29.5318 96.9287 27.1702 95.2154C44.2764 104.081 61.896 113.694 74.5859 128.36C73.0008 122.858 71.2935 117.437 69.4985 112.128C60.3916 85.1919 49.0508 57.3242 33.9272 33.1562Z" fill="#BDEBFF"/>
<path fill-rule="evenodd" clip-rule="evenodd" d="M56.2065 186.973C56.2065 217.137 58.5952 241.59 90.6568 241.59C122.718 241.59 125.107 217.137 125.107 186.973" fill="#BDEBFF"/>
</svg>
