<svg width="274" height="257" viewBox="0 0 274 257" fill="none" xmlns="http://www.w3.org/2000/svg">
<path opacity="0.6" fill-rule="evenodd" clip-rule="evenodd" d="M55.8439 20.0774C53.1799 18.9467 50.1225 18.8231 47.258 19.1731C44.5639 19.5022 41.5393 19.9978 39.2486 21.5125C36.86 23.0918 35.3778 25.7947 34.6399 28.429C33.5971 32.1513 34.5967 35.6014 35.6036 39.0768C36.3176 41.5412 37.0352 44.0184 37.0311 46.6145C37.0233 51.7826 33.9416 55.7304 30.8768 59.6565C30.4404 60.2155 30.0044 60.7741 29.5777 61.3356C26.0227 66.0135 23.5118 71.3811 23.0662 77.1977C22.8292 80.2943 23.207 83.2571 24.5488 86.0865C25.4739 88.0369 26.7068 89.8216 27.9378 91.6035C28.4114 92.2892 28.8848 92.9744 29.3403 93.6685C29.4952 93.9046 29.6521 94.1418 29.8097 94.3802C31.3397 96.6941 32.9457 99.1229 33.6374 101.789C34.3686 104.605 33.1364 106.88 31.6312 109.243C25.2792 119.218 21.6522 133.114 26.1901 144.347C27.3587 147.239 29.1899 149.822 31.7255 151.739C32.8796 152.612 33.8767 153.414 34.6315 154.648C34.706 154.769 34.7797 154.888 34.8532 155.004C33.2047 159.067 32.1902 163.319 32.0198 167.656C31.8618 171.684 32.644 175.692 34.6048 179.278C35.4972 180.911 36.2426 182.378 36.476 184.23C36.7364 186.294 37.0897 187.853 38.2845 189.633C42.1506 195.391 49.0748 198.801 55.2958 201.578C69.9487 208.117 86.9152 209.156 101.528 202.406C108.842 199.028 115.303 193.034 117.862 185.409C120.533 177.453 119.36 168.024 117.078 160.041C116.567 158.254 115.893 156.384 115.203 154.467C113.17 148.82 110.989 142.765 112.377 137.206C113.574 132.407 117.489 129.552 121.373 126.718C123.264 125.339 125.148 123.964 126.708 122.373C132.118 116.855 134.11 108.862 134.239 101.372C134.309 97.2938 133.761 93.224 132.49 89.3161C131.874 87.4204 131.011 85.6241 130.147 83.8281C129.345 82.1595 128.543 80.491 127.94 78.7432C125.671 72.1755 128.638 66.2851 131.538 60.529C132.124 59.3664 132.707 58.2093 133.243 57.0532C136.209 50.6609 137.858 41.909 132.485 36.1183C129.958 33.3952 126.437 31.6586 122.892 30.5823C119.558 29.57 115.749 28.5827 112.262 29.1823C108.625 29.8074 105.458 32.2328 103.2 34.9643C100.01 38.824 99.3585 43.4241 98.7025 48.0581C98.2374 51.344 97.7698 54.6469 96.3928 57.715C93.6519 63.8229 87.9507 66.8884 82.2808 69.9372C81.4736 70.3712 80.6669 70.805 79.8696 71.2471C79.8159 71.2769 79.7623 71.3067 79.7088 71.3366C79.2805 69.3496 78.6311 67.4078 77.8438 65.5768C76.5966 62.677 74.9122 59.9767 72.7654 57.6166C71.7239 56.4718 70.5384 55.4744 69.353 54.4771C68.2517 53.5506 67.1505 52.6242 66.1651 51.5798C62.462 47.6553 62.7003 42.5697 62.9331 37.6C62.9802 36.5963 63.027 35.5973 63.041 34.6135C63.1187 29.1741 61.5085 22.482 55.8439 20.0774Z" fill="#8DD3FF"/>
<path fill-rule="evenodd" clip-rule="evenodd" d="M115.651 42.8109C116.154 41.8438 117.584 41.7694 118.387 42.4404C119.443 43.3238 118.914 44.4564 118.432 45.4604C116.95 48.5467 116.052 51.7891 115.452 55.1592C114.204 62.1657 114.485 69.2625 114.063 76.3413C113.642 83.4142 111.935 90.1467 107.774 95.9654C103.85 101.452 99.2832 106.462 95.3274 111.943C91.8408 116.773 88.1533 121.863 87.5156 127.954C86.9012 133.817 88.7069 139.626 89.2882 145.434C90.4919 157.457 88.2042 169.171 83.6884 180.257C81.5911 185.405 79.1887 190.472 75.8211 194.933C73.8824 197.503 71.2673 200.977 67.9634 201.869C66.4399 202.281 64.3855 201.739 64.0415 199.964C63.7181 198.298 65.3628 196.682 66.2417 195.455C70.047 190.146 72.9376 184.273 75.2753 178.198C77.5399 172.314 79.4103 166.265 80.0529 159.963C80.6491 154.116 80.1532 148.401 79.1581 142.606C78.1443 136.701 77.0149 130.732 78.1486 124.781C79.2996 118.736 82.7953 113.628 86.5501 108.876C90.5215 103.85 94.8729 99.1897 99.293 94.5491C103.6 90.0273 106.536 85.2381 107.966 79.1256C110.79 67.0493 109.791 54.0782 115.651 42.8109Z" fill="#E4F5FF"/>
<path fill-rule="evenodd" clip-rule="evenodd" d="M45.3862 29.1764C45.4399 28.336 46.4367 27.832 47.2215 28.0513C48.2545 28.3401 48.2346 29.3053 48.2073 30.1652C48.1237 32.8083 48.5063 35.377 49.1417 37.9415C50.4622 43.2735 52.9027 48.1861 54.8362 53.308C56.768 58.4255 57.6748 63.7092 56.5416 69.1243C55.4732 74.23 53.7948 79.2033 52.7015 84.3154C51.7378 88.8211 50.7123 93.5726 52.1799 98.0668C53.5921 102.393 56.7142 105.916 58.9625 109.825C63.6165 117.918 65.6813 126.896 65.9574 136.135C66.0854 140.425 65.9702 144.755 64.9749 148.963C64.402 151.386 63.6322 154.66 61.5559 156.333C60.5985 157.105 58.961 157.371 58.1552 156.229C57.3987 155.158 58.0624 153.499 58.3025 152.357C59.3427 147.413 59.5519 142.361 59.3029 137.342C59.0619 132.48 58.4874 127.626 56.9572 122.982C55.5369 118.673 53.3792 114.802 50.8398 111.032C48.2521 107.191 45.562 103.341 44.4928 98.7892C43.4065 94.1661 44.289 89.462 45.4691 84.9272C46.7171 80.1306 48.3518 75.4717 50.0417 70.8051C51.6886 66.2579 52.2724 61.9554 51.3632 57.1962C49.5672 47.7935 44.7598 38.9681 45.3862 29.1764Z" fill="#E4F5FF"/>
<path fill-rule="evenodd" clip-rule="evenodd" d="M13.306 75C19.2003 75 24.3823 78.1244 27.9531 82.5579C32.133 87.7481 32.9772 94.0862 34.6745 100.272C35.5191 103.35 36.9717 106.406 39.5174 108.498C41.8327 110.4 44.7721 110.78 47.5435 111.71C53.0822 113.567 57.5547 118.041 59.321 123.499C61.4758 130.158 59.1934 136.873 59.5864 143.622C59.9472 149.819 66.0576 153.685 70.9738 156.656C75.8215 159.586 80.1886 162.328 81.6487 168.035C83.1969 174.088 83.7164 180.844 81.5719 186.823C78.0015 196.779 67.5525 201.163 57.4561 201.842C48.2932 202.459 36.7719 201.491 29.8907 194.84C25.773 190.86 24.2819 185.293 24.4669 179.755C24.5818 176.311 25.264 172.899 26.146 169.571C26.7711 167.213 27.6157 164.864 27.8563 162.427C28.4959 155.942 22.5026 154.697 17.401 152.916C10.9183 150.654 6.37987 146.38 3.22399 140.425C0.285002 134.881 -0.948134 128.658 0.813701 122.554C1.71353 119.437 3.3456 116.61 5.55902 114.205C6.53336 113.146 7.90665 112.263 8.78608 111.151C9.60694 110.112 9.42823 108.766 9.14534 107.55C7.83732 101.931 3.76196 97.2776 2.30451 91.6685C0.988698 86.6054 1.76655 80.3042 6.39544 77.0379C8.3953 75.6265 10.8616 75.0156 13.306 75Z" fill="#CBEBFF"/>
<path fill-rule="evenodd" clip-rule="evenodd" d="M21.3377 89.6414C27.585 96.296 29.2831 105.325 29.7815 114.076C30.0606 118.983 29.7701 124.159 31.2118 128.919C32.4454 132.993 35.3373 136.107 38.3183 139.051C44.3188 144.975 51.0108 150.999 52.7659 159.574C53.7957 164.606 53.1006 169.804 54.5236 174.78C55.8175 179.304 58.0956 183.748 60.8665 187.568C63.0975 190.645 66.0042 193 68.443 195.867C69.1871 196.743 70.2529 198.031 69.9458 199.267C69.5865 200.714 67.7431 201.172 66.4352 200.945C63.3859 200.415 60.8191 197.503 58.8253 195.386C55.9098 192.291 53.4323 188.962 51.4187 185.227C49.1832 181.08 47.3833 176.679 46.6142 172.026C45.8161 167.199 46.2133 162.168 44.3909 157.535C41.3242 149.74 33.886 145.14 28.5082 139.064C21.8077 131.494 22.807 122.072 23.4933 112.759C23.8703 107.641 24.2451 101.862 21.6591 97.1895C20.672 95.4058 18.4711 93.7428 18.0467 91.7155C17.6579 89.8579 19.7797 87.9809 21.3377 89.6414Z" fill="#E4F5FF"/>
<path fill-rule="evenodd" clip-rule="evenodd" d="M28.0004 199C28.0004 237.058 34.2112 257 67.0001 257C99.789 257 106 237.058 106 199H28.0004Z" fill="white"/>
<rect opacity="0.4" x="193" y="144" width="38" height="9" rx="2" fill="#1CABE2"/>
<path fill-rule="evenodd" clip-rule="evenodd" d="M210.217 71H212H213H214.783C215.301 86.4188 217.707 101.085 222 115H228.5C237.06 115 244 121.94 244 130.5C244 139.06 237.06 146 228.5 146H195.5C186.94 146 180 139.06 180 130.5C180 121.94 186.94 115 195.5 115H203C209.44 94.1282 210.217 71 210.217 71Z" fill="#BDEBFF"/>
<path fill-rule="evenodd" clip-rule="evenodd" d="M176.622 1.67862C176.622 1.67862 193.811 0 211 0C228.189 0 245.378 1.67862 245.378 1.67862L250 81.1331C250 81.1331 230.5 83 211 83C191.5 83 172 81.1331 172 81.1331L176.622 1.67862Z" fill="#1CABE2"/>
<path fill-rule="evenodd" clip-rule="evenodd" d="M149 257V175V153H170H253H274V175V257H253V175H170V257H149Z" fill="white"/>
</svg>
