<svg width="280" height="368" viewBox="0 0 280 368" fill="none" xmlns="http://www.w3.org/2000/svg">
<path fill-rule="evenodd" clip-rule="evenodd" d="M127.405 64.8471C132.982 68.2112 138.462 69.8366 141.034 69.1731C147.484 67.5094 148.077 43.8971 143.086 34.5884C138.096 25.2797 112.44 21.2224 111.147 39.6659C110.698 46.0668 113.383 51.7792 117.352 56.4405L110.236 89.6299H130.905L127.405 64.8471Z" fill="#B28B67"/>
<path fill-rule="evenodd" clip-rule="evenodd" d="M134.922 24.45C132.097 23.5881 127.997 23.2959 126.273 23.4936C127.254 21.1413 127.643 18.5206 127.326 15.9688C127.017 13.4893 125.91 11.3781 124.886 9.16581C124.414 8.14609 123.879 7.13192 123.082 6.35195C122.269 5.55731 121.241 5.03279 120.163 4.78255C119.059 4.5264 117.905 4.54773 116.8 4.78019C116.311 4.88301 115.872 5.10671 115.393 5.23107C114.902 5.35848 114.664 5.05092 114.307 4.74184C113.448 3.99709 112.189 3.62944 111.102 3.49786C109.883 3.35029 108.618 3.53433 107.456 3.9354C106.324 4.32583 105.237 4.95985 104.418 5.88349C104.054 6.29463 103.723 6.7626 103.508 7.27927C103.42 7.4913 103.406 7.61691 103.194 7.69458C102.999 7.76649 102.77 7.76857 102.568 7.837C100.617 8.49839 98.9483 10.0072 98.0399 11.9445C97.5098 13.0746 97.2588 15.0645 97.3275 17.2948C97.3963 19.5251 99.4087 25.3446 101.291 27.4673C102.971 29.362 105.441 30.6123 107.824 31.1596C106.242 32.969 105.189 35.2301 104.41 37.5296C103.564 40.0275 103.041 42.623 102.848 45.2675C102.664 47.78 102.647 50.4371 103.236 52.896C103.786 55.1955 104.964 57.0819 106.93 58.2787C107.83 58.8269 108.799 59.2387 109.773 59.6151C110.734 59.986 111.697 60.3467 112.703 60.5548C114.607 60.9486 116.8 60.881 118.267 59.3645C118.796 58.8178 119.377 58.1309 119.762 57.4631C119.901 57.2229 119.985 57.0658 119.816 56.8311C119.614 56.5499 119.288 56.3345 119.029 56.1145C117.55 54.8605 116.635 53.1863 116.405 51.1967C116.171 49.178 116.713 46.5725 118.674 45.6915C121.095 44.6039 123.761 45.8522 125.913 47.0158C126.827 43.7859 128.705 40.8777 131.649 39.3961C134.906 37.757 138.643 37.5652 141.99 36.1589C142.863 35.7924 143.751 35.3764 144.393 34.6297C144.661 34.3176 144.976 33.9128 145.083 33.5001C145.224 32.9579 144.875 32.5033 144.605 32.0807C143.174 29.8395 137.746 25.3118 134.922 24.45Z" fill="#191847"/>
<path fill-rule="evenodd" clip-rule="evenodd" d="M116.181 311.981C152.805 311.981 182.495 283.621 182.495 248.637C182.495 213.653 152.805 185.293 116.181 185.293C79.5565 185.293 49.8667 213.653 49.8667 248.637C49.8667 283.621 79.5565 311.981 116.181 311.981Z" fill="#C8D9E7"/>
<path fill-rule="evenodd" clip-rule="evenodd" d="M211.612 245.259C214.815 256.487 222.795 277.768 233.83 302.208L244.315 299.147C235.142 242.908 227.507 205.676 223.134 194.344C220.245 186.856 198.385 187.734 200.9 202.799C201.955 209.117 206.127 226.034 211.612 245.259ZM168.513 205.426C151.413 208.971 115.958 221.504 105.834 225.509C99.4713 228.026 103.573 236.561 109.001 235.814C109.921 235.688 113.173 235.324 118.025 234.781C133.611 233.036 165.709 229.442 190.053 225.936C202.872 224.09 195.976 200.063 182.667 202.605C178.189 203.461 173.427 204.407 168.513 205.426Z" fill="#B28B67"/>
<path fill-rule="evenodd" clip-rule="evenodd" d="M223.805 187.997C222.057 182.288 142.586 162.023 142.586 162.023H136.073V168.096L190.836 195.993C190.763 196.894 190.808 197.845 190.984 198.848C190.589 219.529 199.434 234.979 208.191 250.276C213.918 260.279 219.607 270.216 222.65 281.508L242.77 278.505C242.183 277.005 241.257 270.241 239.99 260.994C236.795 237.679 231.436 198.572 223.918 188.226C223.892 188.19 223.865 188.154 223.838 188.118C223.828 188.078 223.817 188.037 223.805 187.997Z" fill="#38ABED"/>
<path fill-rule="evenodd" clip-rule="evenodd" d="M140.623 212.561C135.612 211.558 130.998 210.662 127.05 209.969C101.546 205.492 94.1088 191.831 98.506 162.023H145.496C153.172 164.23 193.063 180.971 213.761 189.875C227.459 195.768 223.141 217.012 215.384 222.541C215.341 222.88 215.202 223.11 214.953 223.213C185.542 235.412 160.461 234.502 144.355 233.917C137.61 233.672 132.438 233.485 129.183 234.341L124.082 218.239L140.623 212.561Z" fill="#5DC2FC"/>
<path fill-rule="evenodd" clip-rule="evenodd" d="M111.22 224.974C111.165 223.805 110.178 222.868 109.015 222.999C107.202 223.202 104.717 223.575 103.473 224.182C101.379 225.204 97.7026 227.863 97.7026 227.863C98.8873 230.293 118.996 271.552 118.996 271.552C118.996 271.552 125.452 270.509 124.113 266.621C122.773 262.733 121.952 260.129 121.952 260.129L121.106 235.55C121.086 234.987 120.606 234.551 120.044 234.586L116.386 234.816C116.386 234.816 113.147 232.193 112.112 230.069C111.518 228.851 111.299 226.639 111.22 224.974Z" fill="#E4F5FF"/>
<path fill-rule="evenodd" clip-rule="evenodd" d="M231.473 296.834C230.397 296.371 229.122 296.848 228.729 297.952C228.117 299.672 227.363 302.07 227.363 303.454C227.363 305.785 228.139 310.258 228.139 310.258C230.841 310.258 276.713 310.258 276.713 310.258C276.713 310.258 278.607 303.994 274.528 303.494C270.448 302.995 267.75 302.592 267.75 302.592L245.304 292.579C244.789 292.349 244.186 292.59 243.972 293.111L242.575 296.502C242.575 296.502 238.798 298.265 236.437 298.265C235.084 298.265 233.003 297.493 231.473 296.834Z" fill="#E4F5FF"/>
<path fill-rule="evenodd" clip-rule="evenodd" d="M209.001 170.327L181.53 150.14L175.457 165.163L202.661 176.451C210.355 185.495 214.657 189.265 215.568 187.762C216.335 186.494 215.735 185.307 215.182 184.214C214.752 183.363 214.35 182.568 214.646 181.836C215.321 180.164 220.49 180.34 225.387 180.717C230.284 181.094 228.857 178.913 227.676 177.837C222.677 174.842 216.452 172.339 209.001 170.327ZM64.9347 205.898C67.4585 200.774 76.0531 150.837 76.0531 150.837L94.0504 150.908C94.0504 150.908 77.3816 204.755 76.0531 208.05C74.3272 212.33 77.2588 218.548 79.2466 222.765C79.5542 223.417 79.8391 224.022 80.0807 224.564C77.3225 225.799 75.9975 224.306 74.6007 222.732C73.023 220.954 71.3535 219.073 67.4236 220.903C65.9053 221.61 64.4685 222.446 63.0648 223.262C58.2162 226.082 53.762 228.673 47.7026 224.932C46.7419 224.339 45.6893 222.105 48.2327 220.36C54.5694 216.012 63.7009 208.402 64.9347 205.898Z" fill="#B28B67"/>
<path fill-rule="evenodd" clip-rule="evenodd" d="M127.198 75.2652L134.645 73.9869C162.276 97.8728 173.625 143.76 207.494 168.069L199.342 178.181C140.586 170.901 126.023 114.929 127.198 75.2652Z" fill="#152FBF"/>
<path fill-rule="evenodd" clip-rule="evenodd" d="M94.7344 168.918C94.7344 168.918 139.525 168.918 160.628 168.918C163.639 168.918 163.071 164.567 162.636 162.372C157.613 137.034 138.003 109.721 138.003 73.6525L118.997 70.6699C103.276 95.9718 97.8389 127.123 94.7344 168.918Z" fill="#DDE3E9"/>
<path fill-rule="evenodd" clip-rule="evenodd" d="M97.2593 95.2431C93.8009 94.9957 90.6793 93.5475 88.706 89.9845C81.759 77.4405 84.2679 70.5341 91.6921 68.2639C95.7745 67.0156 99.614 67.8676 104.21 68.8876C107.972 69.7225 112.241 70.6699 117.566 70.6699C118.081 70.6699 118.551 70.7045 118.977 70.7706L125.283 71.1308C125.283 71.1308 150.891 157.978 139.408 187.017H87.3254C84.364 194.134 81.46 200.345 78.7236 205.115H64.5918C63.0714 155.921 81.6831 118.067 97.2593 95.2431Z" fill="#152FBF"/>
<path fill-rule="evenodd" clip-rule="evenodd" d="M87.3252 187.016C91.2108 177.678 95.1952 166.778 99.0296 155.521C100.457 167.917 102.834 180.369 106.792 187.016H87.3252Z" fill="black" fill-opacity="0.1"/>
</svg>
