<svg width="158" height="54" viewBox="0 0 158 54" fill="none" xmlns="http://www.w3.org/2000/svg">
<path d="M10.1456 53.9972C9.73734 53.9972 9.33896 53.9917 8.93391 53.9821C8.09484 53.9706 7.25772 53.8936 6.42943 53.7518C5.65709 53.6117 4.9089 53.351 4.20954 52.9784C3.51659 52.6088 2.88457 52.1242 2.33768 51.5432C1.78288 50.9691 1.32098 50.3031 0.970285 49.5718C0.615729 48.8357 0.370356 48.0468 0.242712 47.2324C0.104867 46.3573 0.0302879 45.4724 0.0196163 44.5854C0.0111213 44.2877 0 43.2964 0 43.2964V10.6856C0 10.6856 0.0118448 9.70951 0.0196833 9.42275C0.0299013 8.53718 0.104047 7.6537 0.241479 6.77997C0.369359 5.96334 0.614922 5.17208 0.969669 4.4336C1.31907 3.70279 1.77841 3.03635 2.32987 2.46013C2.88071 1.87843 3.51476 1.39137 4.20888 1.01671C4.90664 0.645275 5.65341 0.386426 6.42419 0.248839C7.2552 0.105645 8.09522 0.0282283 8.93721 0.0172367L10.1462 0H147.847L149.071 0.0179285C149.905 0.0283739 150.737 0.1051 151.561 0.247455C152.339 0.386768 153.094 0.647423 153.8 1.02085C155.19 1.77589 156.322 2.97043 157.036 4.43704C157.385 5.17043 157.626 5.95523 157.753 6.76481C157.892 7.64571 157.97 8.53613 157.986 9.42897C157.989 9.82876 157.989 10.2582 157.989 10.6856C158 11.215 158 11.7188 158 12.2268V41.7717C158 42.2845 158 42.785 157.989 43.2895C157.989 43.7486 157.989 44.1691 157.984 44.602C157.969 45.4789 157.892 46.3534 157.755 47.2185C157.63 48.0388 157.386 48.8339 157.032 49.576C156.678 50.2994 156.219 50.9596 155.671 51.5322C155.123 52.1164 154.49 52.6038 153.796 52.9757C153.092 53.3512 152.339 53.6128 151.561 53.7518C150.733 53.8944 149.895 53.9713 149.056 53.9821C148.664 53.9917 148.253 53.9972 147.854 53.9972L146.401 54L10.1456 53.9972Z" fill="black"/>
<path fill-rule="evenodd" clip-rule="evenodd" d="M78.5026 10.6387H77.3099V19.0412H78.5026V10.6387ZM48.7666 11.0333C49.8255 10.9573 50.8626 11.3601 51.5925 12.1309C52.3225 12.9017 52.6683 13.9592 52.5347 15.0124C52.5347 17.5708 51.152 19.0414 48.7666 19.0414H45.874V11.0333H48.7666ZM47.1178 17.9088H48.6277C49.3844 17.954 50.1212 17.6559 50.6335 17.0971C51.1458 16.5384 51.3791 15.7786 51.2686 15.0286C51.3711 14.2818 51.1344 13.5282 50.6234 12.974C50.1123 12.4199 49.3804 12.1231 48.6277 12.1648H47.1178V17.9088ZM55.2802 13.3118C54.3556 13.8855 53.8362 14.9339 53.9398 16.0171C53.8342 17.1015 54.3531 18.1519 55.2786 18.7269C56.204 19.3019 57.3756 19.3019 58.301 18.7269C59.2265 18.1519 59.7454 17.1015 59.6398 16.0171C59.7434 14.9339 59.224 13.8855 58.2994 13.3118C57.3748 12.738 56.2048 12.738 55.2802 13.3118ZM58.413 16.0168C58.413 14.7068 57.8245 13.9407 56.7917 13.9407C55.755 13.9407 55.1718 14.7068 55.1718 16.0168C55.1718 17.3373 55.755 18.0975 56.7917 18.0975C57.8245 18.0975 58.413 17.332 58.413 16.0168ZM65.9794 19.0413H67.2167L68.876 12.9978H67.6833L66.6059 17.6093H66.5116L65.2691 12.9978H64.1249L62.8824 17.6093H62.7933L61.7107 12.9978H60.5009L62.1668 19.0413H63.3922L64.636 14.5903H64.7304L65.9794 19.0413ZM70.2771 12.9979H71.4252V13.958H71.5143C71.8243 13.2511 72.5485 12.8187 73.3178 12.8812C73.9134 12.8365 74.4971 13.065 74.904 13.5022C75.311 13.9395 75.497 14.5381 75.4096 15.129V19.0412H74.2169V15.4285C74.2169 14.4573 73.7948 13.9743 72.9128 13.9743C72.5088 13.9555 72.1167 14.1141 71.8393 14.4085C71.5619 14.7028 71.427 15.1036 71.4697 15.5058V19.0413H70.2771L70.2771 12.9979ZM80.1607 16.0172C80.0572 14.9339 80.5767 13.8855 81.5014 13.3118C82.4261 12.738 83.5961 12.738 84.5208 13.3118C85.4455 13.8855 85.965 14.9339 85.8614 16.0172C85.9669 17.1016 85.4478 18.152 84.5224 18.727C83.5969 19.3019 82.4253 19.3019 81.4998 18.727C80.5743 18.152 80.0553 17.1016 80.1607 16.0172ZM83.0125 13.9407C84.0453 13.9407 84.6337 14.7068 84.6337 16.0168C84.6338 17.332 84.0453 18.0975 83.0125 18.0975C81.9758 18.0975 81.3926 17.3373 81.3926 16.0168C81.3926 14.7068 81.9758 13.9407 83.0125 13.9407ZM87.1168 17.3324C87.1168 16.2445 87.9268 15.6174 89.3646 15.5283L91.0016 15.4339V14.9123C91.0016 14.274 90.5796 13.9136 89.7644 13.9136C89.0986 13.9136 88.6372 14.158 88.5048 14.5853H87.3501C87.472 13.5472 88.4485 12.8814 89.8194 12.8814C91.3345 12.8814 92.1891 13.6357 92.1891 14.9123V19.0415H91.0409V18.1922H90.9466C90.5566 18.8124 89.8632 19.1749 89.1313 19.1411C88.6183 19.1944 88.1066 19.0283 87.7228 18.6837C87.339 18.3391 87.1189 17.8482 87.1168 17.3324ZM91.0016 16.3103V16.8156C90.9755 17.2008 90.7942 17.5588 90.4993 17.8079C90.2043 18.0569 89.8208 18.1756 89.4368 18.1367C88.7879 18.1367 88.3161 17.8202 88.3161 17.2763C88.3161 16.7435 88.6936 16.4604 89.5258 16.4047L91.0016 16.3103ZM93.7567 16.0169C93.7567 14.1073 94.7383 12.8976 96.2652 12.8976C97.0362 12.8621 97.7584 13.2752 98.1185 13.9579H98.2076V10.6387H99.4003V19.0412H98.2574V18.0864H98.1631C97.7757 18.7634 97.0447 19.1696 96.2653 19.1408C94.7279 19.1409 93.7567 17.9311 93.7567 16.0169ZM96.6034 18.0699C95.5929 18.0699 94.9887 17.2986 94.9887 16.0168C94.9887 14.7454 95.5994 13.9689 96.6034 13.9689C97.6021 13.9689 98.2299 14.7625 98.2299 16.022C98.2299 17.2875 97.6087 18.0699 96.6034 18.0699ZM104.335 16.0171C104.231 14.9339 104.751 13.8855 105.675 13.3118C106.6 12.738 107.77 12.738 108.695 13.3118C109.619 13.8855 110.139 14.9339 110.035 16.0171C110.141 17.1015 109.622 18.1519 108.696 18.7269C107.771 19.3019 106.599 19.3019 105.674 18.7269C104.748 18.1519 104.229 17.1015 104.335 16.0171ZM107.187 13.9407C108.22 13.9407 108.808 14.7068 108.808 16.0168C108.808 17.332 108.22 18.0975 107.187 18.0975C106.15 18.0975 105.567 17.3373 105.567 16.0168C105.567 14.7068 106.15 13.9407 107.187 13.9407ZM111.635 12.9979H112.783V13.958H112.872C113.182 13.2511 113.907 12.8187 114.676 12.8812C115.271 12.8365 115.855 13.065 116.262 13.5022C116.669 13.9395 116.855 14.5381 116.768 15.129V19.0412H115.575V15.4285C115.575 14.4573 115.153 13.9743 114.271 13.9743C113.867 13.9555 113.475 14.1141 113.197 14.4085C112.92 14.7028 112.785 15.1036 112.828 15.5058V19.0413H111.635V12.9979ZM123.507 13.0254V11.4933H122.313V13.0254H121.354V14.03H122.313V17.443C122.313 18.6081 122.841 19.0747 124.168 19.0747C124.385 19.0725 124.602 19.0521 124.816 19.0138V18.0203C124.665 18.0382 124.514 18.0474 124.362 18.0479C123.768 18.0479 123.507 17.7707 123.507 17.1376V14.0301H124.816V13.0254H123.507ZM126.446 10.6387H127.628V13.969H127.722C128.047 13.256 128.784 12.8231 129.565 12.8864C130.157 12.8542 130.733 13.0878 131.135 13.5234C131.538 13.9591 131.725 14.5516 131.646 15.1394V19.0413H130.452V15.4337C130.452 14.4684 130.003 13.9795 129.16 13.9795C128.745 13.9455 128.336 14.0963 128.043 14.3917C127.749 14.6871 127.601 15.097 127.638 15.5117V19.0412H126.446L126.446 10.6387ZM135.982 19.1582C137.163 19.2863 138.266 18.5498 138.6 17.4098L137.452 17.4098C137.166 17.923 136.598 18.2125 136.014 18.1424C135.564 18.1474 135.133 17.9624 134.827 17.6328C134.52 17.3032 134.367 16.8596 134.405 16.4111V16.3443H138.672V15.9281C138.672 14.0304 137.658 12.8815 135.976 12.8815C135.168 12.8746 134.397 13.2186 133.863 13.8244C133.328 14.4302 133.083 15.2381 133.19 16.0389C133.08 16.8375 133.326 17.6441 133.864 18.2448C134.401 18.8455 135.176 19.1795 135.982 19.1582ZM134.405 15.4616H137.458C137.488 15.0515 137.344 14.6475 137.061 14.3494C136.777 14.0512 136.381 13.8866 135.97 13.896C135.554 13.8908 135.152 14.0541 134.858 14.3488C134.563 14.6436 134.4 15.0449 134.405 15.4616ZM94.2428 35.6008C94.4276 37.2535 96.0332 38.3387 98.2272 38.3387C100.329 38.3387 101.842 37.2535 101.842 35.7633C101.842 34.4697 100.93 33.6951 98.7698 33.1643L96.6099 32.6439C93.5495 31.9047 92.1288 30.4735 92.1288 28.151C92.1288 25.2754 94.6347 23.3003 98.1931 23.3003C101.715 23.3003 104.129 25.2754 104.21 28.151H101.693C101.542 26.4878 100.167 25.4838 98.1577 25.4838C96.1485 25.4838 94.7736 26.4996 94.7736 27.978C94.7736 29.1563 95.6517 29.8496 97.7999 30.3804L99.6361 30.8312C103.056 31.6399 104.476 33.0135 104.476 35.4513C104.476 38.5693 101.993 40.5222 98.0424 40.5222C94.3463 40.5222 91.8509 38.6152 91.6896 35.6007L94.2428 35.6008ZM48.4212 35.7398H54.7739L56.2982 40.2445H59.0348L53.0176 23.5782H50.222L44.2048 40.2445H46.8956L48.4212 35.7398ZM54.1147 33.6611H49.0791L51.5629 26.3503H51.6323L54.1147 33.6611ZM72.0299 34.1699C72.0299 37.9458 70.0089 40.3719 66.959 40.3719C65.3825 40.4543 63.8976 39.6286 63.1358 38.246H63.0781V44.2645H60.584V28.0937H62.9982V30.1147H63.0441C63.8397 28.7407 65.3262 27.9154 66.9131 27.9665C69.997 27.9666 72.0299 30.4044 72.0299 34.1699ZM66.2552 30.0922C68.1949 30.0922 69.4662 31.7095 69.4662 34.1696C69.4662 36.652 68.1949 38.2575 66.2552 38.2575C64.3495 38.2575 63.0677 36.6179 63.0677 34.1696C63.0677 31.7436 64.3495 30.0922 66.2552 30.0922ZM85.4038 34.1698C85.4038 37.9458 83.3828 40.3718 80.3329 40.3718C78.7564 40.4543 77.2715 39.6286 76.5097 38.2459H76.452V44.2645H73.9578V28.0937H76.372V30.1147H76.4179C77.2135 28.7407 78.7001 27.9154 80.287 27.9665C83.371 27.9665 85.4038 30.4043 85.4038 34.1698ZM79.629 30.0922C81.5688 30.0922 82.8401 31.7095 82.8401 34.1696C82.8401 36.652 81.5688 38.2575 79.629 38.2575C77.7234 38.2575 76.4415 36.6179 76.4415 34.1696C76.4415 31.7436 77.7234 30.0922 79.629 30.0922ZM109.859 28.0933V25.2177H107.353V28.0933H105.586V30.0684H107.353V37.0332C107.353 39.3897 108.313 40.3137 110.773 40.3137C111.237 40.3224 111.701 40.2837 112.158 40.1984V38.235C111.886 38.2687 111.612 38.288 111.338 38.2928C110.322 38.2928 109.859 37.8078 109.859 36.7672V30.0684H112.17V28.0933H109.859ZM113.508 34.1694C113.508 30.3463 115.76 27.9439 119.271 27.9439C122.794 27.9439 125.035 30.3462 125.035 34.1694C125.035 38.0031 122.806 40.395 119.271 40.395C115.737 40.395 113.508 38.0031 113.508 34.1694ZM119.271 29.9989C121.292 29.9989 122.494 31.5468 122.494 34.1694C122.494 36.8025 121.292 38.3386 119.271 38.3386C117.25 38.3386 116.049 36.8025 116.049 34.1694C116.049 31.5586 117.25 29.9989 119.271 29.9989ZM127.092 28.0936H129.47V30.1618H129.528C129.86 28.8304 131.08 27.9141 132.451 27.9664C132.738 27.9654 133.025 27.9966 133.305 28.0595V30.3924C132.943 30.2816 132.564 30.2307 132.185 30.2417C131.451 30.212 130.742 30.5042 130.242 31.0417C129.743 31.5792 129.503 32.3082 129.586 33.0373V40.2446H127.092L127.092 28.0936ZM139.573 40.395C142.321 40.395 144.47 38.8812 144.805 36.6754L142.437 36.6754C141.982 37.8029 140.841 38.4979 139.631 38.3845C138.723 38.4179 137.845 38.0598 137.22 37.4013C136.594 36.7428 136.282 35.8474 136.362 34.9427V34.792H144.944V33.9375C144.944 30.2532 142.83 27.9439 139.468 27.9439C136.05 27.9439 133.844 30.4158 133.844 34.2271C133.844 38.0267 136.038 40.395 139.573 40.395ZM136.374 33.0488H142.449C142.494 32.236 142.198 31.4411 141.632 30.8557C141.066 30.2702 140.282 29.9474 139.468 29.9649C138.648 29.96 137.859 30.283 137.278 30.8621C136.697 31.4412 136.372 32.2285 136.374 33.0488ZM31.2424 26.5617C31.2717 24.2849 32.4654 22.1818 34.4051 20.9892C33.1758 19.2336 31.1907 18.1604 29.0486 18.0934C27.67 17.9487 26.3172 18.4856 25.2116 18.9244C24.5097 19.203 23.9075 19.442 23.4615 19.442C22.9542 19.442 22.3347 19.1931 21.6405 18.9143C20.7328 18.5497 19.6975 18.1339 18.6185 18.1561C16.1132 18.237 13.8343 19.6269 12.6154 21.8172C10.0198 26.3111 11.9559 32.9157 14.4423 36.5482C15.6863 38.327 17.1401 40.3139 19.0425 40.2434C19.9055 40.2076 20.5178 39.9499 21.1503 39.6838C21.8822 39.3757 22.641 39.0564 23.8464 39.0564C24.983 39.0564 25.7094 39.3658 26.4064 39.6627C27.0746 39.9474 27.7159 40.2206 28.6659 40.1986C30.6635 40.1662 31.9221 38.412 33.1224 36.6164C34.0162 35.3489 34.704 33.9481 35.1603 32.4659C32.7878 31.4624 31.2451 29.1377 31.2424 26.5617ZM29.072 11.019C29.202 12.7158 28.6654 14.3963 27.5762 15.7038C26.5195 17.0181 24.9184 17.7751 23.2321 17.7578C23.1249 16.1099 23.6771 14.4869 24.7671 13.2464C25.871 11.9891 27.408 11.1938 29.072 11.019Z" fill="white"/>
</svg>
