<svg width="47" height="18" viewBox="0 0 47 18" fill="none" xmlns="http://www.w3.org/2000/svg">
<g clip-path="url(#clip0)">
<path d="M8.7931 6.28128H11.3702V3.47017C11.3702 2.68508 10.9935 2.28832 10.2229 2.28832H9.93181C9.16982 2.28832 8.78454 2.68508 8.78454 3.47017V6.28128H8.7931ZM8.7931 8.07937L8.80167 11.1691C8.80167 11.9541 9.18694 12.3425 9.94893 12.3425H10.2828C11.0448 12.3425 11.4301 11.9541 11.4301 11.1691V9.64954H13.1852V11.0931C13.1852 13.0769 12.2092 14.0899 10.2743 14.0899H9.889C7.95406 14.0899 6.97803 13.0853 6.97803 11.3295V3.77407C6.97803 1.55389 7.95406 0.549316 9.889 0.549316H10.2743C12.2092 0.549316 13.1852 1.55389 13.1852 3.5377L13.1767 8.07093H8.7931V8.07937Z" fill="#1CABE2"/>
<path d="M16.1725 11.6333C16.6691 12.0723 17.2427 12.3171 17.842 12.3171C18.5098 12.3171 18.8951 11.9963 18.8951 11.2366V3.38573C18.8951 2.62597 18.5098 2.30519 17.842 2.30519C17.2427 2.30519 16.6691 2.55 16.1725 2.98897V11.6333ZM14.3574 0.701249H16.1725V1.56231C16.6006 1.09801 17.3369 0.557739 18.39 0.557739C19.9396 0.557739 20.7016 1.61296 20.7016 3.18313V11.4729C20.7016 13.0431 19.9396 14.0983 18.39 14.0983C17.3369 14.0983 16.6006 13.5834 16.1725 13.1444V17.416H14.3574V0.701249Z" fill="#1CABE2"/>
<path d="M26.1382 11.7093V7.34492L24.4943 7.9865C23.8265 8.25663 23.6125 8.60275 23.6125 9.36251V11.3716C23.6125 12.0132 23.9207 12.3256 24.4943 12.3256C25.0423 12.3256 25.5474 12.1314 26.1382 11.7093ZM21.7974 9.32874C21.7974 7.68259 22.3196 7.02414 23.7066 6.53451L26.1382 5.67345V3.47015C26.1382 2.68507 25.7529 2.27142 24.9909 2.27142H24.6998C23.9378 2.27142 23.5525 2.68507 23.5525 3.47015V5.34422H21.7888V3.54613C21.7888 1.56231 22.7648 0.557739 24.6998 0.557739H25.0423C26.9772 0.557739 27.9532 1.56231 27.9532 3.54613V13.9464H26.1382V13.1107C25.6416 13.6003 24.9652 14.0899 23.9207 14.0899C22.4652 14.0899 21.7974 13.2288 21.7974 11.76V9.32874Z" fill="#1CABE2"/>
<path d="M35.2823 13.9464H33.4672V3.27601C33.4672 2.61755 33.159 2.32209 32.6111 2.32209C32.1145 2.32209 31.5837 2.51625 30.9415 2.98055V13.9464H29.1265V0.701268H30.9415V1.56233C31.4724 1.04738 32.1573 0.549316 33.159 0.549316C34.0922 0.549316 34.7087 0.94608 35.0426 1.62986C35.6933 1.06426 36.4553 0.549316 37.4998 0.549316C38.9039 0.549316 39.6231 1.4357 39.6231 2.87924V13.938H37.808V3.27601C37.808 2.61755 37.4998 2.32209 36.9518 2.32209C36.4553 2.32209 35.9244 2.51625 35.2823 2.98055V13.9464Z" fill="#1CABE2"/>
<path d="M0 6.47543V8.26508L4.65755 12.7645V10.2742L1.6096 7.34493L4.65755 4.35654V1.91687L0 6.47543Z" fill="#1CABE2"/>
<path d="M41.9268 4.35654L44.9747 7.34493L41.9268 10.2827V12.7645L46.5843 8.26508V6.47543L41.9268 1.91687V4.35654Z" fill="#1CABE2"/>
</g>
<defs>
<clipPath id="clip0">
<rect width="46.5841" height="16.8667" fill="white" transform="translate(0 0.549316)"/>
</clipPath>
</defs>
</svg>
