<svg width="178" height="54" viewBox="0 0 178 54" fill="none" xmlns="http://www.w3.org/2000/svg">
<path d="M11.4298 53.9972C10.9699 53.9972 10.5211 53.9917 10.0648 53.9821C9.1195 53.9706 8.17642 53.8936 7.24328 53.7518C6.37318 53.6117 5.53028 53.351 4.74239 52.9784C3.96173 52.6088 3.2497 52.1242 2.63359 51.5432C2.00856 50.9691 1.48819 50.3031 1.09311 49.5718C0.69367 48.8357 0.417236 48.0468 0.273435 47.2324C0.118142 46.3573 0.0341218 45.4724 0.0220994 44.5854C0.012529 44.2877 0 43.2964 0 43.2964V10.6856C0 10.6856 0.0133442 9.70951 0.0221749 9.42275C0.0336862 8.53718 0.117218 7.6537 0.272046 6.77997C0.416113 5.96334 0.692761 5.17208 1.09241 4.4336C1.48604 3.70279 2.00352 3.03635 2.62479 2.46013C3.24536 1.87843 3.95966 1.39137 4.74165 1.01671C5.52773 0.645275 6.36903 0.386426 7.23738 0.248839C8.17358 0.105645 9.11993 0.0282283 10.0685 0.0172367L11.4306 0H166.562L167.94 0.0179285C168.88 0.0283739 169.818 0.1051 170.746 0.247455C171.623 0.386768 172.473 0.647423 173.268 1.02085C174.835 1.77589 176.109 2.97043 176.913 4.43704C177.307 5.17043 177.579 5.95523 177.721 6.76481C177.878 7.64571 177.966 8.53613 177.984 9.42897C177.988 9.82876 177.988 10.2582 177.988 10.6856C178 11.215 178 11.7188 178 12.2268V41.7717C178 42.2845 178 42.785 177.988 43.2895C177.988 43.7486 177.988 44.1691 177.982 44.602C177.965 45.4789 177.878 46.3534 177.724 47.2185C177.583 48.0388 177.308 48.8339 176.909 49.576C176.511 50.2994 175.994 50.9596 175.376 51.5322C174.759 52.1164 174.046 52.6038 173.264 52.9757C172.471 53.3512 171.622 53.6128 170.746 53.7518C169.813 53.8944 168.869 53.9713 167.924 53.9821C167.482 53.9917 167.019 53.9972 166.569 53.9972L164.933 54L11.4298 53.9972Z" fill="black"/>
<path fill-rule="evenodd" clip-rule="evenodd" d="M61.6914 30.1311V32.5611H67.4893C67.3984 33.7057 66.9254 34.7857 66.1472 35.6256C64.9742 36.8274 63.351 37.4747 61.678 37.4076C58.1201 37.4076 55.2359 34.5064 55.2359 30.9276C55.2359 27.3488 58.1201 24.4476 61.678 24.4476C63.3124 24.4208 64.8907 25.0471 66.0667 26.1891L67.7711 24.4746C66.1672 22.8409 63.9739 21.9302 61.6914 21.9501C58.4421 21.8229 55.384 23.4941 53.7218 26.3053C52.0595 29.1165 52.0595 32.6172 53.7218 35.4285C55.384 38.2397 58.4421 39.9108 61.6914 39.7836C64.0156 39.8893 66.2717 38.9786 67.8785 37.2861C69.2846 35.7322 70.0353 33.6894 69.9722 31.5891C69.9765 31.0775 69.9316 30.5666 69.838 30.0636L61.6914 30.1311ZM76.5753 28.3627C73.4268 28.3701 70.8798 30.9422 70.8848 34.1092C70.8897 37.2761 73.4447 39.8401 76.5932 39.8377C79.7416 39.8352 82.2927 37.2672 82.2927 34.1002C82.3148 32.5671 81.7172 31.0906 80.6368 30.009C79.5565 28.9274 78.0859 28.3333 76.5619 28.3627H76.5753ZM83.3933 34.1181C83.3835 30.9529 85.9238 28.3776 89.0704 28.3627C90.5944 28.3333 92.065 28.9274 93.1454 30.009C94.2258 31.0906 94.8233 32.5671 94.8012 34.1002C94.8012 37.2654 92.2529 39.8327 89.1062 39.8376C85.9595 39.8426 83.4032 37.2833 83.3933 34.1181ZM85.7045 35.6099C86.3174 36.9003 87.6522 37.6828 89.0705 37.583C89.9607 37.5622 90.8048 37.1807 91.4113 36.5249C92.0178 35.869 92.3352 34.9946 92.2915 34.1C92.2881 32.6699 91.4159 31.3872 90.0921 30.8655C88.7683 30.3438 87.262 30.6891 86.2936 31.7362C85.3253 32.7833 85.0916 34.3195 85.7045 35.6099ZM73.2002 35.6203C73.8174 36.9099 75.1561 37.6884 76.5751 37.583H76.5617C77.4519 37.5623 78.296 37.1807 78.9025 36.5249C79.509 35.8691 79.8264 34.9946 79.7827 34.1C79.7789 32.6688 78.9049 31.3856 77.5795 30.865C76.254 30.3445 74.7469 30.6925 73.7799 31.7425C72.813 32.7925 72.583 34.3306 73.2002 35.6203ZM117.617 28.3621C119.842 28.4446 121.786 29.9001 122.502 32.0206L122.784 32.6281L115.147 35.8006C115.626 36.8971 116.723 37.5878 117.912 37.5421C119.061 37.5451 120.126 36.94 120.717 35.9491L122.663 37.2991C121.604 38.8941 119.819 39.8475 117.912 39.8371C116.396 39.8595 114.937 39.2609 113.869 38.1788C112.8 37.0967 112.216 35.6242 112.249 34.0996C112.156 32.61 112.68 31.1481 113.697 30.0612C114.714 28.9742 116.133 28.3592 117.617 28.3621ZM114.718 33.9379C114.663 33.0944 114.948 32.2641 115.508 31.6343C116.069 31.0044 116.858 30.628 117.697 30.5899C118.582 30.5313 119.417 31.0094 119.818 31.8049L114.718 33.9379ZM111.027 39.5H108.517V22.625H111.027V39.5ZM104.411 29.6449H104.317C103.552 28.7845 102.458 28.2933 101.31 28.2949C98.2639 28.4434 95.8699 30.9712 95.8699 34.0391C95.8699 37.107 98.2639 39.6348 101.31 39.7834C102.462 39.8028 103.562 39.3085 104.317 38.4334H104.397V39.2569C104.397 41.4574 103.23 42.6319 101.351 42.6319C100.071 42.6017 98.9358 41.7962 98.4785 40.5934L96.2908 41.5114C97.1333 43.5725 99.1351 44.9132 101.351 44.8999C104.29 44.8999 106.719 43.1584 106.719 38.9194V28.6999H104.411V29.6449ZM101.534 37.5822L101.538 37.5825H101.525L101.534 37.5822ZM103.796 36.4995C103.22 37.1551 102.403 37.546 101.534 37.5822C99.7416 37.4211 98.3674 35.9102 98.3674 34.0995C98.3674 32.2874 99.7438 30.7756 101.538 30.6165C102.405 30.6613 103.218 31.0563 103.792 31.712C104.365 32.3678 104.651 33.2287 104.585 34.0995C104.659 34.9744 104.374 35.8416 103.796 36.4995ZM134.259 22.6253H128.26V39.5003H130.77V33.1013H134.272C136.222 33.2422 138.087 32.2757 139.104 30.597C140.122 28.9182 140.122 26.8083 139.104 25.1295C138.087 23.4508 136.222 22.4844 134.272 22.6253H134.259ZM130.756 30.7252H134.259L134.313 30.7657C135.903 30.7657 137.192 29.4692 137.192 27.8699C137.192 26.2706 135.903 24.9742 134.313 24.9742H130.756V30.7252ZM149.733 28.295C147.866 28.1827 146.111 29.1955 145.264 30.8735L147.492 31.805C147.941 30.9729 148.836 30.4858 149.774 30.563C150.417 30.4874 151.064 30.675 151.569 31.0837C152.074 31.4924 152.394 32.0879 152.458 32.7365V32.912C151.652 32.4827 150.753 32.2601 149.841 32.264C147.438 32.264 145.009 33.614 145.009 36.0575C145.057 37.1101 145.526 38.0984 146.31 38.7977C147.094 39.4969 148.125 39.8476 149.17 39.77C150.457 39.8629 151.692 39.2417 152.391 38.15H152.471V39.5H154.887V33.0065C154.887 30.05 152.659 28.3355 149.801 28.3355L149.733 28.295ZM147.465 36.1118C147.465 37.1243 148.606 37.5428 149.425 37.5428L149.492 37.5833C151.004 37.5462 152.258 36.3945 152.431 34.8833C151.735 34.4923 150.947 34.2965 150.15 34.3163C148.888 34.3163 147.465 34.7618 147.465 36.1118ZM163.691 28.6996L160.819 36.0166H160.739L157.759 28.6996H155.075L159.544 38.9326L156.994 44.6161H159.611L166.483 28.6996H163.691ZM143.64 39.5H141.131V22.625H143.64V39.5Z" fill="white"/>
<path fill-rule="evenodd" clip-rule="evenodd" d="M90.5064 15.497C92.1398 17.1308 94.7784 17.1308 96.4117 15.497C98.0018 13.8139 98.0018 11.1726 96.4117 9.48949C95.6306 8.69804 94.5678 8.25293 93.4591 8.25293C92.3504 8.25293 91.2876 8.69804 90.5064 9.48949C88.9231 11.1753 88.9231 13.8112 90.5064 15.497ZM60.2552 15.5249C60.9441 14.8015 61.3079 13.8256 61.2618 12.8249C61.2619 12.6212 61.2439 12.4179 61.2081 12.2174H57.3026V13.1894H60.2149C60.1951 13.8016 59.9569 14.3862 59.5439 14.8364C58.624 15.7309 57.2595 15.9808 56.0852 15.4699C54.9109 14.9591 54.1575 13.7877 54.1755 12.5009C54.1463 11.6494 54.4632 10.8226 55.0533 10.2112C55.6433 9.59989 56.4555 9.25674 57.3026 9.26092C58.1453 9.2146 58.9605 9.56963 59.5036 10.2194L60.2149 9.50392C59.8713 9.10642 59.439 8.79646 58.9534 8.59942C58.4317 8.37487 57.87 8.26002 57.3026 8.26192C56.1894 8.23696 55.1157 8.67681 54.3365 9.47692C53.1374 10.691 52.7787 12.5098 53.4262 14.0925C54.0737 15.6751 55.6012 16.713 57.3026 16.7264C58.4118 16.7661 59.4854 16.3293 60.2552 15.5249ZM63.7851 9.44879H67.4088V8.44979H62.7114V16.5498H67.4088V15.5508H63.7851V12.9858H67.0867V12.0138H63.7851V9.44879ZM71.8106 16.5498H70.7772V9.44879H68.5225V8.44979H74.119V9.44879H71.8106V16.5498ZM78.0652 8.44979V16.5498H79.0986V8.44979H78.0652ZM83.6885 16.5498H82.6551V9.44879H80.4004V8.44979H85.9299V9.44879H83.6885V16.5498ZM91.2711 14.8218C92.4808 16.0335 94.4367 16.0335 95.6464 14.8218C96.8344 13.5045 96.8344 11.4952 95.6464 10.1778C94.4367 8.96611 92.4808 8.96611 91.2711 10.1778C90.0831 11.4952 90.0831 13.5045 91.2711 14.8218ZM99.0554 8.44979V16.5498H100.102V9.94829L104.196 16.5498H105.269V8.44979H104.236V14.7543L100.317 8.44979H99.0554Z" fill="white"/>
<path d="M96.4117 15.497L96.4825 15.5677L96.4844 15.5657L96.4117 15.497ZM90.5064 15.497L90.4335 15.5655L90.4357 15.5677L90.5064 15.497ZM96.4117 9.48949L96.4844 9.4208L96.4829 9.41924L96.4117 9.48949ZM90.5064 9.48949L90.4352 9.41922L90.4336 9.42103L90.5064 9.48949ZM61.2618 12.8249L61.1617 12.8249L61.1619 12.8295L61.2618 12.8249ZM60.2552 15.5249L60.3275 15.5941L60.3276 15.5939L60.2552 15.5249ZM61.2081 12.2174L61.3065 12.1998L61.2918 12.1174H61.2081V12.2174ZM57.3026 12.2174V12.1174H57.2026V12.2174H57.3026ZM57.3026 13.1894H57.2026V13.2894H57.3026V13.1894ZM60.2149 13.1894L60.3149 13.1927L60.3182 13.0894H60.2149V13.1894ZM59.5439 14.8364L59.6137 14.9082L59.6176 14.904L59.5439 14.8364ZM56.0852 15.4699L56.1251 15.3782H56.1251L56.0852 15.4699ZM54.1755 12.5009L54.2756 12.5023L54.2754 12.4975L54.1755 12.5009ZM55.0533 10.2112L54.9813 10.1418L55.0533 10.2112ZM57.3026 9.26092L57.3021 9.3611L57.3081 9.36077L57.3026 9.26092ZM59.5036 10.2194L59.4269 10.2835L59.4972 10.3677L59.5745 10.2899L59.5036 10.2194ZM60.2149 9.50392L60.2859 9.57442L60.3512 9.50867L60.2906 9.43852L60.2149 9.50392ZM58.9534 8.59942L58.9138 8.69129L58.9158 8.69208L58.9534 8.59942ZM57.3026 8.26192L57.3003 8.36193L57.3029 8.36192L57.3026 8.26192ZM54.3365 9.47692L54.4077 9.54719L54.4082 9.54668L54.3365 9.47692ZM53.4262 14.0925L53.5187 14.0546L53.4262 14.0925ZM57.3026 16.7264L57.3062 16.6264L57.3034 16.6264L57.3026 16.7264ZM67.4088 9.44879V9.54879H67.5088V9.44879H67.4088ZM63.7851 9.44879V9.34879H63.6851V9.44879H63.7851ZM67.4088 8.44979H67.5088V8.34979H67.4088V8.44979ZM62.7114 8.44979V8.34979H62.6114V8.44979H62.7114ZM62.7114 16.5498H62.6114V16.6498H62.7114V16.5498ZM67.4088 16.5498V16.6498H67.5088V16.5498H67.4088ZM67.4088 15.5508H67.5088V15.4508H67.4088V15.5508ZM63.7851 15.5508H63.6851V15.6508H63.7851V15.5508ZM63.7851 12.9858V12.8858H63.6851V12.9858H63.7851ZM67.0867 12.9858V13.0858H67.1867V12.9858H67.0867ZM67.0867 12.0138H67.1867V11.9138H67.0867V12.0138ZM63.7851 12.0138H63.6851V12.1138H63.7851V12.0138ZM70.7772 16.5498H70.6772V16.6498H70.7772V16.5498ZM71.8106 16.5498V16.6498H71.9106V16.5498H71.8106ZM70.7772 9.44879H70.8772V9.34879H70.7772V9.44879ZM68.5225 9.44879H68.4225V9.54879H68.5225V9.44879ZM68.5225 8.44979V8.34979H68.4225V8.44979H68.5225ZM74.119 8.44979H74.219V8.34979H74.119V8.44979ZM74.119 9.44879V9.54879H74.219V9.44879H74.119ZM71.8106 9.44879V9.34879H71.7106V9.44879H71.8106ZM78.0652 16.5498H77.9652V16.6498H78.0652V16.5498ZM78.0652 8.44979V8.34979H77.9652V8.44979H78.0652ZM79.0986 16.5498V16.6498H79.1986V16.5498H79.0986ZM79.0986 8.44979H79.1986V8.34979H79.0986V8.44979ZM82.6551 16.5498H82.5551V16.6498H82.6551V16.5498ZM83.6885 16.5498V16.6498H83.7885V16.5498H83.6885ZM82.6551 9.44879H82.7551V9.34879H82.6551V9.44879ZM80.4004 9.44879H80.3004V9.54879H80.4004V9.44879ZM80.4004 8.44979V8.34979H80.3004V8.44979H80.4004ZM85.9299 8.44979H86.0299V8.34979H85.9299V8.44979ZM85.9299 9.44879V9.54879H86.0299V9.44879H85.9299ZM83.6885 9.44879V9.34879H83.5885V9.44879H83.6885ZM95.6464 14.8218L95.7173 14.8926L95.7207 14.8888L95.6464 14.8218ZM91.2711 14.8218L91.1968 14.8889L91.2004 14.8925L91.2711 14.8218ZM95.6464 10.1778L95.7208 10.1108L95.7172 10.1072L95.6464 10.1778ZM91.2711 10.1778L91.2003 10.1071L91.1969 10.1108L91.2711 10.1778ZM99.0554 16.5498H98.9554V16.6498H99.0554V16.5498ZM99.0554 8.44979V8.34979H98.9554V8.44979H99.0554ZM100.102 16.5498V16.6498H100.202V16.5498H100.102ZM100.102 9.94829L100.187 9.89559L100.002 9.59726V9.94829H100.102ZM104.196 16.5498L104.111 16.6025L104.14 16.6498H104.196V16.5498ZM105.269 16.5498V16.6498H105.369V16.5498H105.269ZM105.269 8.44979H105.369V8.34979H105.269V8.44979ZM104.236 8.44979V8.34979H104.136V8.44979H104.236ZM104.236 14.7543L104.151 14.8071L104.336 15.1046V14.7543H104.236ZM100.317 8.44979L100.402 8.397L100.373 8.34979H100.317V8.44979ZM96.341 15.4263C94.7467 17.021 92.1715 17.021 90.5772 15.4263L90.4357 15.5677C92.1081 17.2406 94.81 17.2406 96.4824 15.5677L96.341 15.4263ZM96.339 9.55816C97.8927 11.2027 97.8927 13.7837 96.339 15.4283L96.4844 15.5657C98.1109 13.844 98.1109 11.1425 96.4844 9.42081L96.339 9.55816ZM93.4591 8.35293C94.5409 8.35293 95.5782 8.78726 96.3405 9.55973L96.4829 9.41924C95.6831 8.60882 94.5946 8.15293 93.4591 8.15293V8.35293ZM90.5776 9.55973C91.34 8.78726 92.3772 8.35293 93.4591 8.35293V8.15293C92.3235 8.15293 91.2351 8.60882 90.4353 9.41924L90.5776 9.55973ZM90.5793 15.4285C89.0322 13.7812 89.0322 11.2053 90.5793 9.55795L90.4336 9.42103C88.8141 11.1453 88.8141 13.8411 90.4336 15.5654L90.5793 15.4285ZM61.1619 12.8295C61.2067 13.803 60.8528 14.7523 60.1828 15.456L60.3276 15.5939C61.0354 14.8506 61.409 13.8481 61.3617 12.8203L61.1619 12.8295ZM61.1097 12.235C61.1444 12.4297 61.1619 12.6271 61.1618 12.8249L61.3618 12.825C61.3619 12.6154 61.3434 12.4062 61.3065 12.1998L61.1097 12.235ZM57.3026 12.3174H61.2081V12.1174H57.3026V12.3174ZM57.4026 13.1894V12.2174H57.2026V13.1894H57.4026ZM60.2149 13.0894H57.3026V13.2894H60.2149V13.0894ZM59.6176 14.904C60.0468 14.4362 60.2942 13.8287 60.3149 13.1927L60.115 13.1862C60.0959 13.7746 59.867 14.3363 59.4702 14.7688L59.6176 14.904ZM56.0453 15.5616C57.2569 16.0887 58.6647 15.8308 59.6136 14.9081L59.4742 14.7647C58.5833 15.6309 57.2621 15.8729 56.1251 15.3782L56.0453 15.5616ZM54.0755 12.4995C54.0569 13.8264 54.8338 15.0346 56.0453 15.5616L56.1251 15.3782C54.988 14.8835 54.258 13.7491 54.2755 12.5023L54.0755 12.4995ZM54.9813 10.1418C54.3724 10.7727 54.0454 11.6258 54.0755 12.5043L54.2754 12.4975C54.2471 11.6729 54.554 10.8725 55.1252 10.2807L54.9813 10.1418ZM57.3031 9.16092C56.4286 9.15661 55.5902 9.51086 54.9813 10.1418L55.1252 10.2807C55.6964 9.68891 56.4824 9.35687 57.3021 9.36092L57.3031 9.16092ZM59.5804 10.1553C59.0171 9.48139 58.1714 9.11301 57.2971 9.16107L57.3081 9.36077C58.1191 9.31619 58.904 9.65787 59.4269 10.2835L59.5804 10.1553ZM60.144 9.43342L59.4327 10.1489L59.5745 10.2899L60.2859 9.57442L60.144 9.43342ZM58.9158 8.69208C59.3867 8.88315 59.806 9.18376 60.1393 9.56931L60.2906 9.43852C59.9367 9.02908 59.4913 8.70976 58.991 8.50676L58.9158 8.69208ZM57.3029 8.36192C57.8566 8.36006 58.4048 8.47214 58.9138 8.69127L58.9929 8.50757C58.4587 8.2776 57.8833 8.15997 57.3022 8.16192L57.3029 8.36192ZM54.4082 9.54668C55.168 8.7664 56.215 8.33756 57.3003 8.36189L57.3048 8.16194C56.1638 8.13637 55.0633 8.58722 54.2649 9.40715L54.4082 9.54668ZM53.5187 14.0546C52.8863 12.509 53.2368 10.7327 54.4077 9.54719L54.2654 9.40665C53.038 10.6493 52.671 12.5107 53.3336 14.1303L53.5187 14.0546ZM57.3034 16.6264C55.6426 16.6133 54.1511 15.6001 53.5187 14.0546L53.3336 14.1303C53.9963 15.75 55.5599 16.8127 57.3018 16.8264L57.3034 16.6264ZM60.183 15.4558C59.4329 16.2396 58.3868 16.6652 57.3062 16.6265L57.299 16.8264C58.4368 16.8671 59.538 16.4189 60.3275 15.5941L60.183 15.4558ZM67.4088 9.34879H63.7851V9.54879H67.4088V9.34879ZM67.3088 8.44979V9.44879H67.5088V8.44979H67.3088ZM62.7114 8.54979H67.4088V8.34979H62.7114V8.54979ZM62.8114 16.5498V8.44979H62.6114V16.5498H62.8114ZM67.4088 16.4498H62.7114V16.6498H67.4088V16.4498ZM67.3088 15.5508V16.5498H67.5088V15.5508H67.3088ZM63.7851 15.6508H67.4088V15.4508H63.7851V15.6508ZM63.6851 12.9858V15.5508H63.8851V12.9858H63.6851ZM67.0867 12.8858H63.7851V13.0858H67.0867V12.8858ZM66.9867 12.0138V12.9858H67.1867V12.0138H66.9867ZM63.7851 12.1138H67.0867V11.9138H63.7851V12.1138ZM63.6851 9.44879V12.0138H63.8851V9.44879H63.6851ZM70.7772 16.6498H71.8106V16.4498H70.7772V16.6498ZM70.6772 9.44879V16.5498H70.8772V9.44879H70.6772ZM68.5225 9.54879H70.7772V9.34879H68.5225V9.54879ZM68.4225 8.44979V9.44879H68.6225V8.44979H68.4225ZM74.119 8.34979H68.5225V8.54979H74.119V8.34979ZM74.219 9.44879V8.44979H74.019V9.44879H74.219ZM71.8106 9.54879H74.119V9.34879H71.8106V9.54879ZM71.9106 16.5498V9.44879H71.7106V16.5498H71.9106ZM78.1652 16.5498V8.44979H77.9652V16.5498H78.1652ZM79.0986 16.4498H78.0652V16.6498H79.0986V16.4498ZM78.9986 8.44979V16.5498H79.1986V8.44979H78.9986ZM78.0652 8.54979H79.0986V8.34979H78.0652V8.54979ZM82.6551 16.6498H83.6885V16.4498H82.6551V16.6498ZM82.5551 9.44879V16.5498H82.7551V9.44879H82.5551ZM80.4004 9.54879H82.6551V9.34879H80.4004V9.54879ZM80.3004 8.44979V9.44879H80.5004V8.44979H80.3004ZM85.9299 8.34979H80.4004V8.54979H85.9299V8.34979ZM86.0299 9.44879V8.44979H85.8299V9.44879H86.0299ZM83.6885 9.54879H85.9299V9.34879H83.6885V9.54879ZM83.7885 16.5498V9.44879H83.5885V16.5498H83.7885ZM95.5756 14.7512C94.405 15.9238 92.5125 15.9238 91.3419 14.7512L91.2004 14.8925C92.4491 16.1433 94.4684 16.1433 95.7172 14.8925L95.5756 14.7512ZM95.5722 10.2448C96.7259 11.5241 96.7259 13.4755 95.5722 14.7549L95.7207 14.8888C96.943 13.5334 96.943 11.4663 95.7207 10.1108L95.5722 10.2448ZM91.3419 10.2485C92.5125 9.07589 94.405 9.07589 95.5756 10.2485L95.7172 10.1072C94.4684 8.85633 92.4491 8.85633 91.2004 10.1072L91.3419 10.2485ZM91.3454 14.7549C90.1917 13.4755 90.1917 11.5241 91.3454 10.2448L91.1969 10.1108C89.9745 11.4663 89.9745 13.5334 91.1969 14.8888L91.3454 14.7549ZM99.1554 16.5498V8.44979H98.9554V16.5498H99.1554ZM100.102 16.4498H99.0554V16.6498H100.102V16.4498ZM100.002 9.94829V16.5498H100.202V9.94829H100.002ZM104.281 16.4971L100.187 9.89559L100.017 10.001L104.111 16.6025L104.281 16.4971ZM105.269 16.4498H104.196V16.6498H105.269V16.4498ZM105.169 8.44979V16.5498H105.369V8.44979H105.169ZM104.236 8.54979H105.269V8.34979H104.236V8.54979ZM104.336 14.7543V8.44979H104.136V14.7543H104.336ZM100.232 8.50259L104.151 14.8071L104.321 14.7015L100.402 8.397L100.232 8.50259ZM99.0554 8.54979H100.317V8.34979H99.0554V8.54979Z" fill="white"/>
<path d="M11.631 9.18019C11.1935 9.70819 10.9727 10.3841 11.0136 11.0702V40.9322C10.9727 41.6183 11.1935 42.2942 11.631 42.8222L11.7249 42.9167L28.3536 26.2037V25.8122L11.7249 9.08569L11.631 9.18019Z" fill="url(#paint0_linear)"/>
<path d="M33.8561 31.7789L28.3535 26.2034V25.8119L33.8561 20.2229L33.9769 20.2904L40.5667 24.0569C42.4456 25.1234 42.4456 26.8784 40.5667 27.9584L34.0038 31.7114L33.8561 31.7789Z" fill="url(#paint1_linear)"/>
<path d="M34.0172 31.6975L28.3535 26.0005L11.6309 42.8215C12.421 43.5201 13.5936 43.5542 14.4224 42.9025L34.0306 31.6975" fill="url(#paint2_linear)"/>
<path d="M34.0169 20.3034L14.4088 9.09839C13.5799 8.44671 12.4073 8.48073 11.6172 9.17939L28.3532 26.0004L34.0169 20.3034Z" fill="url(#paint3_linear)"/>
<path opacity="0.2" d="M33.8561 31.5759L14.409 42.7134C13.6132 43.3119 12.5206 43.3119 11.7248 42.7134L11.6309 42.8079L11.7248 42.9024C12.5191 43.5054 13.6147 43.5054 14.409 42.9024L34.0172 31.6974L33.8561 31.5759Z" fill="black"/>
<path opacity="0.12" fill-rule="evenodd" clip-rule="evenodd" d="M33.8564 31.576L40.5669 27.7555C41.2604 27.4112 41.756 26.763 41.909 26.0005C41.8398 26.8434 41.328 27.5849 40.5669 27.9445L33.9772 31.6975L33.8564 31.576ZM11.0107 41.0053C11.0328 41.5993 11.2495 42.1722 11.631 42.6325L11.7249 42.7405L11.631 42.835C11.2063 42.3225 10.9859 41.6706 11.0107 41.0053ZM11.0107 41.0053C11.0114 40.9853 11.0124 40.9652 11.0136 40.945V40.7425C11.0084 40.8304 11.0074 40.9181 11.0107 41.0053Z" fill="black"/>
<path opacity="0.25" d="M14.4089 9.28728L40.5666 24.2453C41.2601 24.5896 41.7557 25.2378 41.9087 26.0003C41.8395 25.1573 41.3277 24.4159 40.5666 24.0563L14.4089 9.09828C12.53 8.03178 11 8.92278 11 11.0828V11.2853C11.0403 9.11178 12.5434 8.22078 14.4089 9.28728Z" fill="white"/>
<defs>
<linearGradient id="paint0_linear" x1="21.0703" y1="-11.2034" x2="-5.57683" y2="-4.158" gradientUnits="userSpaceOnUse">
<stop stop-color="#00A0FF"/>
<stop offset="0.01" stop-color="#00A1FF"/>
<stop offset="0.26" stop-color="#00BEFF"/>
<stop offset="0.51" stop-color="#00D2FF"/>
<stop offset="0.76" stop-color="#00DFFF"/>
<stop offset="1" stop-color="#00E3FF"/>
</linearGradient>
<linearGradient id="paint1_linear" x1="43.0227" y1="12.2305" x2="10.5572" y2="12.2305" gradientUnits="userSpaceOnUse">
<stop stop-color="#FFE000"/>
<stop offset="0.41" stop-color="#FFBD00"/>
<stop offset="0.78" stop-color="#FFA500"/>
<stop offset="1" stop-color="#FF9C00"/>
</linearGradient>
<linearGradient id="paint2_linear" x1="11.1395" y1="17.2627" x2="-10.4348" y2="53.3404" gradientUnits="userSpaceOnUse">
<stop stop-color="#FF3A44"/>
<stop offset="1" stop-color="#C31162"/>
</linearGradient>
<linearGradient id="paint3_linear" x1="-1.42805" y1="4.52999" x2="8.20172" y2="20.6405" gradientUnits="userSpaceOnUse">
<stop stop-color="#32A071"/>
<stop offset="0.07" stop-color="#2DA771"/>
<stop offset="0.48" stop-color="#15CF74"/>
<stop offset="0.8" stop-color="#06E775"/>
<stop offset="1" stop-color="#00F076"/>
</linearGradient>
</defs>
</svg>
