<svg width="48" height="48" viewBox="0 0 48 48" fill="none" xmlns="http://www.w3.org/2000/svg">
<path fill-rule="evenodd" clip-rule="evenodd" d="M27.7556 15H20.4115C17.4228 15 15 17.4228 15 20.4115V27.7556C15 30.7443 17.4228 33.167 20.4115 33.167H27.7556C30.7443 33.167 33.167 30.7443 33.167 27.7556V20.4115C33.167 17.4228 30.7443 15 27.7556 15ZM16.6753 20.4112C16.6753 18.3476 18.3482 16.6747 20.4118 16.6747H27.7559C29.8195 16.6747 31.4924 18.3476 31.4924 20.4112V27.7553C31.4924 29.8189 29.8195 31.4918 27.7559 31.4918H20.4118C18.3482 31.4918 16.6753 29.8189 16.6753 27.7553V20.4112ZM28.8505 20.2438C29.4553 20.2438 29.9457 19.7535 29.9457 19.1486C29.9457 18.5438 29.4553 18.0535 28.8505 18.0535C28.2456 18.0535 27.7553 18.5438 27.7553 19.1486C27.7553 19.7535 28.2456 20.2438 28.8505 20.2438ZM24.1472 28.6575C26.6377 28.6575 28.6567 26.6385 28.6567 24.148C28.6567 21.6574 26.6377 19.6384 24.1472 19.6384C21.6566 19.6384 19.6376 21.6574 19.6376 24.148C19.6376 26.6385 21.6566 28.6575 24.1472 28.6575ZM24.1469 27.1119C22.5103 27.1119 21.1835 25.7851 21.1835 24.1485C21.1835 22.5118 22.5103 21.185 24.1469 21.185C25.7836 21.185 27.1103 22.5118 27.1103 24.1485C27.1103 25.7851 25.7836 27.1119 24.1469 27.1119Z" fill="#152FBF"/>
</svg>
