<svg width="48" height="48" viewBox="0 0 48 48" fill="none" xmlns="http://www.w3.org/2000/svg">
<path fill-rule="evenodd" clip-rule="evenodd" d="M32.8694 18.613C32.2496 18.8866 31.5822 19.0716 30.8821 19.1543C31.597 18.7291 32.1456 18.055 32.404 17.2519C31.7347 17.6456 30.995 17.932 30.2049 18.0855C29.5751 17.4173 28.6751 17 27.679 17C25.7689 17 24.2193 18.5402 24.2193 20.4395C24.2193 20.7092 24.249 20.971 24.3085 21.2229C21.432 21.0792 18.8824 19.7113 17.1743 17.6279C16.8763 18.1377 16.706 18.7291 16.706 19.359C16.706 20.5517 17.3169 21.6047 18.2457 22.2218C17.6783 22.2051 17.1446 22.0486 16.6773 21.7927V21.835C16.6773 23.5021 17.8704 24.8927 19.4547 25.2076C19.1636 25.2883 18.8586 25.3287 18.5427 25.3287C18.319 25.3287 18.1021 25.308 17.8912 25.2677C18.3318 26.6337 19.6091 27.6286 21.1241 27.6552C19.9399 28.5783 18.4467 29.1284 16.8258 29.1284C16.5466 29.1284 16.2703 29.1127 16 29.0812C17.5318 30.0555 19.3507 30.6253 21.3053 30.6253C27.672 30.6253 31.1525 25.3848 31.1525 20.8391C31.1525 20.6895 31.1495 20.5399 31.1435 20.3933C31.8198 19.9081 32.407 19.3019 32.8694 18.613Z" fill="#152FBF"/>
</svg>
