<svg width="150" height="112" viewBox="0 0 150 112" fill="none" xmlns="http://www.w3.org/2000/svg">
    <g clip-path="url(#clip0)">
        <path d="M146.987 103.912C145.901 103.972 144.612 103.824 143.614 104.255C142.724 104.626 142.116 105.396 142.116 106.407C142.116 107.864 143.215 108.708 144.598 108.708C145.609 108.708 146.602 108.114 146.931 107.488L146.978 107.386H147.006L147.033 108.485H147.952C147.924 107.98 147.864 107.386 147.878 106.806V103.272C147.906 101.565 146.88 100.809 145.233 100.809C143.809 100.809 142.663 101.389 142.441 102.919H143.392C143.508 101.908 144.282 101.625 145.22 101.625C146.273 101.625 146.899 102.01 146.987 103.23V103.912ZM143.081 106.407C143.081 104.538 145.725 104.775 146.987 104.728C147.075 106.287 146.704 107.892 144.76 107.892C143.856 107.892 143.081 107.414 143.081 106.407ZM140.84 97.7617H139.801V98.8749H140.84V97.7617ZM139.875 108.485H140.766V101.032H139.875V108.485ZM132.671 102.887C132.671 104.269 133.858 104.608 135.032 104.891C136.22 105.16 137.393 105.336 137.393 106.407C137.393 107.446 136.396 107.892 135.45 107.892C134.443 107.892 133.459 107.567 133.385 106.449H132.42C132.448 108.096 133.937 108.708 135.227 108.708C136.8 108.708 138.358 107.952 138.358 106.273C138.358 105.471 137.867 104.803 137.096 104.534C135.079 103.819 133.636 103.926 133.636 102.827C133.636 101.95 134.48 101.625 135.315 101.625C136.234 101.625 137.069 101.936 137.157 102.873H138.122C138.001 101.301 136.814 100.809 135.403 100.809C134.095 100.809 132.671 101.342 132.671 102.887ZM123.096 108.485L124.223 105.591H129.553L130.699 108.485H131.752L127.475 97.7617H126.348L122.098 108.485H123.096ZM124.534 104.701L126.895 98.6569L129.215 104.701H124.534ZM117.255 97.7617H116.364V108.485H117.255V97.7617ZM113.604 103.912C112.523 103.972 111.229 103.824 110.232 104.255C109.341 104.626 108.733 105.396 108.733 106.407C108.733 107.864 109.833 108.708 111.215 108.708C112.226 108.708 113.219 108.114 113.549 107.488L113.595 107.386H113.623L113.651 108.485H114.569C114.541 107.98 114.481 107.386 114.495 106.806V103.272C114.523 101.565 113.502 100.809 111.851 100.809C110.426 100.809 109.281 101.389 109.058 102.919H110.009C110.13 101.908 110.9 101.625 111.837 101.625C112.89 101.625 113.516 102.01 113.604 103.23V103.912ZM109.698 106.407C109.698 104.538 112.342 104.775 113.604 104.728C113.692 106.287 113.321 107.892 111.377 107.892C110.473 107.892 109.698 107.414 109.698 106.407ZM105.732 104C105.76 102.576 106.46 101.625 107.782 101.625C107.963 101.625 108.153 101.672 108.33 101.686V100.823C108.033 100.809 107.736 100.795 107.439 100.809C106.697 100.837 106.029 101.375 105.76 102.131H105.732L105.685 101.032H104.767C104.795 101.537 104.855 102.131 104.841 102.711V108.485H105.732V104ZM100.986 106.496C100.986 107.507 100.884 108.708 102.767 108.708C103.064 108.708 103.394 108.648 103.677 108.574V107.799C103.44 107.873 103.171 107.887 102.902 107.887C102.22 107.887 101.863 107.516 101.877 106.834V101.843H103.57V101.027H101.877V99.0511L100.986 99.4361V101.027H99.5014V101.843H100.986V106.496ZM93.6005 104.195C93.6005 102.859 94.2685 101.625 95.7391 101.625C96.9545 101.625 97.7014 102.381 97.7014 103.676V108.485H98.5921V103.824C98.5921 102.961 98.3973 100.809 95.9618 100.809C94.9968 100.809 94.1479 101.24 93.6283 102.159L93.6005 102.131L93.5541 101.032H92.6355C92.6634 101.537 92.7098 102.131 92.7098 102.711V108.485H93.6005V104.195ZM85.445 104.149C85.5656 102.841 86.3357 101.625 87.7923 101.625C89.3372 101.625 90.1072 102.711 90.2139 104.149H85.445ZM91.1789 104.965C91.1789 102.632 90.2743 100.809 87.7784 100.809C85.5656 100.809 84.4522 102.739 84.4522 104.761C84.4522 106.797 85.4914 108.713 87.7181 108.713C89.5181 108.713 90.6315 107.896 91.0907 106.115H90.1536C89.931 107.14 89.0542 107.896 88.0011 107.896C86.1733 107.896 85.445 106.561 85.4171 104.97H91.1789V104.965ZM83.1254 100.271C82.977 98.3415 81.3116 97.5391 79.5626 97.5391C76.3245 97.5391 74.9421 100.183 74.9421 103.124C74.9421 106.092 76.306 108.708 79.5626 108.708C81.2884 108.708 82.9352 107.683 83.246 105.883H82.2069C81.9378 107.219 80.7502 107.813 79.5626 107.813C76.8163 107.813 75.9859 105.317 75.9859 103.119C75.9859 100.92 76.8163 98.425 79.5626 98.425C80.7827 98.425 81.91 98.9584 82.0863 100.266H83.1254V100.271ZM68.6422 108.485H69.5608C69.5329 107.98 69.4865 107.386 69.4865 106.806V97.7617H68.5958V102.126L68.568 102.154C68.0484 101.278 67.0093 100.804 66.0119 100.804C63.799 100.804 62.9501 102.794 62.9501 104.724C62.9501 106.593 63.799 108.703 66.0119 108.703C67.051 108.703 67.9556 108.212 68.568 107.321L68.5958 107.381L68.6422 108.485ZM68.568 104.58C68.568 106.273 67.9742 107.892 66.0258 107.892C64.3186 107.892 63.915 106.004 63.915 104.626C63.915 103.202 64.4624 101.625 66.1603 101.625C67.8953 101.625 68.568 103.063 68.568 104.58ZM56.4925 104.195C56.4925 102.859 57.1605 101.625 58.6311 101.625C59.8512 101.625 60.5934 102.381 60.5934 103.676V108.485H61.4841V103.824C61.4841 102.961 61.2893 100.809 58.8538 100.809C57.8888 100.809 57.0399 101.24 56.5203 102.159L56.4925 102.131L56.4461 101.032H55.5275C55.5554 101.537 55.6018 102.131 55.6018 102.711V108.485H56.4925V104.195ZM52.8461 103.912C51.7606 103.972 50.4709 103.824 49.4735 104.255C48.5828 104.626 47.9751 105.396 47.9751 106.407C47.9751 107.864 49.0746 108.708 50.457 108.708C51.4683 108.708 52.4611 108.114 52.7905 107.488L52.8369 107.386H52.8647L52.8925 108.485H53.8111C53.7832 107.98 53.7229 107.386 53.7368 106.806V103.272C53.7647 101.565 52.7394 100.809 51.0926 100.809C49.6684 100.809 48.5225 101.389 48.2998 102.919H49.2509C49.3715 101.908 50.1416 101.625 51.0787 101.625C52.1317 101.625 52.758 102.01 52.8461 103.23V103.912ZM48.94 106.407C48.94 104.538 51.5843 104.775 52.8461 104.728C52.9343 106.287 52.5632 107.892 50.6194 107.892C49.7101 107.892 48.94 107.414 48.94 106.407ZM37.4119 104.149C37.5325 102.841 38.3026 101.625 39.7593 101.625C41.3041 101.625 42.0742 102.711 42.1809 104.149H37.4119ZM43.1412 104.965C43.1412 102.632 42.2366 100.809 39.7407 100.809C37.5279 100.809 36.4145 102.739 36.4145 104.761C36.4145 106.797 37.4537 108.713 39.6804 108.713C41.4758 108.713 42.5938 107.896 43.053 106.115H42.1159C41.8933 107.14 41.0165 107.896 39.9634 107.896C38.1356 107.896 37.4073 106.561 37.3794 104.97H43.1412V104.965ZM29.6507 107.326H29.6786C30.2863 108.216 31.1909 108.708 32.2765 108.708C34.4475 108.708 35.2919 106.598 35.2919 104.728C35.2919 102.799 34.4475 100.809 32.2301 100.809C31.2327 100.809 30.1935 101.282 29.6786 102.159L29.6507 102.131L29.6043 101.032H28.6858C28.7136 101.537 28.774 102.131 28.76 102.711V111.338H29.6507V107.326ZM29.6507 104.58C29.6507 103.063 30.3188 101.625 32.0584 101.625C33.7517 101.625 34.3316 103.198 34.3316 104.626C34.3316 106.009 33.9001 107.892 32.193 107.892C30.2445 107.892 29.6507 106.273 29.6507 104.58ZM23.9076 100.809C21.5323 100.809 20.4329 102.799 20.4329 104.761C20.4329 106.723 21.5323 108.713 23.9076 108.713C26.2828 108.713 27.3822 106.723 27.3822 104.761C27.3822 102.799 26.2828 100.809 23.9076 100.809ZM26.4173 104.756C26.4173 106.138 25.7029 107.887 23.9076 107.887C22.1122 107.887 21.3978 106.134 21.3978 104.756C21.3978 103.379 22.1122 101.621 23.9076 101.621C25.7029 101.621 26.4173 103.379 26.4173 104.756ZM17.5381 104C17.5659 102.576 18.2664 101.625 19.5886 101.625C19.7695 101.625 19.9597 101.672 20.136 101.686V100.823C19.8391 100.809 19.5422 100.795 19.2453 100.809C18.503 100.837 17.835 101.375 17.5659 102.131H17.5381L17.4917 101.032H16.5732C16.601 101.537 16.6613 102.131 16.6474 102.711V108.485H17.5381V104ZM13.8361 105.322C13.8361 106.658 13.1681 107.892 11.6975 107.892C10.4821 107.892 9.73516 107.136 9.73516 105.842V101.032H8.84446V105.693C8.84446 106.556 9.0393 108.708 11.4748 108.708C12.4397 108.708 13.2887 108.277 13.8083 107.354L13.8361 107.381L13.8825 108.481H14.801C14.7732 107.975 14.7268 107.381 14.7268 106.802V101.027H13.8361V105.322ZM7.44809 108.485V107.595H1.82089V103.393H7.01666V102.502H1.82089V98.6569H7.22542V97.7663H0.855957V108.49H7.44809V108.485Z" fill="#009FE3"/>
        <path d="M137.018 25.298C135.171 24.2822 135.134 22.8814 135.232 22.3666C135.329 21.8425 135.691 22.0697 135.923 22.0697C137.134 22.0697 138.41 21.7126 139.982 20.1077C141.754 18.2988 142.311 14.2774 139.588 11.6568C136.651 8.83208 133.529 9.32374 131.516 11.8655C131.103 12.385 130.096 12.7653 129.224 12.7375C127.934 12.6865 128.746 13.7069 128.746 13.9156C128.746 14.129 128.551 14.2774 128.436 14.245C127.995 14.1197 128.171 14.7691 128.171 14.9639C128.171 15.1587 127.99 15.2607 127.893 15.2607C127.35 15.2607 127.498 15.7478 127.517 15.8823C127.531 16.0121 127.485 16.2394 127.304 16.3368C127.132 16.4342 126.928 16.8609 126.928 17.1903C126.928 17.7793 127.466 18.1875 128.371 18.86C129.271 19.5326 129.382 20.1727 129.4 20.6272C129.419 21.0864 129.461 21.8239 129.665 22.3156C129.906 22.9046 129.874 23.9853 128.63 24.0364C127.109 24.0967 124.404 25.3119 124.177 25.3954C123.319 25.7015 122.182 25.8082 121.296 25.5855C120.818 25.247 120.364 24.8805 119.932 24.4816C119.756 23.8694 120.062 23.2154 120.373 22.7701C120.878 23.2757 121.635 23.2432 122.057 23.2571C122.484 23.2757 124.562 22.9464 124.859 22.849C125.156 22.7516 125.286 22.784 125.466 22.849C126.26 23.1365 127.35 23.2247 127.791 21.7033C128.231 20.182 127.188 20.604 127.053 20.6736C126.923 20.7385 126.742 20.7246 126.807 20.5901C127.002 20.2005 126.71 20.2422 126.543 20.2283C126.121 20.1866 125.564 20.6365 125.383 20.7988C125.202 20.9658 125.021 20.9473 124.956 20.9148C124.395 20.6365 122.711 21.04 122.187 20.1263C122.238 19.8805 121.76 16.1838 121.519 15.5437C121.468 15.4092 121.421 15.1865 121.584 14.9407C122.01 14.296 123.189 14.9871 123.829 14.9732C124.594 14.95 124.715 14.6346 124.928 14.3748C125.128 14.1244 125.276 14.2635 125.388 14.1939C125.527 14.1012 125.397 13.9249 125.443 13.8275C125.494 13.7301 125.55 13.7765 125.68 13.6605C125.814 13.5446 125.661 13.2987 125.731 13.2013C125.921 12.9184 126.436 13.1457 126.125 12.4036C125.958 11.9954 126.19 11.5501 126.418 11.2579C126.789 10.7802 128.222 8.76251 125.698 6.67065C123.291 4.67619 120.851 4.83853 119.278 6.54078C117.71 8.24302 118.494 10.7338 118.656 11.3878C118.819 12.0418 118.346 12.6355 117.803 12.8952C117.371 13.0993 116.392 13.7533 115.65 14.398C115.771 9.05472 119.014 4.35615 123.987 2.35241C124.2 2.61679 124.437 2.86726 124.692 3.10381C124.135 3.50734 122.929 4.58806 122.929 4.58806C122.929 4.58806 123.096 4.61589 123.249 4.653C123.356 4.67619 123.583 4.74576 123.583 4.74576C123.583 4.74576 124.645 3.8413 125.146 3.47951C125.536 3.77636 125.963 4.02219 126.413 4.22164C126.172 4.6298 125.564 5.77082 125.564 5.77082C125.564 5.77082 125.703 5.85431 125.828 5.9378C125.954 6.02129 126.032 6.0955 126.032 6.0955C126.032 6.0955 126.696 4.8478 126.946 4.43036C127.503 4.61589 128.083 4.72257 128.672 4.7504V7.03707C128.347 7.02779 127.508 6.99533 127.169 6.95822L126.956 6.93503L127.076 7.11128C127.169 7.24579 127.239 7.37566 127.299 7.49162L127.322 7.54264L127.378 7.54728C127.624 7.56583 128.389 7.59366 128.672 7.60294V11.7635H129.252V10.8126C130.096 10.7709 130.801 10.7152 131.65 10.641L131.688 10.6364L132.434 9.97774L132.026 10.0148C131.126 10.1308 130.338 10.1865 129.623 10.2282C129.623 10.2282 129.377 10.2421 129.252 10.2514V7.61222C130.296 7.58903 131.344 7.44524 132.365 7.17622C132.643 7.86268 133.172 9.52783 133.172 9.52783L133.715 9.36085C133.715 9.36085 133.191 7.70962 132.912 7.01852C133.775 6.75414 134.615 6.39235 135.403 5.96099C136.044 6.74486 136.591 7.5983 137.046 8.50741C136.637 8.69757 135.891 8.96196 135.891 8.96196C136.489 9.02689 136.939 9.17068 136.939 9.17068C136.939 9.17068 137.152 9.07791 137.287 9.02225C137.338 9.14285 137.445 9.38404 137.445 9.38404L138.192 9.718L138.103 9.50927C138.103 9.50927 137.857 8.91557 137.797 8.78106C138.586 8.39145 139.365 7.94153 140.107 7.44524C141.522 9.60668 142.274 12.1206 142.274 14.7181C142.274 19.0224 140.21 22.8629 137.018 25.298ZM127.512 1.48505C126.691 1.8422 125.907 2.27356 125.17 2.77449C124.947 2.57505 124.743 2.36633 124.553 2.14833C125.508 1.81437 126.496 1.59173 127.512 1.48505ZM126.71 3.73926C126.329 3.57692 125.977 3.37747 125.647 3.14092C126.394 2.64462 127.197 2.22254 128.041 1.87931C127.568 2.47301 127.118 3.09453 126.71 3.73926ZM128.667 1.9999V4.18917C128.19 4.16598 127.716 4.07785 127.257 3.9387C127.684 3.27079 128.157 2.62143 128.667 1.9999ZM129.247 4.75968C129.841 4.73185 130.43 4.62517 130.992 4.43964C131.414 5.14465 131.794 5.88214 132.128 6.64746C131.186 6.88865 130.217 7.02316 129.243 7.04635V4.75968H129.247ZM129.247 1.97207C129.758 2.58896 130.24 3.2476 130.681 3.93406C130.217 4.07785 129.734 4.16134 129.247 4.18453V1.97207ZM132.295 3.14556C131.961 3.38211 131.604 3.58155 131.233 3.73926C130.829 3.10381 130.375 2.48228 129.892 1.87467C130.736 2.2179 131.539 2.64462 132.295 3.14556ZM133.381 2.15296C133.191 2.3756 132.986 2.58432 132.764 2.77913C132.031 2.2782 131.251 1.84684 130.44 1.49433C131.451 1.60101 132.439 1.81901 133.381 2.15296ZM135.023 5.51108C134.276 5.91461 133.492 6.23929 132.685 6.48512C132.346 5.71516 131.961 4.95448 131.525 4.22627C131.975 4.02683 132.397 3.78564 132.792 3.48415C133.608 4.07785 134.355 4.75968 135.023 5.51108ZM133.947 2.36169C135.055 2.80696 136.099 3.40994 137.055 4.14279C136.577 4.53704 136.062 4.89882 135.524 5.2235C134.842 4.44427 134.077 3.73462 133.242 3.11309C133.497 2.88117 133.733 2.63071 133.947 2.36169ZM139.787 6.96286C139.078 7.44524 138.331 7.8766 137.556 8.25694C137.097 7.33856 136.545 6.46656 135.9 5.66414C136.47 5.31627 137.013 4.93129 137.514 4.50457C138.372 5.22814 139.133 6.05839 139.787 6.96286ZM128.964 0.835693C121.315 0.835693 115.089 7.06026 115.089 14.7088C115.089 22.3573 121.315 28.5819 128.964 28.5819C136.614 28.5819 142.84 22.3573 142.84 14.7088C142.84 7.05562 136.614 0.835693 128.964 0.835693Z" fill="#009FE3"/>
        <path d="M113.832 4.52318L113.614 4.71335C112.797 5.43692 110.941 7.33397 111.224 9.4212C111.224 9.42584 111.252 9.56498 111.252 9.56498C111.252 9.56962 111.345 9.97779 111.345 9.97779L111.605 9.74124C112.741 8.69763 113.6 6.93508 113.948 4.89424L114.045 4.32373L113.832 4.52318Z" fill="#009FE3"/>
        <path d="M110.055 8.12693L109.963 8.38204C109.833 8.72991 109.596 9.46276 109.471 10.4322C109.295 11.8097 109.336 13.7578 110.533 15.2142L110.663 15.3858L110.802 15.5621L110.979 14.6762C111.178 13.1131 110.914 9.83382 110.343 8.37276L110.144 7.87646L110.055 8.12693Z" fill="#009FE3"/>
        <path d="M108.678 13.7627L108.659 14.0178C108.557 15.4185 108.631 18.8787 111.433 20.7155L111.767 20.9288L111.754 20.5346C111.703 19.2219 110.172 15.3026 109.021 13.8972L108.696 13.4983L108.678 13.7627Z" fill="#009FE3"/>
        <path d="M109.16 19.9502L109.206 20.1867C109.615 22.1765 111.503 25.3955 114.416 26.3278L114.815 26.4577L114.671 26.0634C114.128 24.5792 111.322 21.1144 109.517 19.9687L109.109 19.7136L109.16 19.9502Z" fill="#009FE3"/>
        <path d="M115.009 7.51488L114.778 7.65403C112.606 8.97594 111.595 10.5808 111.669 12.5567L111.688 13.0066L112.003 12.7422C113.177 11.7728 114.643 9.29134 115.074 7.88594L115.232 7.37109L115.009 7.51488Z" fill="#009FE3"/>
        <path d="M113.734 11.8472L113.567 12.0049C113.011 12.5336 111.215 14.4446 111.373 16.8055C111.396 17.1719 111.48 17.5569 111.619 17.965L111.744 18.3407L111.976 18.0161C112.834 16.8101 113.971 13.6236 113.911 12.1394L113.892 11.6895L113.734 11.8472Z" fill="#009FE3"/>
        <path d="M113.827 15.9473L113.702 16.1281C112.797 17.4732 112.333 18.8508 112.361 20.1263C112.389 21.0679 112.686 21.9677 113.256 22.8026L113.447 23.0856L113.604 22.7841C113.999 22.0466 114.305 19.6625 114.263 17.7747C114.244 17.1068 114.18 16.5549 114.068 16.1792L113.952 15.7617L113.827 15.9473Z" fill="#009FE3"/>
        <path d="M114.875 20.3349L114.819 20.5251C114.546 21.3971 114.42 22.2506 114.444 23.0623C114.495 24.8944 115.307 26.3322 116.861 27.3248L117.125 27.4918L117.181 27.1393C117.181 27.1347 117.204 26.8564 117.204 26.8564C117.162 25.3675 116.049 21.6105 115.181 20.4648L114.94 20.1494L114.875 20.3349Z" fill="#009FE3"/>
        <path d="M111.818 26.1514L111.929 26.3415C113.099 28.2989 115.079 30.8221 118.781 30.1774L119.092 30.1217L118.916 29.862C118.225 28.8323 113.729 26.2951 112.138 26.0354L111.702 25.9658L111.818 26.1514Z" fill="#009FE3"/>
        <path d="M117.301 31.1189L116.717 31.2766L117.278 31.5039C119.635 32.4687 122.585 32.7516 124.302 32.1765C124.947 31.9585 125.336 31.6059 125.814 31.1375C128.829 31.4482 131.65 33.9576 133.297 36.003L133.385 36.1051L133.51 36.068C133.696 36.003 133.983 35.785 134.099 35.6552L134.215 35.5299L134.113 35.3954C132.397 33.1505 129.706 31.759 129.59 31.7033C127.169 30.5206 122.901 29.6022 117.301 31.1189Z" fill="#009FE3"/>
        <path d="M117.427 24.8574L117.459 25.0569C117.812 27.2739 118.716 30.1868 122.465 29.8667L122.706 29.8482L122.645 29.6163C122.39 28.6098 118.957 25.6737 117.756 24.8528L117.394 24.6672L117.427 24.8574Z" fill="#009FE3"/>
        <path d="M143.93 4.32837L144.027 4.89888C144.375 6.93508 145.229 8.70227 146.37 9.74124L146.63 9.97779C146.63 9.97779 146.718 9.56962 146.718 9.56499C146.718 9.56499 146.746 9.42584 146.746 9.41656C147.033 7.32933 145.173 5.42764 144.361 4.70871L144.148 4.52318L143.93 4.32837Z" fill="#009FE3"/>
        <path d="M147.836 7.87646L147.636 8.37276C147.061 9.83382 146.801 13.1131 146.996 14.6762L147.177 15.5621L147.316 15.3858L147.451 15.2142C148.643 13.7578 148.685 11.8097 148.509 10.4322C148.383 9.45812 148.151 8.72991 148.021 8.38204L147.929 8.12693L147.836 7.87646Z" fill="#009FE3"/>
        <path d="M149.288 13.5027L148.958 13.9016C147.813 15.307 146.277 19.2263 146.231 20.539L146.217 20.9332L146.546 20.7198C149.348 18.8831 149.422 15.4276 149.325 14.0222L149.306 13.7671L149.288 13.5027Z" fill="#009FE3"/>
        <path d="M148.871 19.7136L148.462 19.9734C146.662 21.1144 143.851 24.5792 143.308 26.0681L143.165 26.4623L143.564 26.3324C146.477 25.4002 148.36 22.1765 148.769 20.1914L148.82 19.9548L148.871 19.7136Z" fill="#009FE3"/>
        <path d="M142.854 7.31055L143.002 7.8254C143.406 9.24471 144.826 11.7494 145.976 12.7466L146.287 13.0156L146.315 12.5611C146.431 10.5852 145.447 8.96177 143.304 7.59812L143.077 7.45433L142.854 7.31055Z" fill="#009FE3"/>
        <path d="M144.083 11.6938L144.064 12.1438C144.004 13.628 145.141 16.8099 145.999 18.0205L146.231 18.3451L146.361 17.9694C146.5 17.5613 146.579 17.1717 146.607 16.8099C146.764 14.4443 144.969 12.538 144.412 12.0093L144.25 11.8515L144.083 11.6938Z" fill="#009FE3"/>
        <path d="M144.037 15.7664L143.911 16.1838C143.8 16.5595 143.735 17.1115 143.717 17.7794C143.67 19.6671 143.981 22.0512 144.371 22.7887L144.533 23.0856L144.723 22.8026C145.289 21.9677 145.586 21.0679 145.609 20.1263C145.642 18.8554 145.178 17.4732 144.273 16.1281L144.153 15.9472L144.037 15.7664Z" fill="#009FE3"/>
        <path d="M143.039 20.1494L142.803 20.4648C141.931 21.6105 140.822 25.3675 140.78 26.8564C140.78 26.8564 140.799 27.13 140.803 27.1393L140.859 27.4918L141.124 27.3248C142.673 26.3322 143.489 24.8944 143.541 23.0623C143.564 22.2506 143.434 21.3971 143.16 20.5251L143.1 20.3349L143.039 20.1494Z" fill="#009FE3"/>
        <path d="M146.273 25.9612L145.841 26.0308C144.25 26.2905 139.75 28.8276 139.059 29.8573L138.887 30.1171L139.198 30.1727C142.905 30.8221 144.886 28.2942 146.05 26.3369L146.161 26.1467L146.273 25.9612Z" fill="#009FE3"/>
        <path d="M128.389 31.6987C128.273 31.7544 125.582 33.1458 123.866 35.3908L123.764 35.5299L123.88 35.6552C124 35.785 124.283 36.003 124.469 36.068L124.594 36.1051L124.682 36.003C126.324 33.9575 129.15 31.4482 132.165 31.1375C132.643 31.6013 133.033 31.9538 133.682 32.1764C135.394 32.7516 138.344 32.4687 140.706 31.5039L141.262 31.2766L140.678 31.1189C135.078 29.6022 130.806 30.5206 128.389 31.6987Z" fill="#009FE3"/>
        <path d="M140.585 24.658L140.228 24.8435C139.026 25.6691 135.593 28.6005 135.338 29.607L135.278 29.8389L135.514 29.8575C139.263 30.1775 140.167 27.2693 140.52 25.0476L140.552 24.8528L140.585 24.658Z" fill="#009FE3"/>
        <path d="M45.0574 11.04H49.0424V32.0885H45.0574V11.04ZM44.6816 1.81445H49.4228V6.13269H44.6816V1.81445Z" fill="#009FE3"/>
        <path d="M14.9827 11.0583H18.9677V32.1069H15.0662V29.0038H14.9827C13.3869 31.6477 10.7055 32.733 7.76892 32.733C3.36643 32.733 0.852051 29.3795 0.852051 25.1448V11.0583H4.83702V23.5121C4.83702 27.1625 5.6767 29.8434 9.49002 29.8434C11.1276 29.8434 13.3497 29.0038 14.1848 26.8239C14.9363 24.8526 14.9827 22.3804 14.9827 21.8748V11.0583Z" fill="#009FE3"/>
        <path d="M26.9237 14.1615H27.0072C28.3479 11.5224 31.2844 10.4324 33.3813 10.4324C34.8472 10.4324 41.3466 10.8081 41.3466 17.5614V32.1117H37.3663V18.8555C37.3663 15.3768 35.8957 13.489 32.5416 13.489C32.5416 13.489 30.3612 13.3638 28.6819 15.0382C28.0974 15.6226 27.0026 16.5456 27.0026 20.6551V32.1024H23.0176V11.0585H26.919V14.1615H26.9237Z" fill="#009FE3"/>
        <path d="M65.7251 17.8072C65.5163 15.182 64.2684 13.3499 61.4339 13.3499C57.6484 13.3499 56.1871 16.6338 56.1871 21.555C56.1871 26.4715 57.6484 29.7647 61.4339 29.7647C64.055 29.7647 65.6833 28.0625 65.8875 25.0569H69.8492C69.5106 29.7647 66.0127 32.6358 61.3875 32.6358C54.6794 32.6358 52.0166 27.8909 52.0166 21.7219C52.0166 15.5901 55.097 10.4695 61.7308 10.4695C66.1472 10.4695 69.4781 13.2664 69.6776 17.8026H65.7251V17.8072Z" fill="#009FE3"/>
        <path d="M86.3829 19.5605C86.4664 16.0632 84.8798 13.3545 81.048 13.3545C77.7542 13.3545 75.8012 16.1375 75.8012 19.5605H86.3829ZM75.8012 22.3064C75.5089 25.9752 77.012 29.7647 81.048 29.7647C84.1329 29.7647 85.6731 28.5588 86.1277 25.5114H90.2983C89.672 30.2657 86.0025 32.6405 81.0062 32.6405C74.2981 32.6405 71.626 27.8955 71.626 21.7266C71.626 15.5948 74.7156 10.4741 81.3402 10.4741C87.5891 10.604 90.5442 14.5558 90.5442 20.3537V22.3064H75.8012Z" fill="#009FE3"/>
        <path d="M95.0301 32.0142V13.8507H91.4302V11.0956H95.0301V6.60107C95.16 2.01845 98.6115 0.8125 101.571 0.8125C102.527 0.8125 103.45 1.05833 104.41 1.22531V4.51385C103.738 4.47674 103.074 4.38861 102.402 4.38861C100.156 4.38861 98.862 4.97767 98.9872 7.26434V11.0956H103.821V13.8507H98.9872V32.0142H95.0301Z" fill="#009FE3"/>
        <path d="M147.869 46.5181H0.768066V47.3205H147.869V46.5181Z" fill="#009FE3"/>
        <path d="M3.20824 75.1688V63.3412H0.536133V61.8847H3.20824V59.0554C3.20824 56.778 4.13606 55.7483 6.40921 55.7483C6.91487 55.7483 7.44373 55.9338 7.91691 56.0405V57.3114C7.60145 57.2604 7.25816 57.2047 6.93807 57.2047C4.76698 57.2047 4.71595 58.2901 4.79481 60.1918V61.8847H7.81021V63.3412H4.79481V75.1688H3.20824Z" fill="#009FE3"/>
        <path d="M14.6019 62.9423C11.4009 62.9423 10.1298 66.0638 10.1298 68.5268C10.1298 70.9897 11.4009 74.1112 14.6019 74.1112C17.8028 74.1112 19.0739 70.9897 19.0739 68.5268C19.0739 66.0638 17.8028 62.9423 14.6019 62.9423ZM20.795 68.5268C20.795 72.0194 18.8373 75.563 14.6019 75.563C10.3664 75.563 8.40869 72.0194 8.40869 68.5268C8.40869 65.0341 10.3664 61.4858 14.6019 61.4858C18.8373 61.4905 20.795 65.0341 20.795 68.5268Z" fill="#009FE3"/>
        <path d="M24.6962 75.1688H23.1096V64.8765C23.1375 63.8468 23.0308 62.7846 22.9751 61.8848H24.6173L24.6962 63.8421H24.7472C25.2251 62.4924 26.4173 61.5416 27.7394 61.4859C28.2683 61.4581 28.7971 61.4859 29.326 61.5137V63.049C29.0059 63.0212 28.6626 62.9423 28.3472 62.9423C25.9905 62.9423 24.7472 64.6353 24.6962 67.1771V75.1688Z" fill="#009FE3"/>
        <path d="M45.5771 67.4414C45.3915 64.8764 44.0137 62.9423 41.2627 62.9423C38.6695 62.9423 37.2917 65.113 37.0783 67.4414H45.5771ZM37.0273 68.8978C37.0783 71.7318 38.3772 74.1112 41.6339 74.1112C43.5127 74.1112 45.0761 72.7615 45.4704 70.934H47.1358C46.3147 74.1112 44.3292 75.563 41.1282 75.563C37.1571 75.563 35.3062 72.1492 35.3062 68.5268C35.3062 64.9274 37.2917 61.4858 41.2349 61.4858C45.6791 61.4858 47.2935 64.7419 47.2935 68.8932H37.0273V68.8978Z" fill="#009FE3"/>
        <path d="M49.4413 61.8848L54.0201 72.9749L58.4365 61.8848H60.1854L54.9201 75.1688H53.1201L47.6924 61.8848H49.4413Z" fill="#009FE3"/>
        <path d="M70.7856 67.4424C70.6 64.8774 69.2222 62.9432 66.4712 62.9432C63.878 62.9432 62.5002 65.1139 62.2868 67.4424H70.7856ZM62.2358 68.8988C62.2868 71.7328 63.5857 74.1122 66.8424 74.1122C68.7212 74.1122 70.2846 72.7625 70.6789 70.935H72.3443C71.5232 74.1122 69.5377 75.564 66.3367 75.564C62.3656 75.564 60.5146 72.1502 60.5146 68.5277C60.5146 64.9284 62.5002 61.4868 66.4434 61.4868C70.8876 61.4868 72.502 64.7429 72.502 68.8941H62.2358V68.8988Z" fill="#009FE3"/>
        <path d="M76.5658 75.1688H74.9793V64.8765C75.0071 63.8468 74.9004 62.7846 74.8447 61.8848H76.487L76.5658 63.8421H76.6169C77.0947 62.4924 78.2869 61.5416 79.6091 61.4859C80.1379 61.4581 80.6668 61.4859 81.1956 61.5137V63.049C80.8755 63.0212 80.5322 62.9423 80.2168 62.9423C77.8601 62.9423 76.6169 64.6353 76.5658 67.1771V75.1688Z" fill="#009FE3"/>
        <path d="M84.6103 61.8848L89.0824 72.9981L93.5266 61.8848H95.2477L87.9179 80.2524H86.169L88.1824 75.1688L82.6758 61.8848H84.6103Z" fill="#009FE3"/>
        <path d="M110.385 65.962C110.251 63.9258 108.956 62.9425 106.757 62.9425C104.322 62.9425 102.814 65.4843 102.814 68.4992C102.814 71.5419 104.322 74.1068 106.757 74.1068C108.822 74.1068 110.251 72.836 110.385 71.0131H112.106C111.684 74.0558 109.935 75.5679 106.92 75.5679C102.949 75.5679 101.098 72.1541 101.098 68.527C101.098 64.9277 103.083 61.4861 107.026 61.4861C109.754 61.4861 111.976 63.128 112.106 65.9574H110.385V65.962Z" fill="#009FE3"/>
        <path d="M115.915 63.8978H115.966C116.894 62.2558 118.402 61.4905 120.123 61.4905C124.465 61.4905 124.808 65.3264 124.808 66.8616V75.1688H123.222V66.5972C123.222 64.2967 121.9 62.9469 119.729 62.9469C117.107 62.9469 115.915 65.1455 115.915 67.5249V75.1734H114.329V56.0684H115.915V63.8978Z" fill="#009FE3"/>
        <path d="M129.067 75.1688H127.48V61.8848H129.067V75.1688ZM129.197 58.0489H127.346V56.0637H129.197V58.0489Z" fill="#009FE3"/>
        <path d="M133.775 56.0637H132.188V75.1688H133.775V56.0637Z" fill="#009FE3"/>
        <path d="M141.935 62.9469C138.92 62.9469 137.941 65.7531 137.941 68.2902C137.941 70.7531 138.655 74.1113 141.698 74.1113C145.164 74.1113 146.226 71.2263 146.226 68.2114C146.222 65.5119 145.029 62.9469 141.935 62.9469ZM146.273 73.2114L146.222 73.1048C145.136 74.691 143.522 75.5677 141.671 75.5677C137.727 75.5677 136.22 71.8107 136.22 68.4758C136.22 65.0342 137.727 61.4905 141.671 61.4905C143.443 61.4905 145.298 62.3347 146.222 63.8978L146.273 63.8467V56.0684H147.859V72.1817C147.859 73.2114 147.938 74.2736 147.994 75.1688H146.351L146.273 73.2114Z" fill="#009FE3"/>
    </g>
    <defs>
        <clipPath id="clip0">
            <rect width="148.808" height="110.526" fill="white" transform="translate(0.536133 0.8125)"/>
        </clipPath>
    </defs>
</svg>
