<svg width="48" height="48" viewBox="0 0 48 48" fill="none" xmlns="http://www.w3.org/2000/svg">
<path d="M22.3404 12.0276H20.9294L19.9751 15.6887L18.9837 12.0276H17.5151C17.8072 12.8914 18.1157 13.7594 18.4119 14.6274C18.8603 15.9273 19.14 16.9063 19.2634 17.5768V21.3531H20.662V17.5768L22.3404 12.0276ZM26.0755 19.103V16.6677C26.0755 15.9273 25.948 15.3843 25.6847 15.0305C25.3351 14.5574 24.8456 14.3189 24.2162 14.3189C23.5909 14.3189 23.0973 14.5574 22.7517 15.0305C22.4844 15.3843 22.3568 15.9232 22.3568 16.6677V19.103C22.3568 19.8434 22.4844 20.3905 22.7517 20.7361C23.1014 21.2091 23.5909 21.4477 24.2162 21.4477C24.8456 21.4477 25.3351 21.2091 25.6847 20.7361C25.948 20.3905 26.0755 19.8434 26.0755 19.103ZM24.8126 19.3415C24.8126 19.9833 24.6193 20.3041 24.2121 20.3041C23.8048 20.3041 23.6115 19.9833 23.6115 19.3415V16.4168C23.6115 15.7751 23.8048 15.4542 24.2121 15.4542C24.6193 15.4542 24.8126 15.7751 24.8126 16.4168V19.3415ZM30.7321 21.3531V14.4052H29.4733V19.7159C29.1936 20.1108 28.9303 20.3041 28.6794 20.3041C28.5108 20.3041 28.412 20.2054 28.3832 20.0079C28.3668 19.9668 28.3668 19.8146 28.3668 19.5184V14.4052H27.1121V19.901C27.1121 20.3905 27.1533 20.7237 27.2232 20.9335C27.3466 21.2873 27.6263 21.4518 28.0336 21.4518C28.4943 21.4518 28.9715 21.1721 29.4733 20.5962V21.3531H30.7321Z" fill="#152FBF"/>
<path fill-rule="evenodd" clip-rule="evenodd" d="M34.4467 34.6604C34.8087 33.0973 34.8087 31.3943 34.8087 29.7858C34.8087 28.1774 34.8087 26.4744 34.4549 24.9154C34.204 23.8211 33.3073 23.0108 32.2254 22.8915C29.6667 22.6035 27.0793 22.6035 24.5042 22.6035C21.9291 22.6035 19.3416 22.6035 16.783 22.8915C15.7011 23.0108 14.8043 23.8211 14.5534 24.9154C14.1955 26.4785 14.1914 28.1815 14.1914 29.79C14.1914 31.3984 14.1914 33.1055 14.5493 34.6646C14.8002 35.7588 15.697 36.5691 16.7789 36.6884C19.3375 36.9723 21.925 36.9723 24.5001 36.9723H24.5001C27.0752 36.9723 29.6626 36.9723 32.2171 36.6843C33.299 36.565 34.1958 35.7547 34.4467 34.6604ZM20.0738 25.0182V26.3181H18.5765V34.245H17.1902V26.3181H15.7258V25.0182H20.0738ZM22.5914 33.5004V34.2491H23.8419V27.3712H22.5955V32.6283C22.3199 33.0191 22.0566 33.2125 21.8057 33.2125C21.637 33.2125 21.5424 33.1137 21.5136 32.9204C21.5013 32.8793 21.5013 32.7271 21.5013 32.435V27.3712H20.2548V32.8093C20.2548 33.2988 20.296 33.6238 20.3659 33.8336C20.4893 34.1792 20.7649 34.3437 21.168 34.3437C21.6247 34.3437 22.0977 34.0681 22.5914 33.5004ZM26.7831 33.2083C27.1451 33.2083 27.3261 32.9039 27.3261 32.2828V29.3457C27.3261 28.7245 27.141 28.4078 26.7831 28.4078C26.5774 28.4078 26.3717 28.5065 26.1619 28.7122V32.9039C26.3717 33.1096 26.5774 33.2083 26.7831 33.2083ZM28.5684 29.4444V32.1841C28.5684 32.8217 28.5273 33.2783 28.4409 33.5662C28.2763 34.0804 27.9431 34.3396 27.4454 34.3396C27.0011 34.3396 26.5733 34.0928 26.1578 33.5786V34.245H24.9114V25.0141H26.1578V28.0293C26.561 27.5357 26.9888 27.2848 27.4454 27.2848C27.9431 27.2848 28.2763 27.5481 28.4409 28.0623C28.5273 28.3379 28.5684 28.7945 28.5684 29.4444ZM30.7815 29.9998H32.0279V29.3621C32.0279 28.7245 31.8181 28.4078 31.4068 28.4078C30.9913 28.4078 30.7815 28.7245 30.7815 29.3621V29.9998ZM33.2743 31.8673V32.0483C33.2743 32.4473 33.2579 32.7229 33.2455 32.8587C33.2003 33.1302 33.1057 33.3811 32.9535 33.6033C32.6079 34.101 32.0979 34.3478 31.4479 34.3478C30.7938 34.3478 30.2961 34.1133 29.9382 33.6444C29.675 33.2988 29.5392 32.7559 29.5392 32.0277V29.6172C29.5392 28.8809 29.6585 28.342 29.9259 27.9964C30.2879 27.5275 30.7815 27.293 31.4191 27.293C32.0444 27.293 32.538 27.5234 32.8877 27.9964C33.1468 28.3461 33.2743 28.8809 33.2743 29.6172V31.0405H30.7815V32.2581C30.7815 32.8957 30.9913 33.2125 31.4191 33.2125C31.7276 33.2125 31.9086 33.0438 31.9786 32.7106C31.9868 32.6407 32.0032 32.3692 32.0032 31.8673H33.2743Z" fill="#152FBF"/>
</svg>
