<svg width="42" height="45" viewBox="0 0 42 45" fill="none" xmlns="http://www.w3.org/2000/svg">
<path d="M21.09 0.106659C17.0039 0.10666 13.6724 3.40653 13.6724 7.47713C13.6724 11.5477 17.0039 14.8476 21.09 14.8476C25.1761 14.8476 28.5076 11.5477 28.5076 7.47713C28.5076 3.40653 25.1761 0.106658 21.09 0.106659Z" fill="#152FBF"/>
<path d="M41.84 24.4929C41.84 20.4218 38.5272 17.1216 34.4407 17.1216L13.6719 17.1216L13.6719 31.8642L34.4407 31.8642C38.5272 31.8642 41.84 28.5639 41.84 24.4929Z" fill="#1CABE2"/>
<path d="M21.1212 44.9272C25.2178 44.9272 28.5388 41.6188 28.5388 37.5377L28.5388 17.1216L13.7035 17.1216L13.7035 37.5377C13.7035 41.6188 17.0245 44.9272 21.1212 44.9272Z" fill="#4FD183"/>
<path d="M0.339844 24.4929C0.339844 28.5639 3.65264 31.8642 7.73919 31.8642L28.508 31.8642L28.508 17.1216L7.73919 17.1216C3.65265 17.1216 0.339843 20.4218 0.339844 24.4929Z" fill="#4FD183"/>
<path d="M13.708 17.0995C13.708 25.2409 20.3696 31.8408 28.542 31.8408L28.542 17.0995L13.708 17.0995Z" fill="#8DD3FF"/>
</svg>
